LinguisticsPro-RegularItalic.ufo
<glyph name="exclam" format="2">
  <advance width="265"/>
  <unicode hex="0021"/>
  <outline>
    <contour>
      <point x="163" y="209" type="line"/>
      <point x="218" y="644" type="line" smooth="yes"/>
      <point x="223" y="680"/>
      <point x="236" y="707"/>
      <point x="289" y="707" type="curve" smooth="yes"/>
      <point x="344" y="707"/>
      <point x="344" y="679"/>
      <point x="331" y="639" type="curve" smooth="yes"/>
      <point x="191" y="209" type="line"/>
    </contour>
    <contour>
      <point x="82" y="45" type="curve" smooth="yes"/>
      <point x="82" y="86"/>
      <point x="109" y="113"/>
      <point x="147" y="113" type="curve" smooth="yes"/>
      <point x="183" y="113"/>
      <point x="204" y="87"/>
      <point x="204" y="57" type="curve" smooth="yes"/>
      <point x="204" y="15"/>
      <point x="178" y="-12"/>
      <point x="139" y="-12" type="curve" smooth="yes"/>
      <point x="103" y="-12"/>
      <point x="82" y="13"/>
    </contour>
  </outline>
</glyph>
<glyph name="numbersign" format="2">
  <advance width="530"/>
  <unicode hex="0023"/>
  <outline>
    <contour>
      <point x="89" y="231" type="line"/>
      <point x="106" y="279" type="line"/>
      <point x="210" y="279" type="line"/>
      <point x="256" y="410" type="line"/>
      <point x="151" y="410" type="line"/>
      <point x="168" y="458" type="line"/>
      <point x="273" y="458" type="line"/>
      <point x="347" y="668" type="line"/>
      <point x="403" y="668" type="line"/>
      <point x="330" y="458" type="line"/>
      <point x="462" y="458" type="line"/>
      <point x="536" y="668" type="line"/>
      <point x="591" y="668" type="line"/>
      <point x="518" y="458" type="line"/>
      <point x="620" y="458" type="line"/>
      <point x="605" y="410" type="line"/>
      <point x="501" y="410" type="line"/>
      <point x="455" y="279" type="line"/>
      <point x="558" y="279" type="line"/>
      <point x="543" y="231" type="line"/>
      <point x="438" y="231" type="line"/>
      <point x="357" y="0" type="line"/>
      <point x="301" y="0" type="line"/>
      <point x="382" y="231" type="line"/>
      <point x="250" y="231" type="line"/>
      <point x="169" y="0" type="line"/>
      <point x="112" y="0" type="line"/>
      <point x="193" y="231" type="line"/>
    </contour>
    <contour>
      <point x="267" y="279" type="line"/>
      <point x="399" y="279" type="line"/>
      <point x="445" y="410" type="line"/>
      <point x="313" y="410" type="line"/>
    </contour>
  </outline>
</glyph>
<glyph name="dollar" format="2">
  <advance width="530"/>
  <unicode hex="0024"/>
  <outline>
    <contour>
      <point x="66" y="120" type="curve" smooth="yes"/>
      <point x="66" y="150"/>
      <point x="90" y="170"/>
      <point x="113" y="170" type="curve" smooth="yes"/>
      <point x="129" y="170"/>
      <point x="136" y="161"/>
      <point x="141" y="146" type="curve" smooth="yes"/>
      <point x="168" y="65"/>
      <point x="212" y="42"/>
      <point x="250" y="37" type="curve"/>
      <point x="314" y="316" type="line"/>
      <point x="208" y="360"/>
      <point x="171" y="414"/>
      <point x="171" y="482" type="curve" smooth="yes"/>
      <point x="171" y="598"/>
      <point x="267" y="668"/>
      <point x="396" y="668" type="curve"/>
      <point x="414" y="743" type="line"/>
      <point x="454" y="743" type="line"/>
      <point x="437" y="666" type="line"/>
      <point x="516" y="659"/>
      <point x="586" y="618"/>
      <point x="586" y="560" type="curve" smooth="yes"/>
      <point x="586" y="532"/>
      <point x="559" y="515"/>
      <point x="538" y="515" type="curve" smooth="yes"/>
      <point x="521" y="515"/>
      <point x="514" y="525"/>
      <point x="510" y="541" type="curve" smooth="yes"/>
      <point x="496" y="596"/>
      <point x="467" y="625"/>
      <point x="429" y="631" type="curve"/>
      <point x="372" y="386" type="line"/>
      <point x="455" y="348"/>
      <point x="526" y="299"/>
      <point x="526" y="195" type="curve" smooth="yes"/>
      <point x="526" y="79"/>
      <point x="430" y="0"/>
      <point x="283" y="0" type="curve"/>
      <point x="260" y="-109" type="line"/>
      <point x="218" y="-109" type="line"/>
      <point x="243" y="2" type="line"/>
      <point x="136" y="9"/>
      <point x="66" y="64"/>
    </contour>
    <contour>
      <point x="292" y="35" type="line"/>
      <point x="380" y="35"/>
      <point x="440" y="86"/>
      <point x="440" y="169" type="curve" smooth="yes"/>
      <point x="440" y="229"/>
      <point x="410" y="270"/>
      <point x="351" y="298" type="curve"/>
    </contour>
    <contour>
      <point x="251" y="512" type="curve" smooth="yes"/>
      <point x="251" y="454"/>
      <point x="284" y="428"/>
      <point x="334" y="403" type="curve"/>
      <point x="388" y="633" type="line"/>
      <point x="305" y="633"/>
      <point x="251" y="586"/>
    </contour>
  </outline>
</glyph>
<glyph name="ampersand" format="2">
  <advance width="725"/>
  <unicode hex="0026"/>
  <outline>
    <contour>
      <point x="322" y="524" type="curve" smooth="yes"/>
      <point x="322" y="486"/>
      <point x="336" y="435"/>
      <point x="358" y="401" type="curve"/>
      <point x="423" y="432"/>
      <point x="483" y="488"/>
      <point x="483" y="564" type="curve" smooth="yes"/>
      <point x="483" y="603"/>
      <point x="463" y="645"/>
      <point x="411" y="645" type="curve" smooth="yes"/>
      <point x="367" y="645"/>
      <point x="322" y="600"/>
    </contour>
    <contour>
      <point x="190" y="172" type="curve" smooth="yes"/>
      <point x="190" y="105"/>
      <point x="242" y="37"/>
      <point x="327" y="37" type="curve" smooth="yes"/>
      <point x="335" y="37"/>
      <point x="343" y="38"/>
      <point x="351" y="39" type="curve" smooth="yes"/>
      <point x="400" y="45"/>
      <point x="442" y="69"/>
      <point x="475" y="99" type="curve"/>
      <point x="403" y="174"/>
      <point x="341" y="258"/>
      <point x="293" y="339" type="curve"/>
      <point x="265" y="327"/>
      <point x="190" y="276"/>
    </contour>
    <contour>
      <point x="95" y="162" type="curve" smooth="yes"/>
      <point x="95" y="285"/>
      <point x="204" y="335"/>
      <point x="277" y="369" type="curve"/>
      <point x="260" y="397"/>
      <point x="247" y="441"/>
      <point x="243" y="474" type="curve" smooth="yes"/>
      <point x="242" y="481"/>
      <point x="242" y="487"/>
      <point x="242" y="493" type="curve" smooth="yes"/>
      <point x="242" y="610"/>
      <point x="325" y="680"/>
      <point x="417" y="680" type="curve" smooth="yes"/>
      <point x="495" y="680"/>
      <point x="561" y="635"/>
      <point x="561" y="552" type="curve" smooth="yes"/>
      <point x="561" y="456"/>
      <point x="472" y="415"/>
      <point x="373" y="375" type="curve"/>
      <point x="408" y="312"/>
      <point x="468" y="231"/>
      <point x="535" y="159" type="curve"/>
      <point x="621" y="248"/>
      <point x="646" y="340"/>
      <point x="653" y="417" type="curve"/>
      <point x="680" y="430"/>
      <point x="706" y="436"/>
      <point x="730" y="433" type="curve"/>
      <point x="745" y="389"/>
      <point x="738" y="361"/>
      <point x="723" y="330" type="curve"/>
      <point x="688" y="266"/>
      <point x="640" y="207"/>
      <point x="557" y="133" type="curve"/>
      <point x="600" y="94"/>
      <point x="659" y="31"/>
      <point x="734" y="18" type="curve"/>
      <point x="730" y="-7" type="line"/>
      <point x="680" y="-5" type="line" smooth="yes"/>
      <point x="601" y="-2"/>
      <point x="546" y="29"/>
      <point x="498" y="75" type="curve"/>
      <point x="423" y="13"/>
      <point x="362" y="-12"/>
      <point x="286" y="-12" type="curve" smooth="yes"/>
      <point x="156" y="-12"/>
      <point x="95" y="76"/>
    </contour>
  </outline>
</glyph>
<glyph name="quotesingle" format="2">
  <advance width="216"/>
  <unicode hex="0027"/>
  <outline>
    <contour>
      <point x="196" y="469" type="line"/>
      <point x="208" y="690" type="line"/>
      <point x="211" y="725"/>
      <point x="225" y="742"/>
      <point x="263" y="742" type="curve" smooth="yes"/>
      <point x="305" y="742"/>
      <point x="317" y="725"/>
      <point x="304" y="690" type="curve" smooth="yes"/>
      <point x="224" y="469" type="line"/>
    </contour>
  </outline>
</glyph>
<glyph name="parenright" format="2">
  <advance width="350"/>
  <unicode hex="0029"/>
  <outline>
    <contour>
      <point x="-11" y="-128" type="curve"/>
      <point x="-6" y="-105" type="line"/>
      <point x="87" y="-90"/>
      <point x="194" y="10"/>
      <point x="251" y="258" type="curve" smooth="yes"/>
      <point x="315" y="536"/>
      <point x="228" y="654"/>
      <point x="173" y="667" type="curve"/>
      <point x="179" y="692" type="line"/>
      <point x="261" y="686"/>
      <point x="314" y="617"/>
      <point x="333" y="512" type="curve" smooth="yes"/>
      <point x="346" y="442"/>
      <point x="343" y="356"/>
      <point x="322" y="263" type="curve" smooth="yes"/>
      <point x="301" y="166"/>
      <point x="269" y="82"/>
      <point x="228" y="16" type="curve" smooth="yes"/>
      <point x="169" y="-77"/>
      <point x="89" y="-132"/>
    </contour>
  </outline>
</glyph>
<glyph name="asterisk" format="2">
  <advance width="412"/>
  <unicode hex="002A"/>
  <outline>
    <contour>
      <point x="146" y="441" type="curve"/>
      <point x="136" y="463"/>
      <point x="140" y="479"/>
      <point x="163" y="487" type="curve" smooth="yes"/>
      <point x="283" y="528" type="line" smooth="yes"/>
      <point x="295" y="532"/>
      <point x="295" y="541"/>
      <point x="282" y="546" type="curve" smooth="yes"/>
      <point x="196" y="577" type="line" smooth="yes"/>
      <point x="171" y="586"/>
      <point x="171" y="607"/>
      <point x="185" y="627" type="curve" smooth="yes"/>
      <point x="203" y="652"/>
      <point x="219" y="651"/>
      <point x="231" y="639" type="curve" smooth="yes"/>
      <point x="299" y="569" type="line" smooth="yes"/>
      <point x="307" y="561"/>
      <point x="314" y="565"/>
      <point x="314" y="578" type="curve"/>
      <point x="312" y="676" type="line"/>
      <point x="312" y="696"/>
      <point x="322" y="707"/>
      <point x="353" y="707" type="curve" smooth="yes"/>
      <point x="379" y="707"/>
      <point x="391" y="695"/>
      <point x="381" y="675" type="curve"/>
      <point x="337" y="578" type="line" smooth="yes"/>
      <point x="331" y="564"/>
      <point x="338" y="560"/>
      <point x="350" y="569" type="curve" smooth="yes"/>
      <point x="441" y="640" type="line"/>
      <point x="459" y="653"/>
      <point x="474" y="651"/>
      <point x="486" y="629" type="curve" smooth="yes"/>
      <point x="500" y="604"/>
      <point x="493" y="589"/>
      <point x="474" y="583" type="curve" smooth="yes"/>
      <point x="355" y="544" type="line"/>
      <point x="341" y="539"/>
      <point x="336" y="530"/>
      <point x="348" y="526" type="curve"/>
      <point x="444" y="487" type="line" smooth="yes"/>
      <point x="461" y="480"/>
      <point x="464" y="461"/>
      <point x="446" y="439" type="curve" smooth="yes"/>
      <point x="430" y="419"/>
      <point x="415" y="415"/>
      <point x="400" y="432" type="curve" smooth="yes"/>
      <point x="337" y="503" type="line" smooth="yes"/>
      <point x="327" y="514"/>
      <point x="320" y="505"/>
      <point x="320" y="494" type="curve"/>
      <point x="322" y="389" type="line" smooth="yes"/>
      <point x="323" y="364"/>
      <point x="307" y="356"/>
      <point x="282" y="356" type="curve" smooth="yes"/>
      <point x="251" y="356"/>
      <point x="243" y="373"/>
      <point x="253" y="396" type="curve" smooth="yes"/>
      <point x="297" y="494" type="line"/>
      <point x="303" y="506"/>
      <point x="298" y="515"/>
      <point x="283" y="503" type="curve"/>
      <point x="199" y="432" type="line" smooth="yes"/>
      <point x="175" y="412"/>
      <point x="158" y="417"/>
    </contour>
  </outline>
</glyph>
<glyph name="period" format="2">
  <advance width="265"/>
  <unicode hex="002E"/>
  <outline>
    <contour>
      <point x="82" y="45" type="curve" smooth="yes"/>
      <point x="82" y="86"/>
      <point x="109" y="113"/>
      <point x="147" y="113" type="curve" smooth="yes"/>
      <point x="183" y="113"/>
      <point x="204" y="87"/>
      <point x="204" y="57" type="curve" smooth="yes"/>
      <point x="204" y="15"/>
      <point x="178" y="-12"/>
      <point x="139" y="-12" type="curve" smooth="yes"/>
      <point x="103" y="-12"/>
      <point x="82" y="13"/>
    </contour>
  </outline>
</glyph>
<glyph name="slash" format="2">
  <advance width="270"/>
  <unicode hex="002F"/>
  <outline>
    <contour>
      <point x="35" y="-15" type="line"/>
      <point x="305" y="707" type="line"/>
      <point x="376" y="707" type="line"/>
      <point x="106" y="-15" type="line"/>
    </contour>
  </outline>
</glyph>
<glyph name="zero" format="2">
  <advance width="530"/>
  <unicode hex="0030"/>
  <outline>
    <contour>
      <point x="95" y="204" type="curve" smooth="yes"/>
      <point x="95" y="518"/>
      <point x="269" y="680"/>
      <point x="408" y="680" type="curve" smooth="yes"/>
      <point x="500" y="680"/>
      <point x="576" y="610"/>
      <point x="576" y="453" type="curve" smooth="yes"/>
      <point x="576" y="289"/>
      <point x="494" y="-12"/>
      <point x="271" y="-12" type="curve" smooth="yes"/>
      <point x="138" y="-12"/>
      <point x="95" y="96"/>
    </contour>
    <contour>
      <point x="185" y="162" type="curve" smooth="yes"/>
      <point x="185" y="67"/>
      <point x="218" y="23"/>
      <point x="263" y="23" type="curve" smooth="yes"/>
      <point x="352" y="23"/>
      <point x="486" y="199"/>
      <point x="486" y="506" type="curve" smooth="yes"/>
      <point x="486" y="603"/>
      <point x="455" y="645"/>
      <point x="413" y="645" type="curve" smooth="yes"/>
      <point x="324" y="645"/>
      <point x="185" y="453"/>
    </contour>
  </outline>
</glyph>
<glyph name="two" format="2">
  <advance width="555"/>
  <unicode hex="0032"/>
  <outline>
    <contour>
      <point x="42" y="10" type="line"/>
      <point x="69" y="88"/>
      <point x="123" y="160"/>
      <point x="275" y="264" type="curve" smooth="yes"/>
      <point x="415" y="359"/>
      <point x="482" y="433"/>
      <point x="482" y="530" type="curve" smooth="yes"/>
      <point x="482" y="581"/>
      <point x="470" y="645"/>
      <point x="388" y="645" type="curve" smooth="yes"/>
      <point x="335" y="645"/>
      <point x="287" y="605"/>
      <point x="254" y="512" type="curve"/>
      <point x="250" y="499"/>
      <point x="244" y="487"/>
      <point x="225" y="487" type="curve" smooth="yes"/>
      <point x="203" y="487"/>
      <point x="176" y="506"/>
      <point x="176" y="535" type="curve" smooth="yes"/>
      <point x="176" y="592"/>
      <point x="259" y="680"/>
      <point x="390" y="680" type="curve" smooth="yes"/>
      <point x="499" y="680"/>
      <point x="582" y="627"/>
      <point x="582" y="516" type="curve" smooth="yes"/>
      <point x="582" y="389"/>
      <point x="476" y="333"/>
      <point x="354" y="262" type="curve" smooth="yes"/>
      <point x="240" y="196"/>
      <point x="175" y="137"/>
      <point x="144" y="74" type="curve"/>
      <point x="394" y="74" type="line" smooth="yes"/>
      <point x="438" y="74"/>
      <point x="452" y="82"/>
      <point x="486" y="131" type="curve"/>
      <point x="516" y="125" type="line"/>
      <point x="462" y="0" type="line"/>
      <point x="53" y="0" type="line"/>
    </contour>
  </outline>
</glyph>
<glyph name="five" format="2">
  <advance width="553"/>
  <unicode hex="0035"/>
  <outline>
    <contour>
      <point x="68" y="108" type="curve" smooth="yes"/>
      <point x="68" y="140"/>
      <point x="95" y="164"/>
      <point x="121" y="164" type="curve" smooth="yes"/>
      <point x="135" y="164"/>
      <point x="144" y="153"/>
      <point x="149" y="135" type="curve" smooth="yes"/>
      <point x="171" y="52"/>
      <point x="218" y="23"/>
      <point x="280" y="23" type="curve" smooth="yes"/>
      <point x="362" y="23"/>
      <point x="440" y="106"/>
      <point x="440" y="230" type="curve" smooth="yes"/>
      <point x="440" y="323"/>
      <point x="395" y="381"/>
      <point x="321" y="381" type="curve" smooth="yes"/>
      <point x="268" y="381"/>
      <point x="224" y="357"/>
      <point x="189" y="315" type="curve"/>
      <point x="165" y="327" type="line"/>
      <point x="238" y="660" type="line"/>
      <point x="248" y="668" type="line"/>
      <point x="589" y="668" type="line"/>
      <point x="594" y="657" type="line"/>
      <point x="552" y="594" type="line"/>
      <point x="304" y="594" type="line" smooth="yes"/>
      <point x="287" y="594"/>
      <point x="278" y="592"/>
      <point x="272" y="570" type="curve" smooth="yes"/>
      <point x="218" y="383" type="line"/>
      <point x="220" y="381" type="line"/>
      <point x="255" y="409"/>
      <point x="309" y="427"/>
      <point x="354" y="427" type="curve" smooth="yes"/>
      <point x="471" y="427"/>
      <point x="544" y="358"/>
      <point x="544" y="242" type="curve" smooth="yes"/>
      <point x="544" y="98"/>
      <point x="426" y="-12"/>
      <point x="273" y="-12" type="curve" smooth="yes"/>
      <point x="135" y="-12"/>
      <point x="68" y="56"/>
    </contour>
  </outline>
</glyph>
<glyph name="six" format="2">
  <advance width="555"/>
  <unicode hex="0036"/>
  <outline>
    <contour>
      <point x="197" y="168" type="curve" smooth="yes"/>
      <point x="197" y="112"/>
      <point x="212" y="23"/>
      <point x="309" y="23" type="curve" smooth="yes"/>
      <point x="386" y="23"/>
      <point x="461" y="103"/>
      <point x="461" y="247" type="curve" smooth="yes"/>
      <point x="461" y="321"/>
      <point x="419" y="371"/>
      <point x="351" y="371" type="curve" smooth="yes"/>
      <point x="304" y="371"/>
      <point x="265" y="352"/>
      <point x="238" y="318" type="curve"/>
      <point x="212" y="283"/>
      <point x="197" y="232"/>
    </contour>
    <contour>
      <point x="104" y="207" type="curve" smooth="yes"/>
      <point x="104" y="349"/>
      <point x="156" y="503"/>
      <point x="226" y="585" type="curve" smooth="yes"/>
      <point x="232" y="592"/>
      <point x="238" y="599"/>
      <point x="245" y="605" type="curve"/>
      <point x="297" y="656"/>
      <point x="360" y="680"/>
      <point x="426" y="680" type="curve" smooth="yes"/>
      <point x="559" y="680"/>
      <point x="599" y="610"/>
      <point x="599" y="572" type="curve" smooth="yes"/>
      <point x="599" y="544"/>
      <point x="568" y="526"/>
      <point x="546" y="526" type="curve" smooth="yes"/>
      <point x="527" y="526"/>
      <point x="520" y="537"/>
      <point x="517" y="554" type="curve"/>
      <point x="517" y="554"/>
      <point x="517" y="554"/>
      <point x="517" y="554" type="curve"/>
      <point x="505" y="613"/>
      <point x="473" y="645"/>
      <point x="423" y="645" type="curve" smooth="yes"/>
      <point x="328" y="645"/>
      <point x="252" y="532"/>
      <point x="212" y="338" type="curve"/>
      <point x="214" y="338" type="line"/>
      <point x="250" y="377"/>
      <point x="310" y="420"/>
      <point x="381" y="420" type="curve"/>
      <point x="381" y="420"/>
      <point x="381" y="420"/>
      <point x="381" y="420" type="curve"/>
      <point x="501" y="420"/>
      <point x="558" y="343"/>
      <point x="558" y="239" type="curve" smooth="yes"/>
      <point x="558" y="123"/>
      <point x="477" y="-12"/>
      <point x="310" y="-12" type="curve" smooth="yes"/>
      <point x="154" y="-12"/>
      <point x="104" y="91"/>
    </contour>
  </outline>
</glyph>
<glyph name="seven" format="2">
  <advance width="549"/>
  <unicode hex="0037"/>
  <outline>
    <contour>
      <point x="174" y="530" type="line"/>
      <point x="216" y="668" type="line"/>
      <point x="636" y="668" type="line"/>
      <point x="644" y="657" type="line"/>
      <point x="591" y="531"/>
      <point x="524" y="468"/>
      <point x="432" y="355" type="curve" smooth="yes"/>
      <point x="359" y="267"/>
      <point x="314" y="179"/>
      <point x="289" y="29" type="curve" smooth="yes"/>
      <point x="284" y="-3"/>
      <point x="271" y="-12"/>
      <point x="235" y="-12" type="curve" smooth="yes"/>
      <point x="203" y="-12"/>
      <point x="187" y="2"/>
      <point x="187" y="25" type="curve" smooth="yes"/>
      <point x="187" y="98"/>
      <point x="233" y="192"/>
      <point x="401" y="383" type="curve" smooth="yes"/>
      <point x="486" y="479"/>
      <point x="530" y="547"/>
      <point x="547" y="594" type="curve"/>
      <point x="306" y="594" type="line" smooth="yes"/>
      <point x="254" y="594"/>
      <point x="235" y="580"/>
      <point x="220" y="556" type="curve" smooth="yes"/>
      <point x="204" y="530" type="line"/>
    </contour>
  </outline>
</glyph>
<glyph name="eight" format="2">
  <advance width="552"/>
  <unicode hex="0038"/>
  <outline>
    <contour>
      <point x="278" y="477" type="curve" smooth="yes"/>
      <point x="278" y="427"/>
      <point x="302" y="381"/>
      <point x="370" y="381" type="curve" smooth="yes"/>
      <point x="437" y="381"/>
      <point x="492" y="455"/>
      <point x="492" y="554" type="curve" smooth="yes"/>
      <point x="492" y="561"/>
      <point x="491" y="568"/>
      <point x="490" y="574" type="curve" smooth="yes"/>
      <point x="483" y="613"/>
      <point x="455" y="645"/>
      <point x="402" y="645" type="curve" smooth="yes"/>
      <point x="314" y="645"/>
      <point x="278" y="545"/>
    </contour>
    <contour>
      <point x="188" y="151" type="curve" smooth="yes"/>
      <point x="188" y="81"/>
      <point x="222" y="36"/>
      <point x="280" y="25" type="curve"/>
      <point x="289" y="24"/>
      <point x="298" y="23"/>
      <point x="307" y="23" type="curve" smooth="yes"/>
      <point x="400" y="23"/>
      <point x="451" y="115"/>
      <point x="451" y="221" type="curve" smooth="yes"/>
      <point x="451" y="288"/>
      <point x="418" y="331"/>
      <point x="364" y="341" type="curve"/>
      <point x="356" y="342"/>
      <point x="348" y="343"/>
      <point x="339" y="343" type="curve" smooth="yes"/>
      <point x="249" y="343"/>
      <point x="188" y="254"/>
    </contour>
    <contour>
      <point x="92" y="159" type="curve" smooth="yes"/>
      <point x="92" y="281"/>
      <point x="177" y="359"/>
      <point x="271" y="370" type="curve"/>
      <point x="271" y="374" type="line"/>
      <point x="226" y="393"/>
      <point x="189" y="434"/>
      <point x="189" y="500" type="curve" smooth="yes"/>
      <point x="189" y="548"/>
      <point x="205" y="587"/>
      <point x="232" y="616" type="curve" smooth="yes"/>
      <point x="267" y="654"/>
      <point x="321" y="675"/>
      <point x="377" y="679" type="curve"/>
      <point x="384" y="680"/>
      <point x="391" y="680"/>
      <point x="398" y="680" type="curve" smooth="yes"/>
      <point x="537" y="680"/>
      <point x="581" y="598"/>
      <point x="581" y="530" type="curve" smooth="yes"/>
      <point x="581" y="432"/>
      <point x="512" y="382"/>
      <point x="442" y="368" type="curve"/>
      <point x="442" y="365" type="line"/>
      <point x="485" y="350"/>
      <point x="547" y="299"/>
      <point x="547" y="207" type="curve" smooth="yes"/>
      <point x="547" y="149"/>
      <point x="529" y="97"/>
      <point x="493" y="58" type="curve" smooth="yes"/>
      <point x="453" y="15"/>
      <point x="390" y="-12"/>
      <point x="303" y="-12" type="curve" smooth="yes"/>
      <point x="154" y="-12"/>
      <point x="92" y="72"/>
    </contour>
  </outline>
</glyph>
<glyph name="equal" format="2">
  <advance width="570"/>
  <unicode hex="003D"/>
  <outline>
    <contour>
      <point x="93" y="111" type="line"/>
      <point x="93" y="169" type="line"/>
      <point x="577" y="169" type="line"/>
      <point x="577" y="111" type="line"/>
    </contour>
    <contour>
      <point x="93" y="331" type="line"/>
      <point x="93" y="389" type="line"/>
      <point x="577" y="389" type="line"/>
      <point x="577" y="331" type="line"/>
    </contour>
  </outline>
</glyph>
<glyph name="greater" format="2">
  <advance width="570"/>
  <unicode hex="003E"/>
  <outline>
    <contour>
      <point x="86" y="1" type="line"/>
      <point x="86" y="68" type="line"/>
      <point x="505" y="248" type="line"/>
      <point x="86" y="428" type="line"/>
      <point x="86" y="497" type="line"/>
      <point x="564" y="288" type="line"/>
      <point x="564" y="207" type="line"/>
    </contour>
  </outline>
</glyph>
<glyph name="B" format="2">
  <advance width="632"/>
  <unicode hex="0042"/>
  <outline>
    <contour>
      <point x="38" y="0" type="line"/>
      <point x="44" y="29" type="line"/>
      <point x="100" y="35" type="line" smooth="yes"/>
      <point x="124" y="38"/>
      <point x="135" y="50"/>
      <point x="142" y="83" type="curve" smooth="yes"/>
      <point x="260" y="609" type="line" smooth="yes"/>
      <point x="268" y="643"/>
      <point x="262" y="655"/>
      <point x="239" y="657" type="curve" smooth="yes"/>
      <point x="180" y="663" type="line"/>
      <point x="186" y="692" type="line"/>
      <point x="427" y="692" type="line" smooth="yes"/>
      <point x="534" y="692"/>
      <point x="671" y="678"/>
      <point x="671" y="541" type="curve" smooth="yes"/>
      <point x="671" y="465"/>
      <point x="615" y="391"/>
      <point x="482" y="375" type="curve"/>
      <point x="481" y="372" type="line"/>
      <point x="554" y="358"/>
      <point x="632" y="312"/>
      <point x="632" y="207" type="curve" smooth="yes"/>
      <point x="632" y="124"/>
      <point x="584" y="0"/>
      <point x="342" y="0" type="curve" smooth="yes"/>
    </contour>
    <contour>
      <point x="242" y="99" type="line" smooth="yes"/>
      <point x="233" y="60"/>
      <point x="237" y="35"/>
      <point x="336" y="35" type="curve" smooth="yes"/>
      <point x="470" y="35"/>
      <point x="524" y="124"/>
      <point x="524" y="213" type="curve" smooth="yes"/>
      <point x="524" y="327"/>
      <point x="437" y="355"/>
      <point x="338" y="355" type="curve" smooth="yes"/>
      <point x="299" y="355" type="line"/>
    </contour>
    <contour>
      <point x="306" y="390" type="line"/>
      <point x="371" y="390" type="line" smooth="yes"/>
      <point x="468" y="390"/>
      <point x="569" y="432"/>
      <point x="569" y="545" type="curve" smooth="yes"/>
      <point x="569" y="615"/>
      <point x="522" y="657"/>
      <point x="438" y="657" type="curve" smooth="yes"/>
      <point x="371" y="657"/>
      <point x="366" y="652"/>
      <point x="359" y="622" type="curve" smooth="yes"/>
    </contour>
  </outline>
</glyph>
<glyph name="C" format="2">
  <advance width="661"/>
  <unicode hex="0043"/>
  <outline>
    <contour>
      <point x="114" y="275" type="curve" smooth="yes"/>
      <point x="114" y="526"/>
      <point x="277" y="707"/>
      <point x="537" y="707" type="curve" smooth="yes"/>
      <point x="607" y="707"/>
      <point x="701" y="690"/>
      <point x="758" y="654" type="curve"/>
      <point x="722" y="504" type="line"/>
      <point x="692" y="504" type="line"/>
      <point x="697" y="613"/>
      <point x="654" y="672"/>
      <point x="529" y="672" type="curve" smooth="yes"/>
      <point x="310" y="672"/>
      <point x="221" y="433"/>
      <point x="221" y="249" type="curve" smooth="yes"/>
      <point x="221" y="95"/>
      <point x="304" y="20"/>
      <point x="420" y="20" type="curve" smooth="yes"/>
      <point x="543" y="20"/>
      <point x="594" y="86"/>
      <point x="649" y="186" type="curve"/>
      <point x="679" y="186" type="line"/>
      <point x="630" y="27" type="line"/>
      <point x="566" y="-5"/>
      <point x="498" y="-15"/>
      <point x="427" y="-15" type="curve" smooth="yes"/>
      <point x="179" y="-15"/>
      <point x="114" y="143"/>
    </contour>
  </outline>
</glyph>
<glyph name="G" format="2">
  <advance width="709"/>
  <unicode hex="0047"/>
  <outline>
    <contour>
      <point x="114" y="285" type="curve" smooth="yes"/>
      <point x="114" y="537"/>
      <point x="292" y="707"/>
      <point x="543" y="707" type="curve" smooth="yes"/>
      <point x="627" y="707"/>
      <point x="706" y="690"/>
      <point x="767" y="657" type="curve"/>
      <point x="731" y="501" type="line"/>
      <point x="701" y="501" type="line"/>
      <point x="708" y="587"/>
      <point x="689" y="672"/>
      <point x="542" y="672" type="curve" smooth="yes"/>
      <point x="303" y="672"/>
      <point x="224" y="438"/>
      <point x="224" y="278" type="curve" smooth="yes"/>
      <point x="224" y="101"/>
      <point x="313" y="20"/>
      <point x="434" y="20" type="curve" smooth="yes"/>
      <point x="538" y="20"/>
      <point x="551" y="45"/>
      <point x="558" y="74" type="curve" smooth="yes"/>
      <point x="595" y="225" type="line" smooth="yes"/>
      <point x="604" y="260"/>
      <point x="597" y="271"/>
      <point x="578" y="273" type="curve" smooth="yes"/>
      <point x="503" y="280" type="line"/>
      <point x="509" y="309" type="line"/>
      <point x="772" y="309" type="line"/>
      <point x="766" y="280" type="line"/>
      <point x="722" y="276" type="line"/>
      <point x="705" y="274"/>
      <point x="699" y="259"/>
      <point x="691" y="225" type="curve" smooth="yes"/>
      <point x="644" y="23" type="line"/>
      <point x="587" y="2"/>
      <point x="505" y="-15"/>
      <point x="432" y="-15" type="curve" smooth="yes"/>
      <point x="236" y="-15"/>
      <point x="114" y="82"/>
    </contour>
  </outline>
</glyph>
<glyph name="I" format="2">
  <advance width="341"/>
  <unicode hex="0049"/>
  <anchor x="371" y="740" name="top"/>
  <anchor x="152" y="702" name="tonos"/>
  <outline>
    <contour>
      <point x="35" y="0" type="line"/>
      <point x="41" y="29" type="line"/>
      <point x="96" y="35" type="line" smooth="yes"/>
      <point x="120" y="38"/>
      <point x="131" y="51"/>
      <point x="138" y="83" type="curve" smooth="yes"/>
      <point x="258" y="609" type="line" smooth="yes"/>
      <point x="259.812" y="616.768"/>
      <point x="260.753" y="623.731"/>
      <point x="260.753" y="629.82" type="curve" smooth="yes"/>
      <point x="260.753" y="647.248"/>
      <point x="253.045" y="657.518"/>
      <point x="236" y="659" type="curve" smooth="yes"/>
      <point x="177" y="663" type="line"/>
      <point x="184" y="692" type="line"/>
      <point x="458" y="692" type="line"/>
      <point x="451" y="663" type="line"/>
      <point x="396" y="658" type="line" smooth="yes"/>
      <point x="371" y="656"/>
      <point x="361" y="640"/>
      <point x="354" y="609" type="curve" smooth="yes"/>
      <point x="234" y="83" type="line" smooth="yes"/>
      <point x="232.108" y="74.619"/>
      <point x="231.092" y="67.262"/>
      <point x="231.092" y="60.947" type="curve" smooth="yes"/>
      <point x="231.092" y="43.904"/>
      <point x="238.488" y="34.459"/>
      <point x="256" y="33" type="curve" smooth="yes"/>
      <point x="315" y="29" type="line"/>
      <point x="309" y="0" type="line"/>
    </contour>
  </outline>
</glyph>
<glyph name="L" format="2">
  <advance width="565"/>
  <unicode hex="004C"/>
  <outline>
    <contour>
      <point x="40" y="0" type="line"/>
      <point x="46" y="29" type="line"/>
      <point x="101" y="35" type="line" smooth="yes"/>
      <point x="125" y="37"/>
      <point x="135" y="48"/>
      <point x="143" y="83" type="curve" smooth="yes"/>
      <point x="263" y="609" type="line" smooth="yes"/>
      <point x="271" y="642"/>
      <point x="264" y="656"/>
      <point x="241" y="658" type="curve" smooth="yes"/>
      <point x="182" y="663" type="line"/>
      <point x="189" y="692" type="line"/>
      <point x="468" y="692" type="line"/>
      <point x="461" y="663" type="line"/>
      <point x="401" y="659" type="line" smooth="yes"/>
      <point x="376" y="657"/>
      <point x="366" y="642"/>
      <point x="358" y="609" type="curve" smooth="yes"/>
      <point x="247" y="122" type="line" smooth="yes"/>
      <point x="236" y="75"/>
      <point x="237" y="60"/>
      <point x="252" y="48" type="curve" smooth="yes"/>
      <point x="265" y="38"/>
      <point x="315" y="35"/>
      <point x="364" y="35" type="curve" smooth="yes"/>
      <point x="477" y="35"/>
      <point x="522" y="53"/>
      <point x="573" y="176" type="curve"/>
      <point x="603" y="176" type="line"/>
      <point x="552" y="0" type="line"/>
    </contour>
  </outline>
</glyph>
<glyph name="Q" format="2">
  <advance width="753"/>
  <unicode hex="0051"/>
  <outline>
    <component base="O"/>
    <contour>
      <point x="345" y="2" type="curve"/>
      <point x="461" y="2" type="line"/>
      <point x="507" y="-77"/>
      <point x="597" y="-170"/>
      <point x="696" y="-170" type="curve"/>
      <point x="699" y="-187" type="line"/>
      <point x="682" y="-197"/>
      <point x="650" y="-203"/>
      <point x="624" y="-203" type="curve" smooth="yes"/>
      <point x="503" y="-203"/>
      <point x="394" y="-101"/>
    </contour>
  </outline>
</glyph>
<glyph name="S" format="2">
  <advance width="533"/>
  <unicode hex="0053"/>
  <outline>
    <contour>
      <point x="69" y="67" type="curve"/>
      <point x="95" y="220" type="line"/>
      <point x="124" y="220" type="line"/>
      <point x="118" y="87"/>
      <point x="198" y="20"/>
      <point x="290" y="20" type="curve" smooth="yes"/>
      <point x="390" y="20"/>
      <point x="441" y="94"/>
      <point x="441" y="165" type="curve" smooth="yes"/>
      <point x="441" y="245"/>
      <point x="393" y="287"/>
      <point x="313" y="327" type="curve" smooth="yes"/>
      <point x="232" y="366"/>
      <point x="168" y="415"/>
      <point x="168" y="509" type="curve" smooth="yes"/>
      <point x="168" y="593"/>
      <point x="223" y="707"/>
      <point x="398" y="707" type="curve" smooth="yes"/>
      <point x="460" y="707"/>
      <point x="534" y="690"/>
      <point x="577" y="656" type="curve"/>
      <point x="541" y="516" type="line"/>
      <point x="512" y="516" type="line"/>
      <point x="524" y="619"/>
      <point x="487" y="672"/>
      <point x="391" y="672" type="curve" smooth="yes"/>
      <point x="304" y="672"/>
      <point x="252" y="616"/>
      <point x="252" y="545" type="curve" smooth="yes"/>
      <point x="252" y="469"/>
      <point x="323" y="435"/>
      <point x="381" y="405" type="curve" smooth="yes"/>
      <point x="482" y="353"/>
      <point x="531" y="296"/>
      <point x="531" y="206" type="curve" smooth="yes"/>
      <point x="531" y="99"/>
      <point x="472" y="-13"/>
      <point x="278" y="-15" type="curve"/>
      <point x="205" y="-15"/>
      <point x="108" y="15"/>
    </contour>
  </outline>
</glyph>
<glyph name="T" format="2">
  <advance width="606"/>
  <unicode hex="0054"/>
  <outline>
    <contour>
      <point x="137" y="525" type="line"/>
      <point x="175" y="692" type="line"/>
      <point x="743" y="692" type="line"/>
      <point x="705" y="525" type="line"/>
      <point x="678" y="525" type="line"/>
      <point x="676" y="555" type="line" smooth="yes"/>
      <point x="671" y="634"/>
      <point x="642" y="657"/>
      <point x="561" y="657" type="curve" smooth="yes"/>
      <point x="498" y="657" type="line"/>
      <point x="368" y="81" type="line" smooth="yes"/>
      <point x="361" y="50"/>
      <point x="366" y="35"/>
      <point x="394" y="33" type="curve" smooth="yes"/>
      <point x="467" y="29" type="line"/>
      <point x="460" y="0" type="line"/>
      <point x="152" y="0" type="line"/>
      <point x="159" y="29" type="line"/>
      <point x="224" y="33" type="line" smooth="yes"/>
      <point x="254" y="35"/>
      <point x="265" y="50"/>
      <point x="272" y="81" type="curve" smooth="yes"/>
      <point x="402" y="657" type="line"/>
      <point x="333" y="657" type="line" smooth="yes"/>
      <point x="249" y="657"/>
      <point x="216" y="635"/>
      <point x="180" y="554" type="curve" smooth="yes"/>
      <point x="167" y="525" type="line"/>
    </contour>
  </outline>
</glyph>
<glyph name="V" format="2">
  <advance width="637"/>
  <unicode hex="0056"/>
  <outline>
    <contour>
      <point x="131" y="663" type="line"/>
      <point x="136" y="692" type="line"/>
      <point x="386" y="692" type="line"/>
      <point x="381" y="663" type="line"/>
      <point x="317" y="657" type="line" smooth="yes"/>
      <point x="299" y="655"/>
      <point x="298" y="643"/>
      <point x="300" y="624" type="curve" smooth="yes"/>
      <point x="308" y="541"/>
      <point x="318" y="454"/>
      <point x="330" y="366" type="curve" smooth="yes"/>
      <point x="365" y="100" type="line"/>
      <point x="367" y="100" type="line"/>
      <point x="384.5" y="130.473"/>
      <point x="493.534" y="320.328"/>
      <point x="510" y="349" type="curve" smooth="yes"/>
      <point x="594" y="495"/>
      <point x="642" y="582"/>
      <point x="663" y="627" type="curve" smooth="yes"/>
      <point x="674" y="650"/>
      <point x="669" y="656"/>
      <point x="651" y="658" type="curve" smooth="yes"/>
      <point x="596" y="663" type="line"/>
      <point x="601" y="692" type="line"/>
      <point x="821" y="692" type="line"/>
      <point x="816" y="663" type="line"/>
      <point x="763" y="659"/>
      <point x="747" y="653"/>
      <point x="725" y="619" type="curve" smooth="yes"/>
      <point x="685" y="557"/>
      <point x="624" y="456"/>
      <point x="559" y="345" type="curve" smooth="yes"/>
      <point x="356" y="0" type="line"/>
      <point x="287" y="0" type="line"/>
      <point x="245" y="320" type="line" smooth="yes"/>
      <point x="232" y="420"/>
      <point x="220" y="519"/>
      <point x="208" y="611" type="curve" smooth="yes"/>
      <point x="203" y="647"/>
      <point x="194" y="655"/>
      <point x="171" y="658" type="curve" smooth="yes"/>
    </contour>
  </outline>
</glyph>
<glyph name="Y" format="2">
  <advance width="591"/>
  <unicode hex="0059"/>
  <outline>
    <contour>
      <point x="131" y="663" type="curve"/>
      <point x="137" y="692" type="line"/>
      <point x="386" y="692" type="line"/>
      <point x="380" y="663" type="line"/>
      <point x="325" y="658" type="line" smooth="yes"/>
      <point x="310.534" y="656.477"/>
      <point x="304.044" y="650.71"/>
      <point x="304.084" y="640.242" type="curve" smooth="yes"/>
      <point x="304.096" y="636.961"/>
      <point x="304.75" y="633.218"/>
      <point x="306" y="629" type="curve" smooth="yes"/>
      <point x="397" y="322" type="line"/>
      <point x="400" y="322" type="line"/>
      <point x="432.61" y="366.168"/>
      <point x="467.697" y="414.884"/>
      <point x="500.365" y="461.601" type="curve" smooth="yes"/>
      <point x="520.526" y="490.629" type="line" smooth="yes"/>
      <point x="558.667" y="545.941"/>
      <point x="591.739" y="596.293"/>
      <point x="606.671" y="622.424" type="curve" smooth="yes"/>
      <point x="614.287" y="635.752"/>
      <point x="616.022" y="640.745"/>
      <point x="616.025" y="644.901" type="curve" smooth="yes"/>
      <point x="616.031" y="652.811"/>
      <point x="609.767" y="657.689"/>
      <point x="596" y="659" type="curve" smooth="yes"/>
      <point x="544" y="663" type="line"/>
      <point x="550" y="692" type="line"/>
      <point x="779" y="692" type="line"/>
      <point x="773" y="663" type="line"/>
      <point x="716" y="659"/>
      <point x="704" y="652"/>
      <point x="671.218" y="615.305" type="curve" smooth="yes"/>
      <point x="638.969" y="579.206"/>
      <point x="596.643" y="525.601"/>
      <point x="551.898" y="465.793" type="curve" smooth="yes"/>
      <point x="531.67" y="438.555" type="line" smooth="yes"/>
      <point x="499.545" y="394.985"/>
      <point x="467.023" y="349.388"/>
      <point x="438" y="307" type="curve" smooth="yes"/>
      <point x="428" y="293"/>
      <point x="416.119" y="274.213"/>
      <point x="410" y="247" type="curve" smooth="yes"/>
      <point x="372" y="78" type="line" smooth="yes"/>
      <point x="370.5" y="71"/>
      <point x="369.688" y="64.938"/>
      <point x="369.688" y="59.75" type="curve" smooth="yes"/>
      <point x="369.688" y="44.188"/>
      <point x="377" y="36.5"/>
      <point x="395" y="35" type="curve" smooth="yes"/>
      <point x="471" y="29" type="line"/>
      <point x="465" y="0" type="line"/>
      <point x="155" y="0" type="line"/>
      <point x="161" y="29" type="line"/>
      <point x="233" y="36" type="line" smooth="yes"/>
      <point x="259" y="39"/>
      <point x="268" y="50"/>
      <point x="274" y="78" type="curve" smooth="yes"/>
      <point x="312" y="246" type="line" smooth="yes"/>
      <point x="314.5" y="256.5"/>
      <point x="315.75" y="265.5"/>
      <point x="315.75" y="274" type="curve" smooth="yes"/>
      <point x="315.75" y="282.5"/>
      <point x="314.5" y="290.5"/>
      <point x="312" y="299" type="curve" smooth="yes"/>
      <point x="279" y="409"/>
      <point x="248" y="518"/>
      <point x="214" y="617" type="curve" smooth="yes"/>
      <point x="201" y="656"/>
      <point x="194" y="658"/>
    </contour>
  </outline>
</glyph>
<glyph name="bracketleft" format="2">
  <advance width="330"/>
  <unicode hex="005B"/>
  <outline>
    <contour>
      <point x="104" y="-128" type="line"/>
      <point x="290" y="692" type="line"/>
      <point x="449" y="692" type="line"/>
      <point x="444" y="665" type="line"/>
      <point x="414" y="663"/>
      <point x="393" y="662"/>
      <point x="378" y="658" type="curve"/>
      <point x="347" y="652"/>
      <point x="342" y="639"/>
      <point x="335" y="610" type="curve" smooth="yes"/>
      <point x="196" y="1" type="line"/>
      <point x="185" y="-46" type="line" smooth="yes"/>
      <point x="179" y="-75"/>
      <point x="179" y="-88"/>
      <point x="205" y="-94" type="curve"/>
      <point x="219" y="-98"/>
      <point x="239" y="-99"/>
      <point x="268" y="-101" type="curve"/>
      <point x="263" y="-128" type="line"/>
    </contour>
  </outline>
</glyph>
<glyph name="bracketright" format="2">
  <advance width="330"/>
  <unicode hex="005D"/>
  <outline>
    <contour>
      <point x="14" y="-128" type="line"/>
      <point x="19" y="-101" type="line"/>
      <point x="50" y="-99"/>
      <point x="71" y="-98"/>
      <point x="86" y="-94" type="curve"/>
      <point x="116" y="-88"/>
      <point x="121" y="-75"/>
      <point x="128" y="-46" type="curve" smooth="yes"/>
      <point x="278" y="610" type="line" smooth="yes"/>
      <point x="285" y="639"/>
      <point x="285" y="652"/>
      <point x="258" y="658" type="curve"/>
      <point x="245" y="662"/>
      <point x="225" y="663"/>
      <point x="195" y="665" type="curve"/>
      <point x="200" y="692" type="line"/>
      <point x="359" y="692" type="line"/>
      <point x="173" y="-128" type="line"/>
    </contour>
  </outline>
</glyph>
<glyph name="asciicircum" format="2">
  <advance width="570"/>
  <unicode hex="005E"/>
  <outline>
    <contour>
      <point x="118" y="228" type="line"/>
      <point x="314" y="668" type="line"/>
      <point x="391" y="668" type="line"/>
      <point x="582" y="228" type="line"/>
      <point x="506" y="228" type="line"/>
      <point x="352" y="595" type="line"/>
      <point x="194" y="228" type="line"/>
    </contour>
  </outline>
</glyph>
<glyph name="b" format="2">
  <advance width="559"/>
  <unicode hex="0062"/>
  <outline>
    <contour>
      <point x="82" y="0" type="line"/>
      <point x="229" y="639" type="line" smooth="yes"/>
      <point x="238" y="678"/>
      <point x="234" y="685"/>
      <point x="209" y="688" type="curve" smooth="yes"/>
      <point x="152" y="695" type="line"/>
      <point x="158" y="718" type="line"/>
      <point x="337" y="742" type="line"/>
      <point x="342" y="737" type="line"/>
      <point x="231" y="296" type="line"/>
      <point x="233" y="296" type="line"/>
      <point x="310" y="433"/>
      <point x="409" y="502"/>
      <point x="485" y="502" type="curve" smooth="yes"/>
      <point x="559" y="502"/>
      <point x="592" y="450"/>
      <point x="592" y="376" type="curve" smooth="yes"/>
      <point x="592" y="208"/>
      <point x="462" y="-12"/>
      <point x="275" y="-12" type="curve" smooth="yes"/>
      <point x="218" y="-12"/>
      <point x="167" y="16"/>
      <point x="149" y="58" type="curve"/>
      <point x="118" y="0" type="line"/>
    </contour>
    <contour>
      <point x="205" y="109" type="curve" smooth="yes"/>
      <point x="205" y="59"/>
      <point x="236" y="23"/>
      <point x="287" y="23" type="curve" smooth="yes"/>
      <point x="434" y="23"/>
      <point x="494" y="295"/>
      <point x="494" y="367" type="curve" smooth="yes"/>
      <point x="494" y="424"/>
      <point x="477" y="450"/>
      <point x="440" y="450" type="curve" smooth="yes"/>
      <point x="326" y="450"/>
      <point x="205" y="214"/>
    </contour>
  </outline>
</glyph>
<glyph name="e" format="2">
  <advance width="453"/>
  <unicode hex="0065"/>
  <outline>
    <contour>
      <point x="80" y="152" type="curve" smooth="yes"/>
      <point x="80" y="318"/>
      <point x="203" y="502"/>
      <point x="382" y="502" type="curve" smooth="yes"/>
      <point x="464" y="502"/>
      <point x="506" y="455"/>
      <point x="506" y="402" type="curve" smooth="yes"/>
      <point x="506" y="261"/>
      <point x="282" y="213"/>
      <point x="180" y="192" type="curve"/>
      <point x="179" y="185"/>
      <point x="179" y="181"/>
      <point x="179" y="176" type="curve" smooth="yes"/>
      <point x="179" y="97"/>
      <point x="200" y="37"/>
      <point x="270" y="37" type="curve" smooth="yes"/>
      <point x="345" y="37"/>
      <point x="399" y="104"/>
      <point x="435" y="151" type="curve"/>
      <point x="458" y="131" type="line"/>
      <point x="390" y="20"/>
      <point x="302" y="-12"/>
      <point x="229" y="-12" type="curve" smooth="yes"/>
      <point x="171" y="-12"/>
      <point x="80" y="12"/>
    </contour>
    <contour>
      <point x="182" y="226" type="curve"/>
      <point x="351" y="262"/>
      <point x="412" y="338"/>
      <point x="412" y="408" type="curve" smooth="yes"/>
      <point x="412" y="443"/>
      <point x="389" y="467"/>
      <point x="354" y="467" type="curve" smooth="yes"/>
      <point x="274" y="467"/>
      <point x="199" y="347"/>
    </contour>
  </outline>
</glyph>
<glyph name="g" format="2">
  <advance width="499"/>
  <unicode hex="0067"/>
  <outline>
    <contour>
      <point x="30" y="-96" type="curve" smooth="yes"/>
      <point x="30" y="-13"/>
      <point x="116" y="29"/>
      <point x="184" y="41" type="curve"/>
      <point x="184" y="43" type="line"/>
      <point x="143" y="62"/>
      <point x="113" y="85"/>
      <point x="113" y="118" type="curve" smooth="yes"/>
      <point x="113" y="158"/>
      <point x="167" y="180"/>
      <point x="204" y="193" type="curve"/>
      <point x="204" y="195" type="line"/>
      <point x="174" y="206"/>
      <point x="120" y="244"/>
      <point x="120" y="318" type="curve" smooth="yes"/>
      <point x="120" y="389"/>
      <point x="169" y="502"/>
      <point x="333" y="502" type="curve" smooth="yes"/>
      <point x="382" y="502"/>
      <point x="431" y="489"/>
      <point x="457" y="472" type="curve"/>
      <point x="602" y="512" type="line"/>
      <point x="608" y="503" type="line"/>
      <point x="575" y="440" type="line"/>
      <point x="491" y="428" type="line"/>
      <point x="504" y="411"/>
      <point x="512" y="386"/>
      <point x="512" y="359" type="curve" smooth="yes"/>
      <point x="512" y="256"/>
      <point x="435" y="180"/>
      <point x="296" y="180" type="curve" smooth="yes"/>
      <point x="281" y="180"/>
      <point x="262" y="180"/>
      <point x="242" y="183" type="curve"/>
      <point x="218" y="177"/>
      <point x="198" y="163"/>
      <point x="198" y="144" type="curve" smooth="yes"/>
      <point x="198" y="116"/>
      <point x="235" y="102"/>
      <point x="319" y="82" type="curve" smooth="yes"/>
      <point x="437" y="54"/>
      <point x="494" y="0"/>
      <point x="494" y="-75" type="curve" smooth="yes"/>
      <point x="494" y="-185"/>
      <point x="385" y="-242"/>
      <point x="250" y="-242" type="curve" smooth="yes"/>
      <point x="123" y="-242"/>
      <point x="30" y="-185"/>
    </contour>
    <contour>
      <point x="122" y="-87" type="curve" smooth="yes"/>
      <point x="122" y="-159"/>
      <point x="185" y="-207"/>
      <point x="272" y="-207" type="curve" smooth="yes"/>
      <point x="347" y="-207"/>
      <point x="409" y="-170"/>
      <point x="409" y="-94" type="curve" smooth="yes"/>
      <point x="409" y="-10"/>
      <point x="291" y="16"/>
      <point x="228" y="25" type="curve"/>
      <point x="187" y="19"/>
      <point x="122" y="-15"/>
    </contour>
    <contour>
      <point x="214" y="301" type="curve" smooth="yes"/>
      <point x="214" y="251"/>
      <point x="244" y="215"/>
      <point x="297" y="215" type="curve" smooth="yes"/>
      <point x="372" y="215"/>
      <point x="420" y="290"/>
      <point x="420" y="383" type="curve" smooth="yes"/>
      <point x="420" y="452"/>
      <point x="370" y="467"/>
      <point x="340" y="467" type="curve" smooth="yes"/>
      <point x="245" y="467"/>
      <point x="214" y="364"/>
    </contour>
  </outline>
</glyph>
<glyph name="h" format="2">
  <advance width="607"/>
  <unicode hex="0068"/>
  <outline>
    <contour>
      <point x="92" y="-12" type="line"/>
      <point x="238" y="639" type="line" smooth="yes"/>
      <point x="240.84" y="651.305"/>
      <point x="242.386" y="660.425"/>
      <point x="242.386" y="667.238" type="curve" smooth="yes"/>
      <point x="242.386" y="682.019"/>
      <point x="235.112" y="685.947"/>
      <point x="218" y="688" type="curve" smooth="yes"/>
      <point x="161" y="695" type="line"/>
      <point x="167" y="718" type="line"/>
      <point x="347" y="742" type="line"/>
      <point x="352" y="737" type="line"/>
      <point x="240" y="279" type="line"/>
      <point x="243" y="279" type="line"/>
      <point x="307" y="399"/>
      <point x="413" y="502"/>
      <point x="510.245" y="502" type="curve" smooth="yes"/>
      <point x="565.569" y="502"/>
      <point x="588.789" y="468.661"/>
      <point x="588.789" y="421.011" type="curve" smooth="yes"/>
      <point x="588.789" y="401.617"/>
      <point x="584.943" y="379.852"/>
      <point x="578" y="357" type="curve" smooth="yes"/>
      <point x="499" y="95" type="line" smooth="yes"/>
      <point x="494.858" y="81.745"/>
      <point x="492.432" y="70.034"/>
      <point x="492.432" y="60.863" type="curve" smooth="yes"/>
      <point x="492.432" y="47.892"/>
      <point x="497.285" y="40"/>
      <point x="507.215" y="40" type="curve" smooth="yes"/>
      <point x="537" y="40"/>
      <point x="581" y="111"/>
      <point x="599" y="146" type="curve"/>
      <point x="623" y="132" type="line"/>
      <point x="589" y="56"/>
      <point x="533" y="-12"/>
      <point x="462.721" y="-12" type="curve" smooth="yes"/>
      <point x="422.75" y="-12"/>
      <point x="404.02" y="9.996"/>
      <point x="404.02" y="47.167" type="curve" smooth="yes"/>
      <point x="404.02" y="61.359"/>
      <point x="406.751" y="77.763"/>
      <point x="412" y="96" type="curve" smooth="yes"/>
      <point x="494" y="380" type="line" smooth="yes"/>
      <point x="497.066" y="390.473"/>
      <point x="498.565" y="400.163"/>
      <point x="498.565" y="408.787" type="curve" smooth="yes"/>
      <point x="498.565" y="433.923"/>
      <point x="485.826" y="450"/>
      <point x="458.629" y="450" type="curve" smooth="yes"/>
      <point x="375" y="450"/>
      <point x="276" y="298"/>
      <point x="246" y="220" type="curve" smooth="yes"/>
      <point x="221" y="157"/>
      <point x="206" y="102"/>
      <point x="179" y="0" type="curve"/>
    </contour>
  </outline>
</glyph>
<glyph name="i" format="2">
  <advance width="317"/>
  <unicode hex="0069"/>
  <outline>
    <contour>
      <point x="120" y="86" type="curve" smooth="yes"/>
      <point x="204" y="399" type="line" smooth="yes"/>
      <point x="206.906" y="410.301"/>
      <point x="208.561" y="418.891"/>
      <point x="208.561" y="425.41" type="curve" smooth="yes"/>
      <point x="208.561" y="439.082"/>
      <point x="201.282" y="443.646"/>
      <point x="183" y="445" type="curve" smooth="yes"/>
      <point x="126" y="450" type="line"/>
      <point x="132" y="474" type="line"/>
      <point x="314" y="502" type="line"/>
      <point x="319" y="497" type="line"/>
      <point x="210" y="95" type="line" smooth="yes"/>
      <point x="206.224" y="81.576"/>
      <point x="203.857" y="69.735"/>
      <point x="203.857" y="60.512" type="curve" smooth="yes"/>
      <point x="203.857" y="47.75"/>
      <point x="208.39" y="40"/>
      <point x="220" y="40" type="curve" smooth="yes"/>
      <point x="248" y="40"/>
      <point x="292" y="111"/>
      <point x="310" y="146" type="curve"/>
      <point x="334" y="132" type="line"/>
      <point x="300" y="56"/>
      <point x="244" y="-12"/>
      <point x="172" y="-12" type="curve" smooth="yes"/>
      <point x="131.662" y="-12"/>
      <point x="114.202" y="10.878"/>
      <point x="114.202" y="46.215" type="curve" smooth="yes"/>
      <point x="114.202" y="58.182"/>
      <point x="116.205" y="71.579"/>
    </contour>
    <contour>
      <point x="244" y="649" type="curve" smooth="yes"/>
      <point x="244" y="681"/>
      <point x="266" y="715"/>
      <point x="309" y="715" type="curve" smooth="yes"/>
      <point x="337" y="715"/>
      <point x="363" y="699"/>
      <point x="363" y="660" type="curve" smooth="yes"/>
      <point x="363" y="620"/>
      <point x="338" y="593"/>
      <point x="299" y="593" type="curve" smooth="yes"/>
      <point x="269" y="593"/>
      <point x="244" y="612"/>
    </contour>
  </outline>
</glyph>
<glyph name="j" format="2">
  <advance width="309"/>
  <unicode hex="006A"/>
  <outline>
    <contour>
      <point x="-60" y="-184" type="curve" smooth="yes"/>
      <point x="-60" y="-159"/>
      <point x="-37" y="-134"/>
      <point x="-15" y="-134" type="curve" smooth="yes"/>
      <point x="-4" y="-134"/>
      <point x="5" y="-145"/>
      <point x="11" y="-154" type="curve" smooth="yes"/>
      <point x="38" y="-194"/>
      <point x="56" y="-207"/>
      <point x="68" y="-207" type="curve" smooth="yes"/>
      <point x="80" y="-207"/>
      <point x="87" y="-195"/>
      <point x="91" y="-176" type="curve" smooth="yes"/>
      <point x="213" y="395" type="line" smooth="yes"/>
      <point x="221" y="430"/>
      <point x="222" y="443"/>
      <point x="198" y="445" type="curve" smooth="yes"/>
      <point x="136" y="450" type="line"/>
      <point x="142" y="474" type="line"/>
      <point x="321" y="502" type="line"/>
      <point x="326" y="497" type="line"/>
      <point x="213" y="-3" type="line" smooth="yes"/>
      <point x="191" y="-102"/>
      <point x="161" y="-242"/>
      <point x="35" y="-242" type="curve" smooth="yes"/>
      <point x="-17" y="-242"/>
      <point x="-60" y="-217"/>
    </contour>
    <contour>
      <point x="246" y="649" type="curve" smooth="yes"/>
      <point x="246" y="681"/>
      <point x="268" y="715"/>
      <point x="311" y="715" type="curve" smooth="yes"/>
      <point x="339" y="715"/>
      <point x="365" y="699"/>
      <point x="365" y="660" type="curve" smooth="yes"/>
      <point x="365" y="620"/>
      <point x="340" y="593"/>
      <point x="301" y="593" type="curve" smooth="yes"/>
      <point x="271" y="593"/>
      <point x="246" y="612"/>
    </contour>
  </outline>
</glyph>
<glyph name="l" format="2">
  <advance width="306"/>
  <unicode hex="006C"/>
  <outline>
    <contour>
      <point x="133" y="150.17" type="line"/>
      <point x="253" y="639.924" type="line" smooth="yes"/>
      <point x="256" y="651.943"/>
      <point x="258" y="660.957"/>
      <point x="258" y="667.968" type="curve" smooth="yes"/>
      <point x="258" y="682.991"/>
      <point x="250" y="686.997"/>
      <point x="233" y="689" type="curve" smooth="yes"/>
      <point x="176" y="695.767" type="line"/>
      <point x="182" y="718" type="line"/>
      <point x="361" y="742" type="line"/>
      <point x="366" y="737" type="line"/>
      <point x="219" y="150.17" type="line"/>
    </contour>
    <contour>
      <point x="116" y="86.071" type="curve" smooth="yes"/>
      <point x="133" y="150.17" type="line"/>
      <point x="219" y="150.17" type="line"/>
      <point x="206" y="95.085" type="line" smooth="yes"/>
      <point x="202.597" y="81.451"/>
      <point x="200.279" y="69.449"/>
      <point x="200.279" y="60.157" type="curve" smooth="yes"/>
      <point x="200.279" y="47.606"/>
      <point x="204.508" y="40"/>
      <point x="214.24" y="40" type="curve" smooth="yes"/>
      <point x="244" y="40"/>
      <point x="288" y="111.11"/>
      <point x="306" y="146.164" type="curve"/>
      <point x="330" y="132.142" type="line"/>
      <point x="296" y="56.025"/>
      <point x="240" y="-12"/>
      <point x="168" y="-12" type="curve" smooth="yes"/>
      <point x="127.662" y="-12"/>
      <point x="110.202" y="10.878"/>
      <point x="110.202" y="46.224" type="curve" smooth="yes"/>
      <point x="110.202" y="58.21"/>
      <point x="112.205" y="71.628"/>
    </contour>
  </outline>
</glyph>
<glyph name="s" format="2">
  <advance width="389"/>
  <unicode hex="0073"/>
  <outline>
    <contour>
      <point x="54" y="83" type="curve" smooth="yes"/>
      <point x="54" y="110"/>
      <point x="76" y="137"/>
      <point x="101.808" y="137" type="curve" smooth="yes"/>
      <point x="154.838" y="137"/>
      <point x="136.163" y="23"/>
      <point x="226.086" y="23" type="curve" smooth="yes"/>
      <point x="270.651" y="23"/>
      <point x="301" y="51"/>
      <point x="301" y="95.538" type="curve" smooth="yes"/>
      <point x="301" y="137"/>
      <point x="274.698" y="181"/>
      <point x="231.198" y="215" type="curve" smooth="yes"/>
      <point x="179" y="257"/>
      <point x="143" y="303"/>
      <point x="143" y="361.053" type="curve" smooth="yes"/>
      <point x="143" y="436"/>
      <point x="203" y="502"/>
      <point x="307.501" y="502" type="curve" smooth="yes"/>
      <point x="394" y="502"/>
      <point x="432" y="455"/>
      <point x="432" y="421.638" type="curve" smooth="yes"/>
      <point x="432" y="393"/>
      <point x="404" y="378"/>
      <point x="386.297" y="378" type="curve" smooth="yes"/>
      <point x="343.174" y="378"/>
      <point x="350.568" y="467"/>
      <point x="281.406" y="467" type="curve" smooth="yes"/>
      <point x="239.291" y="467"/>
      <point x="214" y="434"/>
      <point x="214" y="397.928" type="curve" smooth="yes"/>
      <point x="214" y="374"/>
      <point x="225.128" y="341"/>
      <point x="290.378" y="288.181" type="curve" smooth="yes"/>
      <point x="352.325" y="237"/>
      <point x="377" y="194"/>
      <point x="377" y="141.559" type="curve" smooth="yes"/>
      <point x="377" y="57"/>
      <point x="312.844" y="-12"/>
      <point x="204" y="-12" type="curve" smooth="yes"/>
      <point x="109" y="-12"/>
      <point x="54" y="40"/>
    </contour>
  </outline>
</glyph>
<glyph name="t" format="2">
  <advance width="341"/>
  <unicode hex="0074"/>
  <outline>
    <contour>
      <point x="125" y="86" type="curve" smooth="yes"/>
      <point x="215" y="452" type="line"/>
      <point x="132" y="452" type="line"/>
      <point x="143" y="490" type="line"/>
      <point x="224" y="490" type="line"/>
      <point x="237" y="539" type="line"/>
      <point x="334" y="616" type="line"/>
      <point x="346" y="609" type="line"/>
      <point x="312" y="490" type="line"/>
      <point x="439" y="490" type="line"/>
      <point x="428" y="452" type="line"/>
      <point x="303" y="452" type="line"/>
      <point x="214" y="88" type="line" smooth="yes"/>
      <point x="211.91" y="79.292"/>
      <point x="210.548" y="70.826"/>
      <point x="210.548" y="63.491" type="curve" smooth="yes"/>
      <point x="210.548" y="49.767"/>
      <point x="215.315" y="40"/>
      <point x="227.662" y="40" type="curve" smooth="yes"/>
      <point x="260" y="40"/>
      <point x="311" y="107"/>
      <point x="334" y="146" type="curve"/>
      <point x="356" y="129" type="line"/>
      <point x="316" y="54"/>
      <point x="252" y="-12"/>
      <point x="178.082" y="-12" type="curve" smooth="yes"/>
      <point x="135.181" y="-12"/>
      <point x="118.968" y="10.232"/>
      <point x="118.968" y="44.715" type="curve" smooth="yes"/>
      <point x="118.968" y="57.059"/>
      <point x="121.046" y="70.974"/>
    </contour>
  </outline>
</glyph>
<glyph name="u" format="2">
  <advance width="618"/>
  <unicode hex="0075"/>
  <outline>
    <contour>
      <point x="124.09" y="67.045" type="curve" smooth="yes"/>
      <point x="124.09" y="86.837"/>
      <point x="127.768" y="109.258"/>
      <point x="134" y="133" type="curve" smooth="yes"/>
      <point x="203.001" y="397" type="line" smooth="yes"/>
      <point x="206.064" y="408.87"/>
      <point x="208.101" y="418.395"/>
      <point x="208.101" y="425.741" type="curve" smooth="yes"/>
      <point x="208.101" y="437.581"/>
      <point x="202.811" y="443.766"/>
      <point x="188.001" y="445" type="curve" smooth="yes"/>
      <point x="126" y="450" type="line"/>
      <point x="132" y="474" type="line"/>
      <point x="314.001" y="502" type="line"/>
      <point x="319.001" y="497" type="line"/>
      <point x="223.001" y="128" type="line" smooth="yes"/>
      <point x="218.143" y="109.219"/>
      <point x="215.698" y="93.374"/>
      <point x="215.698" y="80.533" type="curve" smooth="yes"/>
      <point x="215.698" y="53.717"/>
      <point x="226.362" y="40"/>
      <point x="251.798" y="40" type="curve" smooth="yes"/>
      <point x="331.001" y="40"/>
      <point x="418.001" y="173"/>
      <point x="465.189" y="282.207" type="curve" smooth="yes"/>
      <point x="488.001" y="335"/>
      <point x="504.001" y="388"/>
      <point x="533.001" y="490" type="curve"/>
      <point x="622.001" y="502" type="line"/>
      <point x="515.001" y="94" type="line" smooth="yes"/>
      <point x="511.947" y="82.169"/>
      <point x="510.059" y="71.503"/>
      <point x="510.059" y="62.836" type="curve" smooth="yes"/>
      <point x="510.059" y="48.794"/>
      <point x="515.015" y="40"/>
      <point x="525.63" y="40" type="curve" smooth="yes"/>
      <point x="556.001" y="40"/>
      <point x="600.001" y="112"/>
      <point x="620.001" y="146" type="curve"/>
      <point x="644.001" y="131" type="line"/>
      <point x="609.001" y="57"/>
      <point x="549.001" y="-12"/>
      <point x="478.145" y="-12" type="curve" smooth="yes"/>
      <point x="439.51" y="-12"/>
      <point x="422.535" y="8.515"/>
      <point x="422.535" y="44.235" type="curve" smooth="yes"/>
      <point x="422.535" y="59.013"/>
      <point x="425.336" y="76.423"/>
      <point x="431.001" y="96" type="curve" smooth="yes"/>
      <point x="464.253" y="210.93" type="line"/>
      <point x="462.001" y="210" type="line"/>
      <point x="402.001" y="94"/>
      <point x="297.001" y="-12"/>
      <point x="198.813" y="-12" type="curve" smooth="yes"/>
      <point x="144.742" y="-12"/>
      <point x="124.09" y="20.144"/>
    </contour>
  </outline>
</glyph>
<glyph name="w" format="2">
  <advance width="789"/>
  <unicode hex="0077"/>
  <outline>
    <contour>
      <point x="126" y="450" type="line"/>
      <point x="131" y="474" type="line"/>
      <point x="310" y="502" type="line"/>
      <point x="315" y="497" type="line"/>
      <point x="227" y="121" type="line" smooth="yes"/>
      <point x="223.73" y="107.45"/>
      <point x="222.26" y="95.81"/>
      <point x="222.26" y="85.928" type="curve" smooth="yes"/>
      <point x="222.26" y="53.509"/>
      <point x="238.074" y="40"/>
      <point x="262.802" y="40" type="curve" smooth="yes"/>
      <point x="389.566" y="40"/>
      <point x="486.278" y="395.02"/>
      <point x="506" y="487" type="curve"/>
      <point x="592" y="493" type="line"/>
      <point x="522" y="178" type="line" smooth="yes"/>
      <point x="515.226" y="146.839"/>
      <point x="511.664" y="120.955"/>
      <point x="511.664" y="100.349" type="curve" smooth="yes"/>
      <point x="511.664" y="60.116"/>
      <point x="525.242" y="40"/>
      <point x="552.295" y="40" type="curve" smooth="yes"/>
      <point x="635" y="40"/>
      <point x="756" y="228"/>
      <point x="756" y="366" type="curve" smooth="yes"/>
      <point x="756" y="408"/>
      <point x="754" y="446"/>
      <point x="744" y="481" type="curve"/>
      <point x="765" y="494"/>
      <point x="792" y="502"/>
      <point x="816" y="502" type="curve" smooth="yes"/>
      <point x="824" y="502"/>
      <point x="847" y="465"/>
      <point x="847" y="420.202" type="curve" smooth="yes"/>
      <point x="847" y="292.256"/>
      <point x="659.391" y="-12"/>
      <point x="508.181" y="-12" type="curve" smooth="yes"/>
      <point x="452" y="-12"/>
      <point x="428" y="30"/>
      <point x="428" y="85.997" type="curve" smooth="yes"/>
      <point x="428" y="113"/>
      <point x="433.581" y="156.768"/>
      <point x="444" y="192" type="curve"/>
      <point x="442" y="194" type="line"/>
      <point x="382" y="74"/>
      <point x="293" y="-12"/>
      <point x="210" y="-12" type="curve" smooth="yes"/>
      <point x="165.2" y="-12"/>
      <point x="132.56" y="14.24"/>
      <point x="132.56" y="73.376" type="curve" smooth="yes"/>
      <point x="132.56" y="88.16"/>
      <point x="134.6" y="105"/>
      <point x="139" y="124" type="curve" smooth="yes"/>
      <point x="202" y="397" type="line" smooth="yes"/>
      <point x="204.87" y="409.554"/>
      <point x="206.581" y="419.02"/>
      <point x="206.581" y="426.091" type="curve" smooth="yes"/>
      <point x="206.581" y="438.733"/>
      <point x="201.109" y="443.717"/>
      <point x="187" y="445" type="curve" smooth="yes"/>
    </contour>
  </outline>
</glyph>
<glyph name="y" format="2">
  <advance width="468"/>
  <unicode hex="0079"/>
  <outline>
    <contour>
      <point x="-5" y="-187" type="curve" smooth="yes"/>
      <point x="-5" y="-158"/>
      <point x="20" y="-128"/>
      <point x="46" y="-127" type="curve"/>
      <point x="61" y="-127"/>
      <point x="69" y="-135"/>
      <point x="81" y="-151" type="curve" smooth="yes"/>
      <point x="96" y="-171"/>
      <point x="107" y="-182"/>
      <point x="122" y="-182" type="curve" smooth="yes"/>
      <point x="142" y="-182"/>
      <point x="168" y="-153"/>
      <point x="186" y="-111" type="curve" smooth="yes"/>
      <point x="208" y="-58"/>
      <point x="210" y="-17"/>
      <point x="210" y="13" type="curve" smooth="yes"/>
      <point x="210" y="93"/>
      <point x="188" y="285"/>
      <point x="177" y="363" type="curve" smooth="yes"/>
      <point x="169" y="415"/>
      <point x="164" y="432"/>
      <point x="142" y="431" type="curve" smooth="yes"/>
      <point x="74" y="429" type="line"/>
      <point x="71" y="454" type="line"/>
      <point x="239" y="502" type="line"/>
      <point x="247" y="498" type="line"/>
      <point x="261" y="425"/>
      <point x="280" y="214"/>
      <point x="287" y="61" type="curve"/>
      <point x="290" y="61" type="line"/>
      <point x="356" y="175"/>
      <point x="415" y="283"/>
      <point x="431" y="339" type="curve" smooth="yes"/>
      <point x="443" y="381"/>
      <point x="445" y="442"/>
      <point x="444" y="477" type="curve"/>
      <point x="469" y="494"/>
      <point x="503" y="502"/>
      <point x="522" y="502" type="curve" smooth="yes"/>
      <point x="529" y="502"/>
      <point x="540" y="481"/>
      <point x="540" y="446" type="curve" smooth="yes"/>
      <point x="540" y="406"/>
      <point x="477" y="309"/>
      <point x="420" y="215" type="curve" smooth="yes"/>
      <point x="358" y="113"/>
      <point x="298" y="7"/>
      <point x="278" y="-27" type="curve" smooth="yes"/>
      <point x="190" y="-179"/>
      <point x="153" y="-242"/>
      <point x="68" y="-242" type="curve" smooth="yes"/>
      <point x="24" y="-242"/>
      <point x="-5" y="-214"/>
    </contour>
  </outline>
</glyph>
<glyph name="sterling" format="2">
  <advance width="530"/>
  <unicode hex="00A3"/>
  <outline>
    <contour>
      <point x="44" y="5" type="line"/>
      <point x="67" y="45" type="line"/>
      <point x="139" y="70"/>
      <point x="221" y="105"/>
      <point x="244" y="175" type="curve" smooth="yes"/>
      <point x="247" y="185"/>
      <point x="250" y="195"/>
      <point x="251" y="206" type="curve"/>
      <point x="254" y="229"/>
      <point x="252" y="256"/>
      <point x="244" y="291" type="curve"/>
      <point x="122" y="291" type="line"/>
      <point x="131" y="329" type="line"/>
      <point x="238" y="329" type="line"/>
      <point x="225" y="368"/>
      <point x="215" y="413"/>
      <point x="213" y="458" type="curve"/>
      <point x="213" y="464"/>
      <point x="213" y="471"/>
      <point x="213" y="477" type="curve"/>
      <point x="215" y="577"/>
      <point x="275" y="668"/>
      <point x="398" y="679" type="curve" smooth="yes"/>
      <point x="407" y="680"/>
      <point x="415" y="680"/>
      <point x="424" y="680" type="curve" smooth="yes"/>
      <point x="533" y="680"/>
      <point x="585" y="620"/>
      <point x="584" y="582" type="curve"/>
      <point x="584" y="582"/>
      <point x="584" y="582"/>
      <point x="584" y="582" type="curve"/>
      <point x="584" y="546"/>
      <point x="552" y="534"/>
      <point x="533" y="534" type="curve" smooth="yes"/>
      <point x="516" y="534"/>
      <point x="511" y="547"/>
      <point x="508" y="559" type="curve" smooth="yes"/>
      <point x="506" y="567"/>
      <point x="503" y="574"/>
      <point x="500" y="581" type="curve" smooth="yes"/>
      <point x="481" y="623"/>
      <point x="447" y="645"/>
      <point x="406" y="645" type="curve" smooth="yes"/>
      <point x="399" y="645"/>
      <point x="392" y="644"/>
      <point x="385" y="643" type="curve"/>
      <point x="338" y="634"/>
      <point x="309" y="595"/>
      <point x="300" y="542" type="curve"/>
      <point x="299" y="535"/>
      <point x="298" y="527"/>
      <point x="298" y="519" type="curve"/>
      <point x="297" y="485"/>
      <point x="301" y="454"/>
      <point x="308" y="423" type="curve"/>
      <point x="316" y="392"/>
      <point x="325" y="361"/>
      <point x="333" y="329" type="curve"/>
      <point x="481" y="329" type="line"/>
      <point x="472" y="291" type="line"/>
      <point x="337" y="291" type="line"/>
      <point x="338" y="273"/>
      <point x="337" y="254"/>
      <point x="333" y="232" type="curve" smooth="yes"/>
      <point x="324" y="180"/>
      <point x="286" y="123"/>
      <point x="202" y="76" type="curve"/>
      <point x="203" y="72" type="line"/>
      <point x="420" y="72" type="line" smooth="yes"/>
      <point x="462" y="72"/>
      <point x="480" y="94"/>
      <point x="496" y="113" type="curve"/>
      <point x="499" y="117"/>
      <point x="502" y="121"/>
      <point x="505" y="125" type="curve"/>
      <point x="531" y="115" type="line"/>
      <point x="467" y="0" type="line"/>
      <point x="47" y="0" type="line"/>
    </contour>
  </outline>
</glyph>
<glyph name="currency" format="2">
  <advance width="530"/>
  <unicode hex="00A4"/>
  <outline>
    <contour>
      <point x="181" y="334" type="curve" smooth="yes"/>
      <point x="181" y="236"/>
      <point x="244" y="162"/>
      <point x="331" y="162" type="curve" smooth="yes"/>
      <point x="418" y="162"/>
      <point x="481" y="236"/>
      <point x="481" y="334" type="curve" smooth="yes"/>
      <point x="481" y="432"/>
      <point x="418" y="506"/>
      <point x="331" y="506" type="curve" smooth="yes"/>
      <point x="244" y="506"/>
      <point x="181" y="432"/>
    </contour>
    <contour>
      <point x="108" y="101" type="curve" smooth="yes"/>
      <point x="83" y="121"/>
      <point x="85" y="142"/>
      <point x="116" y="166" type="curve" smooth="yes"/>
      <point x="155" y="196" type="line"/>
      <point x="119" y="242"/>
      <point x="109" y="285"/>
      <point x="109" y="334" type="curve" smooth="yes"/>
      <point x="109" y="383"/>
      <point x="119" y="426"/>
      <point x="155" y="472" type="curve"/>
      <point x="116" y="502" type="line" smooth="yes"/>
      <point x="85" y="526"/>
      <point x="83" y="547"/>
      <point x="108" y="567" type="curve" smooth="yes"/>
      <point x="132" y="587"/>
      <point x="151" y="580"/>
      <point x="170" y="552" type="curve" smooth="yes"/>
      <point x="197" y="513" type="line"/>
      <point x="234" y="548"/>
      <point x="286" y="559"/>
      <point x="331" y="559" type="curve" smooth="yes"/>
      <point x="376" y="559"/>
      <point x="428" y="548"/>
      <point x="465" y="513" type="curve"/>
      <point x="492" y="552" type="line" smooth="yes"/>
      <point x="511" y="580"/>
      <point x="530" y="587"/>
      <point x="554" y="567" type="curve" smooth="yes"/>
      <point x="579" y="547"/>
      <point x="577" y="526"/>
      <point x="546" y="502" type="curve" smooth="yes"/>
      <point x="507" y="472" type="line"/>
      <point x="543" y="426"/>
      <point x="553" y="383"/>
      <point x="553" y="334" type="curve" smooth="yes"/>
      <point x="553" y="285"/>
      <point x="543" y="242"/>
      <point x="507" y="196" type="curve"/>
      <point x="546" y="166" type="line" smooth="yes"/>
      <point x="577" y="142"/>
      <point x="579" y="121"/>
      <point x="554" y="101" type="curve" smooth="yes"/>
      <point x="530" y="81"/>
      <point x="511" y="88"/>
      <point x="492" y="116" type="curve" smooth="yes"/>
      <point x="465" y="155" type="line"/>
      <point x="428" y="120"/>
      <point x="376" y="109"/>
      <point x="331" y="109" type="curve" smooth="yes"/>
      <point x="286" y="109"/>
      <point x="234" y="120"/>
      <point x="197" y="155" type="curve"/>
      <point x="170" y="116" type="line" smooth="yes"/>
      <point x="151" y="88"/>
      <point x="132" y="81"/>
    </contour>
  </outline>
</glyph>
<glyph name="yen" format="2">
  <advance width="530"/>
  <unicode hex="00A5"/>
  <outline>
    <contour>
      <point x="107" y="187" type="line"/>
      <point x="117" y="223" type="line"/>
      <point x="267" y="223" type="line"/>
      <point x="273" y="258" type="line"/>
      <point x="277" y="276"/>
      <point x="280" y="293"/>
      <point x="283" y="311" type="curve"/>
      <point x="134" y="311" type="line"/>
      <point x="144" y="347" type="line"/>
      <point x="274" y="347" type="line"/>
      <point x="252" y="431"/>
      <point x="229" y="514"/>
      <point x="207" y="598" type="curve" smooth="yes"/>
      <point x="202" y="617"/>
      <point x="195" y="636"/>
      <point x="177" y="637" type="curve" smooth="yes"/>
      <point x="142" y="639" type="line"/>
      <point x="149" y="668" type="line"/>
      <point x="369" y="668" type="line"/>
      <point x="363" y="639" type="line"/>
      <point x="321" y="637" type="line" smooth="yes"/>
      <point x="298" y="636"/>
      <point x="293" y="627"/>
      <point x="297" y="609" type="curve" smooth="yes"/>
      <point x="317" y="522"/>
      <point x="337" y="434"/>
      <point x="357" y="347" type="curve"/>
      <point x="359" y="347" type="line"/>
      <point x="426" y="446"/>
      <point x="495" y="538"/>
      <point x="534" y="601" type="curve" smooth="yes"/>
      <point x="548" y="624"/>
      <point x="549" y="634"/>
      <point x="532" y="635" type="curve" smooth="yes"/>
      <point x="481" y="639" type="line"/>
      <point x="487" y="668" type="line"/>
      <point x="680" y="668" type="line"/>
      <point x="674" y="639" type="line"/>
      <point x="653" y="638" type="line" smooth="yes"/>
      <point x="626" y="637"/>
      <point x="605" y="622"/>
      <point x="580" y="588" type="curve" smooth="yes"/>
      <point x="520" y="508"/>
      <point x="459" y="427"/>
      <point x="399" y="347" type="curve"/>
      <point x="538" y="347" type="line"/>
      <point x="529" y="311" type="line"/>
      <point x="373" y="311" type="line"/>
      <point x="369" y="293"/>
      <point x="365" y="276"/>
      <point x="360" y="258" type="curve"/>
      <point x="352" y="223" type="line"/>
      <point x="515" y="223" type="line"/>
      <point x="506" y="187" type="line"/>
      <point x="344" y="187" type="line"/>
      <point x="321" y="81" type="line"/>
      <point x="320" y="75"/>
      <point x="318" y="69"/>
      <point x="317" y="63" type="curve"/>
      <point x="314" y="50"/>
      <point x="317" y="43"/>
      <point x="326" y="38" type="curve"/>
      <point x="330" y="36"/>
      <point x="335" y="35"/>
      <point x="342" y="34" type="curve"/>
      <point x="402" y="29" type="line"/>
      <point x="396" y="0" type="line"/>
      <point x="132" y="0" type="line"/>
      <point x="138" y="29" type="line"/>
      <point x="198" y="34" type="line" smooth="yes"/>
      <point x="214" y="35"/>
      <point x="227" y="44"/>
      <point x="231" y="63" type="curve" smooth="yes"/>
      <point x="259" y="187" type="line"/>
    </contour>
  </outline>
</glyph>
<glyph name="section" format="2">
  <advance width="530"/>
  <unicode hex="00A7"/>
  <outline>
    <contour>
      <point x="181" y="406" type="curve" smooth="yes"/>
      <point x="180" y="356"/>
      <point x="203" y="302"/>
      <point x="284" y="245" type="curve" smooth="yes"/>
      <point x="291" y="240"/>
      <point x="298" y="235"/>
      <point x="305" y="230" type="curve" smooth="yes"/>
      <point x="374" y="179"/>
      <point x="415" y="130"/>
      <point x="423" y="85" type="curve"/>
      <point x="451" y="106"/>
      <point x="480" y="137"/>
      <point x="488" y="183" type="curve"/>
      <point x="489" y="190"/>
      <point x="490" y="198"/>
      <point x="490" y="207" type="curve"/>
      <point x="491" y="272"/>
      <point x="454" y="329"/>
      <point x="389" y="375" type="curve" smooth="yes"/>
      <point x="317" y="425"/>
      <point x="266" y="472"/>
      <point x="258" y="526" type="curve"/>
      <point x="220" y="506"/>
      <point x="182" y="463"/>
    </contour>
    <contour>
      <point x="90" y="-23" type="curve"/>
      <point x="90" y="12"/>
      <point x="121" y="25"/>
      <point x="138" y="25" type="curve" smooth="yes"/>
      <point x="152" y="25"/>
      <point x="159" y="13"/>
      <point x="165" y="-1" type="curve" smooth="yes"/>
      <point x="192" y="-65"/>
      <point x="235" y="-80"/>
      <point x="268" y="-80" type="curve" smooth="yes"/>
      <point x="274" y="-80"/>
      <point x="279" y="-79"/>
      <point x="284" y="-78" type="curve" smooth="yes"/>
      <point x="316" y="-72"/>
      <point x="345" y="-48"/>
      <point x="353" y="-11" type="curve"/>
      <point x="354" y="-4"/>
      <point x="355" y="2"/>
      <point x="355" y="9" type="curve"/>
      <point x="356" y="46"/>
      <point x="352" y="101"/>
      <point x="243" y="173" type="curve" smooth="yes"/>
      <point x="141" y="240"/>
      <point x="122" y="302"/>
      <point x="121" y="349" type="curve"/>
      <point x="121" y="353"/>
      <point x="121" y="356"/>
      <point x="121" y="360" type="curve"/>
      <point x="123" y="447"/>
      <point x="182" y="522"/>
      <point x="256" y="572" type="curve"/>
      <point x="262" y="621"/>
      <point x="310" y="707"/>
      <point x="431" y="707" type="curve" smooth="yes"/>
      <point x="525" y="707"/>
      <point x="568" y="660"/>
      <point x="568" y="626" type="curve"/>
      <point x="567" y="596"/>
      <point x="538" y="586"/>
      <point x="520" y="586" type="curve" smooth="yes"/>
      <point x="508" y="586"/>
      <point x="501" y="595"/>
      <point x="494" y="611" type="curve" smooth="yes"/>
      <point x="477" y="650"/>
      <point x="447" y="672"/>
      <point x="410" y="672" type="curve" smooth="yes"/>
      <point x="404" y="672"/>
      <point x="399" y="671"/>
      <point x="393" y="670" type="curve" smooth="yes"/>
      <point x="360" y="664"/>
      <point x="332" y="639"/>
      <point x="324" y="605" type="curve"/>
      <point x="323" y="599"/>
      <point x="322" y="593"/>
      <point x="322" y="587" type="curve" smooth="yes"/>
      <point x="322" y="562"/>
      <point x="324" y="516"/>
      <point x="421" y="454" type="curve"/>
      <point x="428" y="450"/>
      <point x="435" y="445"/>
      <point x="441" y="441" type="curve"/>
      <point x="517" y="387"/>
      <point x="549" y="335"/>
      <point x="548" y="259" type="curve" smooth="yes"/>
      <point x="546" y="169"/>
      <point x="489" y="96"/>
      <point x="426" y="39" type="curve"/>
      <point x="418" y="-42"/>
      <point x="365" y="-105"/>
      <point x="267" y="-114" type="curve"/>
      <point x="260" y="-115"/>
      <point x="252" y="-115"/>
      <point x="244" y="-115" type="curve" smooth="yes"/>
      <point x="146" y="-115"/>
      <point x="89" y="-65"/>
    </contour>
  </outline>
</glyph>
<glyph name="degree" format="2">
  <advance width="400"/>
  <unicode hex="00B0"/>
  <outline>
    <contour>
      <point x="187" y="542" type="curve"/>
      <point x="186" y="617"/>
      <point x="249" y="680"/>
      <point x="325" y="680" type="curve" smooth="yes"/>
      <point x="400" y="680"/>
      <point x="463" y="617"/>
      <point x="463" y="542" type="curve" smooth="yes"/>
      <point x="463" y="466"/>
      <point x="400" y="404"/>
      <point x="325" y="404" type="curve" smooth="yes"/>
      <point x="249" y="404"/>
      <point x="187" y="466"/>
    </contour>
    <contour>
      <point x="243" y="542" type="curve"/>
      <point x="243" y="490"/>
      <point x="281" y="452"/>
      <point x="325" y="452" type="curve" smooth="yes"/>
      <point x="368" y="452"/>
      <point x="407" y="490"/>
      <point x="407" y="542" type="curve" smooth="yes"/>
      <point x="407" y="593"/>
      <point x="368" y="632"/>
      <point x="324" y="632" type="curve" smooth="yes"/>
      <point x="281" y="632"/>
      <point x="242" y="593"/>
    </contour>
  </outline>
</glyph>
<glyph name="plusminus" format="2">
  <advance width="570"/>
  <unicode hex="00B1"/>
  <outline>
    <contour>
      <point x="93" y="311" type="line"/>
      <point x="93" y="369" type="line"/>
      <point x="302" y="369" type="line"/>
      <point x="302" y="556" type="line"/>
      <point x="370" y="556" type="line"/>
      <point x="370" y="369" type="line"/>
      <point x="577" y="369" type="line"/>
      <point x="577" y="311" type="line"/>
      <point x="370" y="311" type="line"/>
      <point x="370" y="114" type="line"/>
      <point x="302" y="114" type="line"/>
      <point x="302" y="311" type="line"/>
    </contour>
    <contour>
      <point x="93" y="0" type="line"/>
      <point x="93" y="58" type="line"/>
      <point x="577" y="58" type="line"/>
      <point x="577" y="0" type="line"/>
    </contour>
  </outline>
</glyph>
<glyph name="uni00B2" format="2">
  <advance width="370"/>
  <unicode hex="00B2"/>
  <outline>
    <contour>
      <point x="89" y="417" type="line"/>
      <point x="107" y="466"/>
      <point x="167" y="527"/>
      <point x="234" y="562" type="curve" smooth="yes"/>
      <point x="324" y="609"/>
      <point x="370" y="661"/>
      <point x="370" y="723" type="curve" smooth="yes"/>
      <point x="370" y="753"/>
      <point x="360" y="788"/>
      <point x="317" y="788" type="curve" smooth="yes"/>
      <point x="284" y="788"/>
      <point x="254" y="763"/>
      <point x="238" y="709" type="curve" smooth="yes"/>
      <point x="235" y="698"/>
      <point x="224" y="688"/>
      <point x="210" y="688" type="curve" smooth="yes"/>
      <point x="191" y="688"/>
      <point x="172" y="704"/>
      <point x="172" y="720" type="curve" smooth="yes"/>
      <point x="172" y="756"/>
      <point x="224" y="816"/>
      <point x="319" y="816" type="curve" smooth="yes"/>
      <point x="410" y="816"/>
      <point x="453" y="770"/>
      <point x="453" y="707" type="curve" smooth="yes"/>
      <point x="453" y="636"/>
      <point x="391" y="601"/>
      <point x="302" y="562" type="curve" smooth="yes"/>
      <point x="234" y="532"/>
      <point x="186" y="491"/>
      <point x="175" y="467" type="curve"/>
      <point x="330" y="467" type="line" smooth="yes"/>
      <point x="362" y="467"/>
      <point x="372" y="477"/>
      <point x="390" y="500" type="curve"/>
      <point x="412" y="493" type="line"/>
      <point x="376" y="408" type="line"/>
      <point x="96" y="408" type="line"/>
    </contour>
  </outline>
</glyph>
<glyph name="paragraph" format="2">
  <advance width="560"/>
  <unicode hex="00B6"/>
  <outline>
    <contour>
      <point x="237" y="-101" type="line"/>
      <point x="242" y="-75" type="line"/>
      <point x="318" y="-66" type="line" smooth="yes"/>
      <point x="339" y="-63"/>
      <point x="348" y="-55"/>
      <point x="354" y="-26" type="curve" smooth="yes"/>
      <point x="504" y="692" type="line"/>
      <point x="672" y="692" type="line"/>
      <point x="667" y="666" type="line"/>
      <point x="597" y="657" type="line" smooth="yes"/>
      <point x="577" y="654"/>
      <point x="568" y="649"/>
      <point x="562" y="620" type="curve" smooth="yes"/>
      <point x="411" y="-101" type="line"/>
    </contour>
    <contour>
      <point x="144" y="437" type="curve" smooth="yes"/>
      <point x="144" y="574"/>
      <point x="261" y="692"/>
      <point x="415" y="692" type="curve" smooth="yes"/>
      <point x="419" y="692"/>
      <point x="423" y="692"/>
      <point x="427" y="692" type="curve"/>
      <point x="335" y="250" type="line"/>
      <point x="331" y="250"/>
      <point x="328" y="250"/>
      <point x="324" y="250" type="curve" smooth="yes"/>
      <point x="218" y="250"/>
      <point x="144" y="329"/>
    </contour>
  </outline>
</glyph>
<glyph name="periodcentered" format="2">
  <advance width="265"/>
  <unicode hex="00B7"/>
  <outline>
    <contour>
      <point x="124" y="244" type="curve" smooth="yes"/>
      <point x="124" y="285"/>
      <point x="151" y="312"/>
      <point x="189" y="312" type="curve" smooth="yes"/>
      <point x="225" y="312"/>
      <point x="246" y="286"/>
      <point x="246" y="256" type="curve" smooth="yes"/>
      <point x="246" y="214"/>
      <point x="220" y="187"/>
      <point x="181" y="187" type="curve" smooth="yes"/>
      <point x="145" y="187"/>
      <point x="124" y="212"/>
    </contour>
  </outline>
</glyph>
<glyph name="cedilla" format="2">
  <advance width="400"/>
  <unicode hex="00B8"/>
  <outline>
    <contour>
      <point x="97" y="-220" type="curve"/>
      <point x="101" y="-196" type="line"/>
      <point x="146" y="-202"/>
      <point x="199" y="-195"/>
      <point x="199" y="-147" type="curve" smooth="yes"/>
      <point x="199" y="-120"/>
      <point x="179" y="-97"/>
      <point x="144" y="-95" type="curve"/>
      <point x="141" y="-86" type="line"/>
      <point x="201" y="0" type="line"/>
      <point x="246" y="0" type="line"/>
      <point x="202" y="-60" type="line"/>
      <point x="248" y="-66"/>
      <point x="284" y="-107"/>
      <point x="274" y="-157" type="curve" smooth="yes"/>
      <point x="265" y="-203"/>
      <point x="216" y="-230"/>
      <point x="163" y="-230" type="curve" smooth="yes"/>
      <point x="138" y="-230"/>
      <point x="112" y="-226"/>
    </contour>
  </outline>
</glyph>
<glyph name="Oslash" format="2">
  <advance width="753"/>
  <unicode hex="00D8"/>
  <outline>
    <contour>
      <point x="263" y="79" type="line"/>
      <point x="294" y="40"/>
      <point x="341" y="20"/>
      <point x="398" y="20" type="curve" smooth="yes"/>
      <point x="528" y="20"/>
      <point x="596" y="113"/>
      <point x="637" y="220" type="curve" smooth="yes"/>
      <point x="678" y="326"/>
      <point x="684" y="409"/>
      <point x="684" y="466" type="curve" smooth="yes"/>
      <point x="684" y="482"/>
      <point x="683" y="496"/>
      <point x="681" y="510" type="curve"/>
      <point x="678" y="538"/>
      <point x="671" y="562"/>
      <point x="661" y="582" type="curve"/>
    </contour>
    <contour>
      <point x="219" y="230" type="curve" smooth="yes"/>
      <point x="219" y="186"/>
      <point x="226" y="148"/>
      <point x="241" y="117" type="curve"/>
      <point x="637" y="619" type="line"/>
      <point x="614" y="646"/>
      <point x="582" y="662"/>
      <point x="544" y="669" type="curve"/>
      <point x="531" y="671"/>
      <point x="518" y="672"/>
      <point x="504" y="672" type="curve" smooth="yes"/>
      <point x="398" y="672"/>
      <point x="327" y="599"/>
      <point x="281" y="504" type="curve" smooth="yes"/>
      <point x="235" y="407"/>
      <point x="219" y="314"/>
    </contour>
    <contour>
      <point x="114" y="270" type="curve" smooth="yes"/>
      <point x="114" y="329"/>
      <point x="125" y="411"/>
      <point x="168" y="495" type="curve"/>
      <point x="172" y="504"/>
      <point x="178" y="514"/>
      <point x="183" y="523" type="curve"/>
      <point x="241" y="619"/>
      <point x="340" y="707"/>
      <point x="500" y="707" type="curve" smooth="yes"/>
      <point x="565" y="707"/>
      <point x="625" y="693"/>
      <point x="672" y="663" type="curve"/>
      <point x="730" y="736" type="line"/>
      <point x="762" y="710" type="line"/>
      <point x="705" y="638" type="line"/>
      <point x="757" y="592"/>
      <point x="789" y="518"/>
      <point x="789" y="414" type="curve" smooth="yes"/>
      <point x="789" y="375"/>
      <point x="780" y="273"/>
      <point x="726" y="175" type="curve" smooth="yes"/>
      <point x="671" y="76"/>
      <point x="584" y="-15"/>
      <point x="407" y="-15" type="curve" smooth="yes"/>
      <point x="332" y="-15"/>
      <point x="272" y="2"/>
      <point x="227" y="33" type="curve"/>
      <point x="165" y="-45" type="line"/>
      <point x="135" y="-17" type="line"/>
      <point x="194" y="58" type="line"/>
      <point x="141" y="108"/>
      <point x="114" y="183"/>
    </contour>
  </outline>
</glyph>
<glyph name="Yacute" format="2">
  <advance width="591"/>
  <unicode hex="00DD"/>
  <outline>
    <contour>
      <point x="131" y="663" type="curve"/>
      <point x="137" y="692" type="line"/>
      <point x="386" y="692" type="line"/>
      <point x="380" y="663" type="line"/>
      <point x="325" y="658" type="line" smooth="yes"/>
      <point x="306" y="656"/>
      <point x="302" y="647"/>
      <point x="306" y="629" type="curve"/>
      <point x="397" y="322" type="line"/>
      <point x="400" y="322" type="line"/>
      <point x="474" y="423"/>
      <point x="561" y="547"/>
      <point x="604" y="618" type="curve"/>
      <point x="606" y="622"/>
      <point x="609" y="626"/>
      <point x="611" y="630" type="curve" smooth="yes"/>
      <point x="620" y="647"/>
      <point x="617" y="658"/>
      <point x="596" y="659" type="curve"/>
      <point x="544" y="663" type="line"/>
      <point x="550" y="692" type="line"/>
      <point x="779" y="692" type="line"/>
      <point x="773" y="663" type="line"/>
      <point x="764" y="662"/>
      <point x="755" y="662"/>
      <point x="748" y="661" type="curve" smooth="yes"/>
      <point x="711" y="656"/>
      <point x="698" y="645"/>
      <point x="668" y="612" type="curve" smooth="yes"/>
      <point x="617" y="555"/>
      <point x="526" y="433"/>
      <point x="452" y="327" type="curve" smooth="yes"/>
      <point x="447" y="320"/>
      <point x="442" y="314"/>
      <point x="438" y="307" type="curve"/>
      <point x="428" y="293"/>
      <point x="417" y="274"/>
      <point x="410" y="247" type="curve"/>
      <point x="377" y="99" type="line"/>
      <point x="375" y="92"/>
      <point x="374" y="85"/>
      <point x="372" y="78" type="curve"/>
      <point x="366" y="50"/>
      <point x="371" y="37"/>
      <point x="395" y="35" type="curve" smooth="yes"/>
      <point x="471" y="29" type="line"/>
      <point x="465" y="0" type="line"/>
      <point x="155" y="0" type="line"/>
      <point x="161" y="29" type="line"/>
      <point x="215" y="34" type="line"/>
      <point x="233" y="36" type="line" smooth="yes"/>
      <point x="259" y="39"/>
      <point x="268" y="50"/>
      <point x="274" y="78" type="curve"/>
      <point x="276" y="85"/>
      <point x="277" y="92"/>
      <point x="279" y="99" type="curve"/>
      <point x="312" y="246" type="line" smooth="yes"/>
      <point x="317" y="267"/>
      <point x="317" y="282"/>
      <point x="312" y="299" type="curve" smooth="yes"/>
      <point x="279" y="409"/>
      <point x="248" y="518"/>
      <point x="214" y="617" type="curve" smooth="yes"/>
      <point x="206" y="640"/>
      <point x="201" y="650"/>
      <point x="184" y="656" type="curve"/>
      <point x="172" y="659"/>
      <point x="156" y="661"/>
    </contour>
    <contour>
      <point x="459" y="764" type="line"/>
      <point x="604" y="863" type="line" smooth="yes"/>
      <point x="634" y="883"/>
      <point x="648" y="891"/>
      <point x="662" y="891" type="curve" smooth="yes"/>
      <point x="687" y="891"/>
      <point x="701" y="856"/>
      <point x="701" y="841" type="curve" smooth="yes"/>
      <point x="701" y="817"/>
      <point x="679" y="810"/>
      <point x="640" y="798" type="curve"/>
      <point x="470" y="742" type="line"/>
    </contour>
  </outline>
</glyph>
<glyph name="Thorn" format="2">
  <advance width="604"/>
  <unicode hex="00DE"/>
  <outline>
    <contour>
      <point x="278" y="251" type="line" smooth="yes"/>
      <point x="273" y="231"/>
      <point x="275" y="217"/>
      <point x="344" y="217" type="curve" smooth="yes"/>
      <point x="456" y="217"/>
      <point x="546" y="271"/>
      <point x="546" y="394" type="curve"/>
      <point x="546" y="394"/>
      <point x="546" y="394"/>
      <point x="546" y="394" type="curve"/>
      <point x="546" y="466"/>
      <point x="502" y="512"/>
      <point x="414" y="512" type="curve" smooth="yes"/>
      <point x="349" y="512"/>
      <point x="335" y="504"/>
      <point x="329" y="476" type="curve" smooth="yes"/>
    </contour>
    <contour>
      <point x="40" y="0" type="line"/>
      <point x="46" y="29" type="line"/>
      <point x="83" y="33" type="line"/>
      <point x="101" y="35" type="line" smooth="yes"/>
      <point x="125" y="38"/>
      <point x="135" y="50"/>
      <point x="143" y="83" type="curve"/>
      <point x="143" y="83"/>
      <point x="143" y="83"/>
      <point x="143" y="83" type="curve"/>
      <point x="257" y="584" type="line"/>
      <point x="263" y="609" type="line" smooth="yes"/>
      <point x="271" y="642"/>
      <point x="264" y="655"/>
      <point x="241" y="657" type="curve" smooth="yes"/>
      <point x="182" y="663" type="line"/>
      <point x="189" y="692" type="line"/>
      <point x="463" y="692" type="line"/>
      <point x="456" y="663" type="line"/>
      <point x="419" y="660" type="line"/>
      <point x="401" y="658" type="line"/>
      <point x="376" y="656"/>
      <point x="367" y="643"/>
      <point x="359" y="609" type="curve"/>
      <point x="357" y="602"/>
      <point x="356" y="595"/>
      <point x="354" y="588" type="curve"/>
      <point x="345" y="547" type="line"/>
      <point x="419" y="547" type="line" smooth="yes"/>
      <point x="544" y="547"/>
      <point x="653" y="507"/>
      <point x="651" y="381" type="curve" smooth="yes"/>
      <point x="650" y="305"/>
      <point x="613" y="257"/>
      <point x="563" y="228" type="curve" smooth="yes"/>
      <point x="506" y="194"/>
      <point x="432" y="184"/>
      <point x="373" y="182" type="curve"/>
      <point x="366" y="182"/>
      <point x="359" y="182"/>
      <point x="352" y="182" type="curve" smooth="yes"/>
      <point x="261" y="182" type="line"/>
      <point x="239" y="83" type="line" smooth="yes"/>
      <point x="232" y="52"/>
      <point x="237" y="37"/>
      <point x="263" y="35" type="curve" smooth="yes"/>
      <point x="322" y="29" type="line"/>
      <point x="316" y="0" type="line"/>
    </contour>
  </outline>
</glyph>
<glyph name="ccedilla" format="2">
  <advance width="441"/>
  <unicode hex="00E7"/>
  <outline>
    <contour>
      <point x="81" y="148" type="curve" smooth="yes"/>
      <point x="81" y="312"/>
      <point x="193" y="502"/>
      <point x="371" y="502" type="curve" smooth="yes"/>
      <point x="446" y="502"/>
      <point x="500" y="464"/>
      <point x="500" y="413" type="curve" smooth="yes"/>
      <point x="500" y="380"/>
      <point x="460" y="357"/>
      <point x="436" y="357" type="curve" smooth="yes"/>
      <point x="418" y="357"/>
      <point x="409" y="369"/>
      <point x="407" y="387" type="curve" smooth="yes"/>
      <point x="401" y="447"/>
      <point x="379" y="467"/>
      <point x="347" y="467" type="curve" smooth="yes"/>
      <point x="255" y="467"/>
      <point x="180" y="298"/>
      <point x="180" y="168" type="curve" smooth="yes"/>
      <point x="180" y="97"/>
      <point x="195" y="37"/>
      <point x="268" y="37" type="curve" smooth="yes"/>
      <point x="335" y="37"/>
      <point x="394" y="108"/>
      <point x="428" y="154" type="curve"/>
      <point x="452" y="135" type="line"/>
      <point x="396" y="41"/>
      <point x="329" y="3"/>
      <point x="267" y="-8" type="curve"/>
      <point x="229" y="-60" type="line"/>
      <point x="275" y="-66"/>
      <point x="311" y="-107"/>
      <point x="301" y="-157" type="curve" smooth="yes"/>
      <point x="292" y="-203"/>
      <point x="243" y="-230"/>
      <point x="190" y="-230" type="curve" smooth="yes"/>
      <point x="165" y="-230"/>
      <point x="139" y="-226"/>
      <point x="124" y="-220" type="curve"/>
      <point x="128" y="-196" type="line"/>
      <point x="173" y="-202"/>
      <point x="226" y="-195"/>
      <point x="226" y="-147" type="curve" smooth="yes"/>
      <point x="226" y="-120"/>
      <point x="206" y="-97"/>
      <point x="171" y="-95" type="curve"/>
      <point x="168" y="-86" type="line"/>
      <point x="220" y="-12" type="line"/>
      <point x="151" y="-11"/>
      <point x="81" y="28"/>
    </contour>
  </outline>
</glyph>
<glyph name="edieresis" format="2">
  <advance width="453"/>
  <unicode hex="00EB"/>
  <outline>
    <contour>
      <point x="182" y="226" type="curve"/>
      <point x="351" y="262"/>
      <point x="412" y="338"/>
      <point x="412" y="408" type="curve" smooth="yes"/>
      <point x="412" y="434"/>
      <point x="399" y="454"/>
      <point x="378" y="463" type="curve" smooth="yes"/>
      <point x="371" y="466"/>
      <point x="363" y="467"/>
      <point x="354" y="467" type="curve" smooth="yes"/>
      <point x="274" y="467"/>
      <point x="199" y="347"/>
    </contour>
    <contour>
      <point x="80" y="152" type="curve" smooth="yes"/>
      <point x="80" y="236"/>
      <point x="110" y="323"/>
      <point x="163" y="388" type="curve" smooth="yes"/>
      <point x="213" y="450"/>
      <point x="279" y="493"/>
      <point x="358" y="501" type="curve" smooth="yes"/>
      <point x="366" y="502"/>
      <point x="374" y="502"/>
      <point x="382" y="502" type="curve" smooth="yes"/>
      <point x="464" y="502"/>
      <point x="506" y="455"/>
      <point x="506" y="402" type="curve" smooth="yes"/>
      <point x="506" y="374"/>
      <point x="499" y="341"/>
      <point x="464" y="306" type="curve"/>
      <point x="421" y="266"/>
      <point x="348" y="226"/>
      <point x="180" y="192" type="curve"/>
      <point x="179" y="185"/>
      <point x="179" y="181"/>
      <point x="179" y="176" type="curve" smooth="yes"/>
      <point x="179" y="97"/>
      <point x="200" y="37"/>
      <point x="270" y="37" type="curve" smooth="yes"/>
      <point x="345" y="37"/>
      <point x="399" y="104"/>
      <point x="435" y="151" type="curve"/>
      <point x="458" y="131" type="line"/>
      <point x="390" y="20"/>
      <point x="302" y="-12"/>
      <point x="229" y="-12" type="curve" smooth="yes"/>
      <point x="171" y="-12"/>
      <point x="80" y="12"/>
    </contour>
    <contour>
      <point x="210" y="621" type="curve" smooth="yes"/>
      <point x="210" y="653"/>
      <point x="231" y="677"/>
      <point x="259" y="681" type="curve"/>
      <point x="262" y="682"/>
      <point x="266" y="682"/>
      <point x="269" y="682" type="curve" smooth="yes"/>
      <point x="299" y="682"/>
      <point x="317" y="658"/>
      <point x="317" y="633" type="curve"/>
      <point x="317" y="633"/>
      <point x="317" y="633"/>
      <point x="317" y="633" type="curve"/>
      <point x="317" y="602"/>
      <point x="298" y="577"/>
      <point x="269" y="573" type="curve"/>
      <point x="266" y="572"/>
      <point x="263" y="572"/>
      <point x="259" y="572" type="curve" smooth="yes"/>
      <point x="227" y="572"/>
      <point x="210" y="592"/>
    </contour>
    <contour>
      <point x="418" y="621" type="curve" smooth="yes"/>
      <point x="418" y="653"/>
      <point x="439" y="677"/>
      <point x="467" y="681" type="curve"/>
      <point x="470" y="682"/>
      <point x="474" y="682"/>
      <point x="477" y="682" type="curve" smooth="yes"/>
      <point x="507" y="682"/>
      <point x="525" y="658"/>
      <point x="525" y="633" type="curve"/>
      <point x="525" y="633"/>
      <point x="525" y="633"/>
      <point x="525" y="633" type="curve"/>
      <point x="525" y="602"/>
      <point x="506" y="577"/>
      <point x="477" y="573" type="curve"/>
      <point x="474" y="572"/>
      <point x="471" y="572"/>
      <point x="467" y="572" type="curve" smooth="yes"/>
      <point x="435" y="572"/>
      <point x="418" y="592"/>
    </contour>
  </outline>
</glyph>
<glyph name="iacute" format="2">
  <advance width="317"/>
  <unicode hex="00ED"/>
  <outline>
    <contour>
      <point x="193" y="562" type="line"/>
      <point x="312" y="682" type="line" smooth="yes"/>
      <point x="342" y="713"/>
      <point x="359" y="723"/>
      <point x="376" y="723" type="curve" smooth="yes"/>
      <point x="391" y="723"/>
      <point x="415" y="700"/>
      <point x="415" y="680" type="curve" smooth="yes"/>
      <point x="415" y="677"/>
      <point x="414" y="673"/>
      <point x="413" y="670" type="curve"/>
      <point x="406" y="653"/>
      <point x="384" y="639"/>
      <point x="359" y="626" type="curve"/>
      <point x="208" y="542" type="line"/>
    </contour>
    <contour>
      <point x="120" y="86" type="curve" smooth="yes"/>
      <point x="198" y="375" type="line"/>
      <point x="204" y="399" type="line" smooth="yes"/>
      <point x="213" y="434"/>
      <point x="210" y="443"/>
      <point x="183" y="445" type="curve" smooth="yes"/>
      <point x="126" y="450" type="line"/>
      <point x="132" y="474" type="line"/>
      <point x="314" y="502" type="line"/>
      <point x="319" y="497" type="line"/>
      <point x="216" y="119" type="line"/>
      <point x="210" y="95" type="line"/>
      <point x="201" y="63"/>
      <point x="200" y="40"/>
      <point x="220" y="40" type="curve" smooth="yes"/>
      <point x="248" y="40"/>
      <point x="292" y="111"/>
      <point x="310" y="146" type="curve"/>
      <point x="334" y="132" type="line"/>
      <point x="300" y="56"/>
      <point x="244" y="-12"/>
      <point x="172" y="-12" type="curve" smooth="yes"/>
      <point x="118" y="-12"/>
      <point x="105" y="29"/>
    </contour>
  </outline>
</glyph>
<glyph name="icircumflex" format="2">
  <advance width="317"/>
  <unicode hex="00EE"/>
  <outline>
    <contour>
      <point x="120" y="86" type="curve" smooth="yes"/>
      <point x="198" y="375" type="line"/>
      <point x="204" y="399" type="line" smooth="yes"/>
      <point x="213" y="434"/>
      <point x="210" y="443"/>
      <point x="183" y="445" type="curve" smooth="yes"/>
      <point x="126" y="450" type="line"/>
      <point x="132" y="474" type="line"/>
      <point x="314" y="502" type="line"/>
      <point x="319" y="497" type="line"/>
      <point x="216" y="119" type="line"/>
      <point x="210" y="95" type="line"/>
      <point x="201" y="63"/>
      <point x="200" y="40"/>
      <point x="220" y="40" type="curve" smooth="yes"/>
      <point x="248" y="40"/>
      <point x="292" y="111"/>
      <point x="310" y="146" type="curve"/>
      <point x="334" y="132" type="line"/>
      <point x="300" y="56"/>
      <point x="244" y="-12"/>
      <point x="172" y="-12" type="curve" smooth="yes"/>
      <point x="118" y="-12"/>
      <point x="105" y="29"/>
    </contour>
    <contour>
      <point x="121" y="567" type="line"/>
      <point x="259" y="696" type="line"/>
      <point x="263" y="699"/>
      <point x="266" y="702"/>
      <point x="270" y="705" type="curve"/>
      <point x="280" y="714"/>
      <point x="290" y="720"/>
      <point x="299" y="720" type="curve" smooth="yes"/>
      <point x="310" y="720"/>
      <point x="320" y="708"/>
      <point x="329" y="696" type="curve"/>
      <point x="418" y="567" type="line"/>
      <point x="395" y="546" type="line"/>
      <point x="310" y="621" type="line"/>
      <point x="300" y="629"/>
      <point x="291" y="636"/>
      <point x="282" y="636" type="curve" smooth="yes"/>
      <point x="275" y="636"/>
      <point x="262" y="629"/>
      <point x="250" y="621" type="curve" smooth="yes"/>
      <point x="135" y="546" type="line"/>
    </contour>
  </outline>
</glyph>
<glyph name="ntilde" format="2">
  <advance width="618"/>
  <unicode hex="00F1"/>
  <outline>
    <contour>
      <point x="98" y="-12" type="line"/>
      <point x="203" y="397" type="line"/>
      <point x="212" y="429"/>
      <point x="212" y="443"/>
      <point x="188" y="445" type="curve" smooth="yes"/>
      <point x="126" y="450" type="line"/>
      <point x="132" y="474" type="line"/>
      <point x="315" y="502" type="line"/>
      <point x="320" y="497" type="line"/>
      <point x="255" y="279" type="line"/>
      <point x="258" y="279" type="line"/>
      <point x="318" y="396"/>
      <point x="422" y="502"/>
      <point x="518" y="502" type="curve" smooth="yes"/>
      <point x="600" y="502"/>
      <point x="612" y="436"/>
      <point x="589" y="357" type="curve" smooth="yes"/>
      <point x="519" y="121" type="line"/>
      <point x="511" y="95" type="line" smooth="yes"/>
      <point x="502" y="63"/>
      <point x="501" y="40"/>
      <point x="521" y="40" type="curve" smooth="yes"/>
      <point x="549" y="40"/>
      <point x="593" y="111"/>
      <point x="611" y="146" type="curve"/>
      <point x="635" y="132" type="line"/>
      <point x="601" y="56"/>
      <point x="545" y="-12"/>
      <point x="470" y="-12" type="curve" smooth="yes"/>
      <point x="416" y="-12"/>
      <point x="403" y="30"/>
      <point x="419" y="86" type="curve" smooth="yes"/>
      <point x="497" y="352" type="line"/>
      <point x="505" y="379" type="line" smooth="yes"/>
      <point x="516" y="418"/>
      <point x="507" y="450"/>
      <point x="472" y="450" type="curve" smooth="yes"/>
      <point x="391" y="450"/>
      <point x="295" y="304"/>
      <point x="258" y="218" type="curve" smooth="yes"/>
      <point x="232" y="156"/>
      <point x="215" y="102"/>
      <point x="186" y="0" type="curve"/>
    </contour>
    <contour>
      <point x="239" y="576" type="line"/>
      <point x="259" y="616"/>
      <point x="287" y="674"/>
      <point x="351" y="674" type="curve" smooth="yes"/>
      <point x="375" y="674"/>
      <point x="403" y="665"/>
      <point x="430" y="655" type="curve"/>
      <point x="458" y="646"/>
      <point x="485" y="636"/>
      <point x="506" y="636" type="curve" smooth="yes"/>
      <point x="534" y="636"/>
      <point x="546" y="647"/>
      <point x="574" y="682" type="curve"/>
      <point x="594" y="671" type="line"/>
      <point x="565" y="614"/>
      <point x="539" y="576"/>
      <point x="490" y="576" type="curve" smooth="yes"/>
      <point x="468" y="576"/>
      <point x="439" y="586"/>
      <point x="410" y="595" type="curve"/>
      <point x="381" y="605"/>
      <point x="352" y="614"/>
      <point x="330" y="614" type="curve" smooth="yes"/>
      <point x="297" y="614"/>
      <point x="280" y="598"/>
      <point x="258" y="563" type="curve"/>
    </contour>
  </outline>
</glyph>
<glyph name="ograve" format="2">
  <advance width="537"/>
  <unicode hex="00F2"/>
  <outline>
    <contour>
      <point x="235" y="680" type="curve" smooth="yes"/>
      <point x="235" y="700"/>
      <point x="259" y="723"/>
      <point x="274" y="723" type="curve" smooth="yes"/>
      <point x="291" y="723"/>
      <point x="308" y="713"/>
      <point x="338" y="682" type="curve" smooth="yes"/>
      <point x="457" y="562" type="line"/>
      <point x="442" y="542" type="line"/>
      <point x="291" y="626" type="line" smooth="yes"/>
      <point x="261" y="642"/>
      <point x="235" y="659"/>
    </contour>
    <contour>
      <point x="181" y="129" type="curve" smooth="yes"/>
      <point x="181" y="68"/>
      <point x="205" y="34"/>
      <point x="248" y="25" type="curve"/>
      <point x="255" y="24"/>
      <point x="263" y="23"/>
      <point x="271" y="23" type="curve" smooth="yes"/>
      <point x="408" y="23"/>
      <point x="460" y="291"/>
      <point x="460" y="362" type="curve"/>
      <point x="460" y="362"/>
      <point x="460" y="362"/>
      <point x="460" y="362" type="curve"/>
      <point x="460" y="414"/>
      <point x="445" y="452"/>
      <point x="404" y="464" type="curve"/>
      <point x="396" y="466"/>
      <point x="387" y="467"/>
      <point x="377" y="467" type="curve" smooth="yes"/>
      <point x="323" y="467"/>
      <point x="280" y="428"/>
      <point x="248" y="375" type="curve" smooth="yes"/>
      <point x="203" y="298"/>
      <point x="181" y="193"/>
    </contour>
    <contour>
      <point x="84" y="169" type="curve" smooth="yes"/>
      <point x="84" y="212"/>
      <point x="98" y="295"/>
      <point x="142" y="368" type="curve" smooth="yes"/>
      <point x="186" y="440"/>
      <point x="260" y="502"/>
      <point x="378" y="502" type="curve" smooth="yes"/>
      <point x="459" y="502"/>
      <point x="557" y="465"/>
      <point x="557" y="327" type="curve" smooth="yes"/>
      <point x="557" y="320"/>
      <point x="557" y="313"/>
      <point x="556" y="305" type="curve"/>
      <point x="552" y="252"/>
      <point x="534" y="179"/>
      <point x="494" y="116" type="curve" smooth="yes"/>
      <point x="447" y="42"/>
      <point x="377" y="-12"/>
      <point x="268" y="-12" type="curve" smooth="yes"/>
      <point x="142" y="-12"/>
      <point x="84" y="62"/>
    </contour>
  </outline>
</glyph>
<glyph name="ocircumflex" format="2">
  <advance width="537"/>
  <unicode hex="00F4"/>
  <outline>
    <contour>
      <point x="181" y="129" type="curve" smooth="yes"/>
      <point x="181" y="68"/>
      <point x="205" y="34"/>
      <point x="248" y="25" type="curve"/>
      <point x="255" y="24"/>
      <point x="263" y="23"/>
      <point x="271" y="23" type="curve" smooth="yes"/>
      <point x="408" y="23"/>
      <point x="460" y="291"/>
      <point x="460" y="362" type="curve"/>
      <point x="460" y="362"/>
      <point x="460" y="362"/>
      <point x="460" y="362" type="curve"/>
      <point x="460" y="414"/>
      <point x="445" y="452"/>
      <point x="404" y="464" type="curve"/>
      <point x="396" y="466"/>
      <point x="387" y="467"/>
      <point x="377" y="467" type="curve" smooth="yes"/>
      <point x="323" y="467"/>
      <point x="280" y="428"/>
      <point x="248" y="375" type="curve" smooth="yes"/>
      <point x="203" y="298"/>
      <point x="181" y="193"/>
    </contour>
    <contour>
      <point x="84" y="169" type="curve" smooth="yes"/>
      <point x="84" y="212"/>
      <point x="98" y="295"/>
      <point x="142" y="368" type="curve" smooth="yes"/>
      <point x="186" y="440"/>
      <point x="260" y="502"/>
      <point x="378" y="502" type="curve" smooth="yes"/>
      <point x="459" y="502"/>
      <point x="557" y="465"/>
      <point x="557" y="327" type="curve" smooth="yes"/>
      <point x="557" y="320"/>
      <point x="557" y="313"/>
      <point x="556" y="305" type="curve"/>
      <point x="552" y="252"/>
      <point x="534" y="179"/>
      <point x="494" y="116" type="curve" smooth="yes"/>
      <point x="447" y="42"/>
      <point x="377" y="-12"/>
      <point x="268" y="-12" type="curve" smooth="yes"/>
      <point x="142" y="-12"/>
      <point x="84" y="62"/>
    </contour>
    <contour>
      <point x="239" y="567" type="line"/>
      <point x="377" y="696" type="line"/>
      <point x="381" y="699"/>
      <point x="384" y="702"/>
      <point x="388" y="705" type="curve"/>
      <point x="398" y="714"/>
      <point x="408" y="720"/>
      <point x="417" y="720" type="curve" smooth="yes"/>
      <point x="428" y="720"/>
      <point x="438" y="708"/>
      <point x="447" y="696" type="curve"/>
      <point x="536" y="567" type="line"/>
      <point x="513" y="546" type="line"/>
      <point x="428" y="621" type="line"/>
      <point x="418" y="629"/>
      <point x="409" y="636"/>
      <point x="400" y="636" type="curve" smooth="yes"/>
      <point x="393" y="636"/>
      <point x="380" y="629"/>
      <point x="368" y="621" type="curve" smooth="yes"/>
      <point x="253" y="546" type="line"/>
    </contour>
  </outline>
</glyph>
<glyph name="otilde" format="2">
  <advance width="537"/>
  <unicode hex="00F5"/>
  <outline>
    <contour>
      <point x="181" y="129" type="curve" smooth="yes"/>
      <point x="181" y="68"/>
      <point x="205" y="34"/>
      <point x="248" y="25" type="curve"/>
      <point x="255" y="24"/>
      <point x="263" y="23"/>
      <point x="271" y="23" type="curve" smooth="yes"/>
      <point x="408" y="23"/>
      <point x="460" y="291"/>
      <point x="460" y="362" type="curve"/>
      <point x="460" y="362"/>
      <point x="460" y="362"/>
      <point x="460" y="362" type="curve"/>
      <point x="460" y="414"/>
      <point x="445" y="452"/>
      <point x="404" y="464" type="curve"/>
      <point x="396" y="466"/>
      <point x="387" y="467"/>
      <point x="377" y="467" type="curve" smooth="yes"/>
      <point x="323" y="467"/>
      <point x="280" y="428"/>
      <point x="248" y="375" type="curve" smooth="yes"/>
      <point x="203" y="298"/>
      <point x="181" y="193"/>
    </contour>
    <contour>
      <point x="84" y="169" type="curve" smooth="yes"/>
      <point x="84" y="212"/>
      <point x="98" y="295"/>
      <point x="142" y="368" type="curve" smooth="yes"/>
      <point x="186" y="440"/>
      <point x="260" y="502"/>
      <point x="378" y="502" type="curve" smooth="yes"/>
      <point x="459" y="502"/>
      <point x="557" y="465"/>
      <point x="557" y="327" type="curve" smooth="yes"/>
      <point x="557" y="320"/>
      <point x="557" y="313"/>
      <point x="556" y="305" type="curve"/>
      <point x="552" y="252"/>
      <point x="534" y="179"/>
      <point x="494" y="116" type="curve" smooth="yes"/>
      <point x="447" y="42"/>
      <point x="377" y="-12"/>
      <point x="268" y="-12" type="curve" smooth="yes"/>
      <point x="142" y="-12"/>
      <point x="84" y="62"/>
    </contour>
    <contour>
      <point x="205" y="576" type="line"/>
      <point x="225" y="616"/>
      <point x="253" y="674"/>
      <point x="317" y="674" type="curve" smooth="yes"/>
      <point x="341" y="674"/>
      <point x="369" y="665"/>
      <point x="396" y="655" type="curve"/>
      <point x="424" y="646"/>
      <point x="451" y="636"/>
      <point x="472" y="636" type="curve" smooth="yes"/>
      <point x="500" y="636"/>
      <point x="512" y="647"/>
      <point x="540" y="682" type="curve"/>
      <point x="560" y="671" type="line"/>
      <point x="531" y="614"/>
      <point x="505" y="576"/>
      <point x="456" y="576" type="curve" smooth="yes"/>
      <point x="434" y="576"/>
      <point x="405" y="586"/>
      <point x="376" y="595" type="curve"/>
      <point x="347" y="605"/>
      <point x="318" y="614"/>
      <point x="296" y="614" type="curve" smooth="yes"/>
      <point x="263" y="614"/>
      <point x="246" y="598"/>
      <point x="224" y="563" type="curve"/>
    </contour>
  </outline>
</glyph>
<glyph name="oslash" format="2">
  <advance width="537"/>
  <unicode hex="00F8"/>
  <outline>
    <contour>
      <point x="194" y="60" type="line"/>
      <point x="204" y="43"/>
      <point x="219" y="32"/>
      <point x="238" y="27" type="curve"/>
      <point x="248" y="24"/>
      <point x="259" y="23"/>
      <point x="271" y="23" type="curve" smooth="yes"/>
      <point x="413" y="23"/>
      <point x="465" y="291"/>
      <point x="465" y="362" type="curve" smooth="yes"/>
      <point x="465" y="368"/>
      <point x="465" y="374"/>
      <point x="464" y="380" type="curve" smooth="yes"/>
      <point x="463" y="386"/>
      <point x="462" y="391"/>
      <point x="461" y="396" type="curve"/>
    </contour>
    <contour>
      <point x="176" y="129" type="curve" smooth="yes"/>
      <point x="176" y="119"/>
      <point x="178" y="110"/>
      <point x="179" y="102" type="curve"/>
      <point x="445" y="438" type="line"/>
      <point x="431" y="457"/>
      <point x="410" y="467"/>
      <point x="377" y="467" type="curve" smooth="yes"/>
      <point x="316" y="467"/>
      <point x="270" y="422"/>
      <point x="237" y="362" type="curve" smooth="yes"/>
      <point x="196" y="287"/>
      <point x="176" y="189"/>
    </contour>
    <contour>
      <point x="84" y="169" type="curve" smooth="yes"/>
      <point x="84" y="210"/>
      <point x="97" y="289"/>
      <point x="137" y="359" type="curve" smooth="yes"/>
      <point x="180" y="435"/>
      <point x="255" y="502"/>
      <point x="378" y="502" type="curve" smooth="yes"/>
      <point x="411" y="502"/>
      <point x="447" y="496"/>
      <point x="477" y="479" type="curve"/>
      <point x="517" y="529" type="line"/>
      <point x="546" y="504" type="line"/>
      <point x="508" y="456" type="line"/>
      <point x="538" y="429"/>
      <point x="557" y="388"/>
      <point x="557" y="327" type="curve" smooth="yes"/>
      <point x="557" y="323"/>
      <point x="557" y="318"/>
      <point x="557" y="313" type="curve"/>
      <point x="554" y="264"/>
      <point x="539" y="196"/>
      <point x="505" y="134" type="curve"/>
      <point x="501" y="128"/>
      <point x="498" y="122"/>
      <point x="494" y="116" type="curve" smooth="yes"/>
      <point x="450" y="47"/>
      <point x="387" y="-4"/>
      <point x="291" y="-11" type="curve"/>
      <point x="283" y="-12"/>
      <point x="276" y="-12"/>
      <point x="268" y="-12" type="curve" smooth="yes"/>
      <point x="223" y="-12"/>
      <point x="186" y="-2"/>
      <point x="159" y="16" type="curve"/>
      <point x="115" y="-39" type="line"/>
      <point x="88" y="-12" type="line"/>
      <point x="129" y="39" type="line"/>
      <point x="99" y="71"/>
      <point x="84" y="117"/>
    </contour>
  </outline>
</glyph>
<glyph name="yacute" format="2">
  <advance width="468"/>
  <unicode hex="00FD"/>
  <outline>
    <contour>
      <point x="-5" y="-187" type="curve" smooth="yes"/>
      <point x="-5" y="-158"/>
      <point x="20" y="-128"/>
      <point x="46" y="-127" type="curve"/>
      <point x="61" y="-127"/>
      <point x="69" y="-135"/>
      <point x="81" y="-151" type="curve"/>
      <point x="81" y="-151"/>
      <point x="81" y="-151"/>
      <point x="81" y="-151" type="curve"/>
      <point x="96" y="-171"/>
      <point x="107" y="-182"/>
      <point x="122" y="-182" type="curve" smooth="yes"/>
      <point x="142" y="-182"/>
      <point x="168" y="-153"/>
      <point x="186" y="-111" type="curve" smooth="yes"/>
      <point x="202" y="-73"/>
      <point x="207" y="-41"/>
      <point x="209" y="-15" type="curve" smooth="yes"/>
      <point x="210" y="-5"/>
      <point x="210" y="4"/>
      <point x="210" y="13" type="curve" smooth="yes"/>
      <point x="210" y="93"/>
      <point x="188" y="285"/>
      <point x="177" y="363" type="curve" smooth="yes"/>
      <point x="169" y="415"/>
      <point x="164" y="432"/>
      <point x="142" y="431" type="curve" smooth="yes"/>
      <point x="74" y="429" type="line"/>
      <point x="71" y="454" type="line"/>
      <point x="239" y="502" type="line"/>
      <point x="247" y="498" type="line"/>
      <point x="261" y="425"/>
      <point x="280" y="214"/>
      <point x="287" y="61" type="curve"/>
      <point x="290" y="61" type="line"/>
      <point x="356" y="175"/>
      <point x="415" y="283"/>
      <point x="431" y="339" type="curve" smooth="yes"/>
      <point x="443" y="381"/>
      <point x="445" y="442"/>
      <point x="444" y="477" type="curve"/>
      <point x="469" y="494"/>
      <point x="503" y="502"/>
      <point x="522" y="502" type="curve" smooth="yes"/>
      <point x="529" y="502"/>
      <point x="540" y="481"/>
      <point x="540" y="446" type="curve" smooth="yes"/>
      <point x="540" y="406"/>
      <point x="477" y="309"/>
      <point x="420" y="215" type="curve" smooth="yes"/>
      <point x="362" y="120"/>
      <point x="306" y="21"/>
      <point x="283" y="-19" type="curve"/>
      <point x="281" y="-22"/>
      <point x="279" y="-25"/>
      <point x="278" y="-27" type="curve"/>
      <point x="196" y="-170"/>
      <point x="158" y="-234"/>
      <point x="83" y="-241" type="curve"/>
      <point x="78" y="-242"/>
      <point x="73" y="-242"/>
      <point x="68" y="-242" type="curve" smooth="yes"/>
      <point x="24" y="-242"/>
      <point x="-5" y="-214"/>
    </contour>
    <contour>
      <point x="303" y="562" type="line"/>
      <point x="422" y="682" type="line" smooth="yes"/>
      <point x="452" y="713"/>
      <point x="469" y="723"/>
      <point x="486" y="723" type="curve" smooth="yes"/>
      <point x="501" y="723"/>
      <point x="525" y="700"/>
      <point x="525" y="680" type="curve" smooth="yes"/>
      <point x="525" y="677"/>
      <point x="524" y="673"/>
      <point x="523" y="670" type="curve"/>
      <point x="516" y="653"/>
      <point x="494" y="639"/>
      <point x="469" y="626" type="curve"/>
      <point x="318" y="542" type="line"/>
    </contour>
  </outline>
</glyph>
<glyph name="Aogonek" format="2">
  <advance width="624"/>
  <unicode hex="0104"/>
  <outline>
    <contour>
      <point x="263" y="305" type="curve"/>
      <point x="462" y="305" type="line"/>
      <point x="427" y="599" type="line"/>
      <point x="425" y="599" type="line"/>
      <point x="371" y="501"/>
      <point x="317" y="403"/>
    </contour>
    <contour>
      <point x="-23" y="0" type="line"/>
      <point x="-17" y="29" type="line"/>
      <point x="16" y="33" type="line"/>
      <point x="41" y="35"/>
      <point x="57" y="43"/>
      <point x="78" y="72" type="curve" smooth="yes"/>
      <point x="84" y="80"/>
      <point x="90" y="89"/>
      <point x="96" y="99" type="curve" smooth="yes"/>
      <point x="126" y="148"/>
      <point x="186" y="255"/>
      <point x="235" y="342" type="curve"/>
      <point x="247" y="362"/>
      <point x="257" y="380"/>
      <point x="267" y="397" type="curve" smooth="yes"/>
      <point x="435" y="692" type="line"/>
      <point x="506" y="692" type="line"/>
      <point x="546" y="370" type="line" smooth="yes"/>
      <point x="557" y="276"/>
      <point x="569" y="183"/>
      <point x="580" y="90" type="curve" smooth="yes"/>
      <point x="585" y="49"/>
      <point x="589" y="35"/>
      <point x="620" y="32" type="curve" smooth="yes"/>
      <point x="658" y="29" type="line"/>
      <point x="652" y="0" type="line"/>
      <point x="559" y="0" type="line"/>
      <point x="511" y="-38"/>
      <point x="477" y="-81"/>
      <point x="477" y="-137" type="curve" smooth="yes"/>
      <point x="477" y="-163"/>
      <point x="490" y="-176"/>
      <point x="509" y="-181" type="curve"/>
      <point x="515" y="-183"/>
      <point x="523" y="-184"/>
      <point x="530" y="-184" type="curve" smooth="yes"/>
      <point x="547" y="-184"/>
      <point x="563" y="-182"/>
      <point x="583" y="-172" type="curve"/>
      <point x="591" y="-193" type="line"/>
      <point x="561" y="-222"/>
      <point x="527" y="-230"/>
      <point x="498" y="-230" type="curve" smooth="yes"/>
      <point x="486" y="-230"/>
      <point x="476" y="-229"/>
      <point x="467" y="-227" type="curve" smooth="yes"/>
      <point x="414" y="-214"/>
      <point x="406" y="-170"/>
      <point x="406" y="-152" type="curve"/>
      <point x="406" y="-152"/>
      <point x="406" y="-152"/>
      <point x="406" y="-152" type="curve"/>
      <point x="406" y="-91"/>
      <point x="459" y="-36"/>
      <point x="517" y="0" type="curve"/>
      <point x="406" y="0" type="line"/>
      <point x="412" y="29" type="line"/>
      <point x="465" y="34" type="line" smooth="yes"/>
      <point x="485" y="36"/>
      <point x="493" y="44"/>
      <point x="490" y="73" type="curve" smooth="yes"/>
      <point x="467" y="267" type="line"/>
      <point x="243" y="267" type="line"/>
      <point x="212" y="208"/>
      <point x="181" y="148"/>
      <point x="149" y="89" type="curve"/>
      <point x="140" y="71" type="line"/>
      <point x="131" y="50"/>
      <point x="133" y="36"/>
      <point x="153" y="34" type="curve" smooth="yes"/>
      <point x="208" y="29" type="line"/>
      <point x="202" y="0" type="line"/>
    </contour>
  </outline>
</glyph>
<glyph name="aogonek" format="2">
  <advance width="561"/>
  <unicode hex="0105"/>
  <outline>
    <contour>
      <point x="165" y="110" type="curve" smooth="yes"/>
      <point x="165" y="71"/>
      <point x="176" y="40"/>
      <point x="209" y="40" type="curve" smooth="yes"/>
      <point x="252" y="40"/>
      <point x="306" y="94"/>
      <point x="357" y="167" type="curve"/>
      <point x="363" y="175"/>
      <point x="368" y="184"/>
      <point x="374" y="192" type="curve"/>
      <point x="427" y="272"/>
      <point x="463" y="371"/>
      <point x="481" y="445" type="curve"/>
      <point x="466" y="459"/>
      <point x="444" y="467"/>
      <point x="420" y="467" type="curve" smooth="yes"/>
      <point x="263" y="467"/>
      <point x="165" y="220"/>
    </contour>
    <contour>
      <point x="66" y="107" type="curve" smooth="yes"/>
      <point x="66" y="234"/>
      <point x="172" y="483"/>
      <point x="393" y="501" type="curve"/>
      <point x="401" y="502"/>
      <point x="410" y="502"/>
      <point x="418" y="502" type="curve" smooth="yes"/>
      <point x="445" y="502"/>
      <point x="474" y="493"/>
      <point x="491" y="481" type="curve"/>
      <point x="496" y="494" type="line"/>
      <point x="580" y="494" type="line"/>
      <point x="479" y="115" type="line"/>
      <point x="474" y="95" type="line"/>
      <point x="465" y="63"/>
      <point x="464" y="40"/>
      <point x="484" y="40" type="curve" smooth="yes"/>
      <point x="512" y="40"/>
      <point x="556" y="111"/>
      <point x="574" y="146" type="curve"/>
      <point x="598" y="132" type="line"/>
      <point x="564" y="56"/>
      <point x="519" y="2"/>
      <point x="439" y="-16" type="curve" smooth="yes"/>
      <point x="435" y="-17"/>
      <point x="430" y="-19"/>
      <point x="426" y="-21" type="curve" smooth="yes"/>
      <point x="394" y="-38"/>
      <point x="363" y="-88"/>
      <point x="363" y="-137" type="curve" smooth="yes"/>
      <point x="363" y="-163"/>
      <point x="376" y="-176"/>
      <point x="395" y="-181" type="curve"/>
      <point x="401" y="-183"/>
      <point x="409" y="-184"/>
      <point x="416" y="-184" type="curve" smooth="yes"/>
      <point x="433" y="-184"/>
      <point x="449" y="-182"/>
      <point x="469" y="-172" type="curve"/>
      <point x="477" y="-193" type="line"/>
      <point x="447" y="-222"/>
      <point x="413" y="-230"/>
      <point x="384" y="-230" type="curve" smooth="yes"/>
      <point x="372" y="-230"/>
      <point x="362" y="-229"/>
      <point x="353" y="-227" type="curve" smooth="yes"/>
      <point x="300" y="-214"/>
      <point x="292" y="-170"/>
      <point x="292" y="-152" type="curve"/>
      <point x="292" y="-152"/>
      <point x="292" y="-152"/>
      <point x="292" y="-152" type="curve"/>
      <point x="292" y="-93"/>
      <point x="343" y="-37"/>
      <point x="401" y="-5" type="curve"/>
      <point x="374" y="9"/>
      <point x="373" y="48"/>
      <point x="388" y="100" type="curve" smooth="yes"/>
      <point x="422" y="214" type="line"/>
      <point x="420" y="214" type="line"/>
      <point x="362" y="112"/>
      <point x="269" y="-12"/>
      <point x="162" y="-12" type="curve" smooth="yes"/>
      <point x="94" y="-12"/>
      <point x="66" y="47"/>
    </contour>
  </outline>
</glyph>
<glyph name="cacute" format="2">
  <advance width="441"/>
  <unicode hex="0107"/>
  <outline>
    <contour>
      <point x="81" y="148" type="curve" smooth="yes"/>
      <point x="81" y="312"/>
      <point x="193" y="502"/>
      <point x="371" y="502" type="curve" smooth="yes"/>
      <point x="446" y="502"/>
      <point x="500" y="464"/>
      <point x="500" y="413" type="curve" smooth="yes"/>
      <point x="500" y="380"/>
      <point x="460" y="357"/>
      <point x="436" y="357" type="curve" smooth="yes"/>
      <point x="418" y="357"/>
      <point x="409" y="369"/>
      <point x="407" y="387" type="curve"/>
      <point x="406" y="399"/>
      <point x="404" y="409"/>
      <point x="402" y="418" type="curve"/>
      <point x="392" y="454"/>
      <point x="373" y="467"/>
      <point x="347" y="467" type="curve" smooth="yes"/>
      <point x="255" y="467"/>
      <point x="180" y="298"/>
      <point x="180" y="168" type="curve" smooth="yes"/>
      <point x="180" y="97"/>
      <point x="195" y="37"/>
      <point x="268" y="37" type="curve" smooth="yes"/>
      <point x="335" y="37"/>
      <point x="394" y="108"/>
      <point x="428" y="154" type="curve"/>
      <point x="452" y="135" type="line"/>
      <point x="383" y="20"/>
      <point x="298" y="-12"/>
      <point x="224" y="-12" type="curve" smooth="yes"/>
      <point x="154" y="-12"/>
      <point x="81" y="26"/>
    </contour>
    <contour>
      <point x="311" y="562" type="line"/>
      <point x="430" y="682" type="line" smooth="yes"/>
      <point x="460" y="713"/>
      <point x="477" y="723"/>
      <point x="494" y="723" type="curve" smooth="yes"/>
      <point x="509" y="723"/>
      <point x="533" y="700"/>
      <point x="533" y="680" type="curve" smooth="yes"/>
      <point x="533" y="677"/>
      <point x="532" y="673"/>
      <point x="531" y="670" type="curve"/>
      <point x="524" y="653"/>
      <point x="502" y="639"/>
      <point x="477" y="626" type="curve"/>
      <point x="326" y="542" type="line"/>
    </contour>
  </outline>
</glyph>
<glyph name="cdotaccent" format="2">
  <advance width="441"/>
  <unicode hex="010B"/>
  <outline>
    <contour>
      <point x="81" y="148" type="curve" smooth="yes"/>
      <point x="81" y="312"/>
      <point x="193" y="502"/>
      <point x="371" y="502" type="curve" smooth="yes"/>
      <point x="446" y="502"/>
      <point x="500" y="464"/>
      <point x="500" y="413" type="curve" smooth="yes"/>
      <point x="500" y="380"/>
      <point x="460" y="357"/>
      <point x="436" y="357" type="curve" smooth="yes"/>
      <point x="418" y="357"/>
      <point x="409" y="369"/>
      <point x="407" y="387" type="curve"/>
      <point x="406" y="399"/>
      <point x="404" y="409"/>
      <point x="402" y="418" type="curve"/>
      <point x="392" y="454"/>
      <point x="373" y="467"/>
      <point x="347" y="467" type="curve" smooth="yes"/>
      <point x="255" y="467"/>
      <point x="180" y="298"/>
      <point x="180" y="168" type="curve" smooth="yes"/>
      <point x="180" y="97"/>
      <point x="195" y="37"/>
      <point x="268" y="37" type="curve" smooth="yes"/>
      <point x="335" y="37"/>
      <point x="394" y="108"/>
      <point x="428" y="154" type="curve"/>
      <point x="452" y="135" type="line"/>
      <point x="383" y="20"/>
      <point x="298" y="-12"/>
      <point x="224" y="-12" type="curve" smooth="yes"/>
      <point x="154" y="-12"/>
      <point x="81" y="26"/>
    </contour>
    <contour>
      <point x="346" y="619" type="curve" smooth="yes"/>
      <point x="346" y="651"/>
      <point x="367" y="675"/>
      <point x="395" y="679" type="curve"/>
      <point x="398" y="680"/>
      <point x="402" y="680"/>
      <point x="405" y="680" type="curve" smooth="yes"/>
      <point x="435" y="680"/>
      <point x="453" y="656"/>
      <point x="453" y="631" type="curve"/>
      <point x="453" y="631"/>
      <point x="453" y="631"/>
      <point x="453" y="631" type="curve"/>
      <point x="453" y="600"/>
      <point x="434" y="575"/>
      <point x="405" y="571" type="curve"/>
      <point x="402" y="570"/>
      <point x="399" y="570"/>
      <point x="395" y="570" type="curve" smooth="yes"/>
      <point x="363" y="570"/>
      <point x="346" y="590"/>
    </contour>
  </outline>
</glyph>
<glyph name="Dcaron" format="2">
  <advance width="763"/>
  <unicode hex="010E"/>
  <outline>
    <contour>
      <point x="239" y="86" type="line" smooth="yes"/>
      <point x="229" y="42"/>
      <point x="266" y="35"/>
      <point x="321" y="35" type="curve" smooth="yes"/>
      <point x="487" y="35"/>
      <point x="573" y="97"/>
      <point x="630" y="191" type="curve" smooth="yes"/>
      <point x="675" y="265"/>
      <point x="695" y="347"/>
      <point x="695" y="433" type="curve" smooth="yes"/>
      <point x="695" y="442"/>
      <point x="695" y="452"/>
      <point x="694" y="462" type="curve"/>
      <point x="689" y="542"/>
      <point x="654" y="653"/>
      <point x="469" y="657" type="curve"/>
      <point x="382" y="657"/>
      <point x="368" y="654"/>
      <point x="360" y="620" type="curve" smooth="yes"/>
    </contour>
    <contour>
      <point x="40" y="0" type="line"/>
      <point x="46" y="29" type="line"/>
      <point x="102" y="35" type="line" smooth="yes"/>
      <point x="126" y="37"/>
      <point x="136" y="50"/>
      <point x="143" y="83" type="curve"/>
      <point x="143" y="83"/>
      <point x="143" y="83"/>
      <point x="143" y="83" type="curve"/>
      <point x="255" y="576" type="line"/>
      <point x="257" y="587"/>
      <point x="260" y="598"/>
      <point x="262" y="609" type="curve"/>
      <point x="269" y="642"/>
      <point x="264" y="656"/>
      <point x="241" y="658" type="curve" smooth="yes"/>
      <point x="182" y="663" type="line"/>
      <point x="188" y="692" type="line"/>
      <point x="457" y="692" type="line" smooth="yes"/>
      <point x="568" y="692"/>
      <point x="658" y="669"/>
      <point x="716" y="620" type="curve" smooth="yes"/>
      <point x="773" y="572"/>
      <point x="802" y="492"/>
      <point x="802" y="411" type="curve" smooth="yes"/>
      <point x="802" y="351"/>
      <point x="792" y="267"/>
      <point x="735" y="181" type="curve" smooth="yes"/>
      <point x="663" y="72"/>
      <point x="547" y="0"/>
      <point x="347" y="0" type="curve" smooth="yes"/>
    </contour>
    <contour>
      <point x="406" y="869" type="line"/>
      <point x="424" y="888" type="line"/>
      <point x="514" y="828" type="line" smooth="yes"/>
      <point x="526" y="820"/>
      <point x="537" y="813"/>
      <point x="546" y="813" type="curve" smooth="yes"/>
      <point x="554" y="813"/>
      <point x="569" y="820"/>
      <point x="582" y="827" type="curve" smooth="yes"/>
      <point x="699" y="888" type="line"/>
      <point x="712" y="868" type="line"/>
      <point x="572" y="757" type="line" smooth="yes"/>
      <point x="554" y="742"/>
      <point x="543" y="734"/>
      <point x="530" y="734" type="curve" smooth="yes"/>
      <point x="518" y="734"/>
      <point x="508" y="745"/>
      <point x="497" y="759" type="curve" smooth="yes"/>
    </contour>
  </outline>
</glyph>
<glyph name="dcaron" format="2">
  <advance width="607"/>
  <unicode hex="010F"/>
  <outline>
    <contour>
      <point x="682" y="733" type="curve" smooth="yes"/>
      <point x="682" y="760"/>
      <point x="700" y="783"/>
      <point x="725" y="789" type="curve"/>
      <point x="729" y="789"/>
      <point x="733" y="790"/>
      <point x="738" y="790" type="curve" smooth="yes"/>
      <point x="771" y="790"/>
      <point x="792" y="764"/>
      <point x="792" y="727" type="curve" smooth="yes"/>
      <point x="792" y="656"/>
      <point x="741" y="602"/>
      <point x="674" y="552" type="curve"/>
      <point x="659" y="569" type="line"/>
      <point x="688" y="597"/>
      <point x="706" y="636"/>
      <point x="709" y="658" type="curve"/>
      <point x="710" y="661"/>
      <point x="710" y="664"/>
      <point x="710" y="666" type="curve" smooth="yes"/>
      <point x="710" y="695"/>
      <point x="682" y="704"/>
    </contour>
    <contour>
      <point x="171" y="112" type="curve" smooth="yes"/>
      <point x="171" y="67"/>
      <point x="189" y="40"/>
      <point x="221" y="40" type="curve" smooth="yes"/>
      <point x="274" y="40"/>
      <point x="340" y="115"/>
      <point x="388" y="193" type="curve" smooth="yes"/>
      <point x="439" y="276"/>
      <point x="472" y="370"/>
      <point x="487" y="447" type="curve"/>
      <point x="475" y="458"/>
      <point x="449" y="467"/>
      <point x="418" y="467" type="curve" smooth="yes"/>
      <point x="258" y="467"/>
      <point x="171" y="220"/>
    </contour>
    <contour>
      <point x="72" y="120" type="curve" smooth="yes"/>
      <point x="72" y="235"/>
      <point x="169" y="477"/>
      <point x="380" y="500" type="curve" smooth="yes"/>
      <point x="390" y="501"/>
      <point x="401" y="502"/>
      <point x="412" y="502" type="curve" smooth="yes"/>
      <point x="446" y="502"/>
      <point x="477" y="495"/>
      <point x="496" y="485" type="curve"/>
      <point x="498" y="487" type="line"/>
      <point x="536" y="648" type="line" smooth="yes"/>
      <point x="544" y="680"/>
      <point x="542" y="687"/>
      <point x="518" y="689" type="curve" smooth="yes"/>
      <point x="458" y="695" type="line"/>
      <point x="464" y="718" type="line"/>
      <point x="642" y="742" type="line"/>
      <point x="647" y="737" type="line"/>
      <point x="496" y="122" type="line"/>
      <point x="489" y="95" type="line" smooth="yes"/>
      <point x="481" y="63"/>
      <point x="479" y="40"/>
      <point x="499" y="40" type="curve" smooth="yes"/>
      <point x="527" y="40"/>
      <point x="571" y="111"/>
      <point x="589" y="146" type="curve"/>
      <point x="613" y="132" type="line"/>
      <point x="579" y="56"/>
      <point x="523" y="-12"/>
      <point x="450" y="-12" type="curve"/>
      <point x="399" y="-13"/>
      <point x="384" y="28"/>
      <point x="404" y="99" type="curve" smooth="yes"/>
      <point x="437" y="218" type="line"/>
      <point x="435" y="218" type="line"/>
      <point x="376" y="111"/>
      <point x="287" y="-12"/>
      <point x="172" y="-12" type="curve" smooth="yes"/>
      <point x="91" y="-12"/>
      <point x="72" y="55"/>
    </contour>
  </outline>
</glyph>
<glyph name="Dcroat" format="2">
  <advance width="763"/>
  <unicode hex="0110"/>
  <outline>
    <contour>
      <point x="239" y="86" type="line" smooth="yes"/>
      <point x="229" y="42"/>
      <point x="266" y="35"/>
      <point x="321" y="35" type="curve" smooth="yes"/>
      <point x="487" y="35"/>
      <point x="573" y="97"/>
      <point x="630" y="191" type="curve" smooth="yes"/>
      <point x="675" y="265"/>
      <point x="695" y="347"/>
      <point x="695" y="433" type="curve" smooth="yes"/>
      <point x="695" y="441"/>
      <point x="695" y="450"/>
      <point x="694" y="459" type="curve"/>
      <point x="690" y="540"/>
      <point x="656" y="653"/>
      <point x="469" y="657" type="curve"/>
      <point x="382" y="657"/>
      <point x="368" y="654"/>
      <point x="360" y="620" type="curve" smooth="yes"/>
      <point x="306" y="382" type="line"/>
      <point x="409" y="382" type="line"/>
      <point x="395" y="323" type="line"/>
      <point x="292" y="323" type="line"/>
    </contour>
    <contour>
      <point x="40" y="0" type="line"/>
      <point x="46" y="29" type="line"/>
      <point x="102" y="35" type="line" smooth="yes"/>
      <point x="126" y="37"/>
      <point x="136" y="50"/>
      <point x="143" y="83" type="curve" smooth="yes"/>
      <point x="197" y="323" type="line"/>
      <point x="117" y="323" type="line"/>
      <point x="131" y="382" type="line"/>
      <point x="211" y="382" type="line"/>
      <point x="256" y="581" type="line" smooth="yes"/>
      <point x="258" y="590"/>
      <point x="260" y="600"/>
      <point x="262" y="609" type="curve" smooth="yes"/>
      <point x="269" y="642"/>
      <point x="264" y="656"/>
      <point x="241" y="658" type="curve" smooth="yes"/>
      <point x="182" y="663" type="line"/>
      <point x="188" y="692" type="line"/>
      <point x="457" y="692" type="line" smooth="yes"/>
      <point x="568" y="692"/>
      <point x="658" y="669"/>
      <point x="716" y="620" type="curve" smooth="yes"/>
      <point x="773" y="572"/>
      <point x="802" y="492"/>
      <point x="802" y="411" type="curve" smooth="yes"/>
      <point x="802" y="351"/>
      <point x="792" y="267"/>
      <point x="735" y="181" type="curve" smooth="yes"/>
      <point x="663" y="72"/>
      <point x="547" y="0"/>
      <point x="347" y="0" type="curve" smooth="yes"/>
    </contour>
  </outline>
</glyph>
<glyph name="Edotaccent" format="2">
  <advance width="596"/>
  <unicode hex="0116"/>
  <outline>
    <contour>
      <point x="38" y="0" type="line"/>
      <point x="44" y="29" type="line"/>
      <point x="100" y="35" type="line" smooth="yes"/>
      <point x="124" y="37"/>
      <point x="133" y="49"/>
      <point x="141" y="83" type="curve" smooth="yes"/>
      <point x="254" y="580" type="line" smooth="yes"/>
      <point x="256" y="590"/>
      <point x="259" y="601"/>
      <point x="261" y="611" type="curve"/>
      <point x="269" y="645"/>
      <point x="262" y="657"/>
      <point x="239" y="659" type="curve" smooth="yes"/>
      <point x="179" y="663" type="line"/>
      <point x="186" y="692" type="line"/>
      <point x="692" y="692" type="line"/>
      <point x="654" y="525" type="line"/>
      <point x="624" y="525" type="line"/>
      <point x="627" y="551"/>
      <point x="629" y="573"/>
      <point x="627" y="591" type="curve"/>
      <point x="624" y="636"/>
      <point x="600" y="657"/>
      <point x="510" y="657" type="curve" smooth="yes"/>
      <point x="419" y="657" type="line" smooth="yes"/>
      <point x="409" y="657"/>
      <point x="399" y="657"/>
      <point x="389" y="657" type="curve" smooth="yes"/>
      <point x="372" y="657"/>
      <point x="366" y="652"/>
      <point x="361" y="628" type="curve" smooth="yes"/>
      <point x="304" y="379" type="line"/>
      <point x="435" y="379" type="line" smooth="yes"/>
      <point x="523" y="379"/>
      <point x="534" y="395"/>
      <point x="560" y="464" type="curve"/>
      <point x="590" y="464" type="line"/>
      <point x="544" y="255" type="line"/>
      <point x="514" y="255" type="line"/>
      <point x="518" y="320"/>
      <point x="515" y="341"/>
      <point x="427" y="341" type="curve" smooth="yes"/>
      <point x="296" y="341" type="line"/>
      <point x="245" y="122" type="line" smooth="yes"/>
      <point x="241" y="106"/>
      <point x="239" y="94"/>
      <point x="238" y="85" type="curve" smooth="yes"/>
      <point x="236" y="65"/>
      <point x="240" y="56"/>
      <point x="250" y="48" type="curve" smooth="yes"/>
      <point x="263" y="38"/>
      <point x="313" y="35"/>
      <point x="362" y="35" type="curve" smooth="yes"/>
      <point x="471" y="35"/>
      <point x="519" y="49"/>
      <point x="564" y="139" type="curve"/>
      <point x="570" y="150"/>
      <point x="575" y="162"/>
      <point x="581" y="176" type="curve"/>
      <point x="611" y="176" type="line"/>
      <point x="560" y="0" type="line"/>
    </contour>
    <contour>
      <point x="427" y="787" type="curve" smooth="yes"/>
      <point x="427" y="819"/>
      <point x="448" y="843"/>
      <point x="476" y="847" type="curve"/>
      <point x="479" y="848"/>
      <point x="483" y="848"/>
      <point x="486" y="848" type="curve" smooth="yes"/>
      <point x="516" y="848"/>
      <point x="534" y="824"/>
      <point x="534" y="799" type="curve"/>
      <point x="534" y="799"/>
      <point x="534" y="799"/>
      <point x="534" y="799" type="curve"/>
      <point x="534" y="768"/>
      <point x="515" y="743"/>
      <point x="486" y="739" type="curve"/>
      <point x="483" y="738"/>
      <point x="480" y="738"/>
      <point x="476" y="738" type="curve" smooth="yes"/>
      <point x="444" y="738"/>
      <point x="427" y="758"/>
    </contour>
  </outline>
</glyph>
<glyph name="edotaccent" format="2">
  <advance width="453"/>
  <unicode hex="0117"/>
  <outline>
    <contour>
      <point x="182" y="226" type="curve"/>
      <point x="351" y="262"/>
      <point x="412" y="338"/>
      <point x="412" y="408" type="curve" smooth="yes"/>
      <point x="412" y="434"/>
      <point x="399" y="454"/>
      <point x="378" y="463" type="curve" smooth="yes"/>
      <point x="371" y="466"/>
      <point x="363" y="467"/>
      <point x="354" y="467" type="curve" smooth="yes"/>
      <point x="274" y="467"/>
      <point x="199" y="347"/>
    </contour>
    <contour>
      <point x="80" y="152" type="curve" smooth="yes"/>
      <point x="80" y="236"/>
      <point x="110" y="323"/>
      <point x="163" y="388" type="curve" smooth="yes"/>
      <point x="213" y="450"/>
      <point x="279" y="493"/>
      <point x="358" y="501" type="curve" smooth="yes"/>
      <point x="366" y="502"/>
      <point x="374" y="502"/>
      <point x="382" y="502" type="curve" smooth="yes"/>
      <point x="464" y="502"/>
      <point x="506" y="455"/>
      <point x="506" y="402" type="curve" smooth="yes"/>
      <point x="506" y="374"/>
      <point x="499" y="341"/>
      <point x="464" y="306" type="curve"/>
      <point x="421" y="266"/>
      <point x="348" y="226"/>
      <point x="180" y="192" type="curve"/>
      <point x="179" y="185"/>
      <point x="179" y="181"/>
      <point x="179" y="176" type="curve" smooth="yes"/>
      <point x="179" y="97"/>
      <point x="200" y="37"/>
      <point x="270" y="37" type="curve" smooth="yes"/>
      <point x="345" y="37"/>
      <point x="399" y="104"/>
      <point x="435" y="151" type="curve"/>
      <point x="458" y="131" type="line"/>
      <point x="390" y="20"/>
      <point x="302" y="-12"/>
      <point x="229" y="-12" type="curve" smooth="yes"/>
      <point x="171" y="-12"/>
      <point x="80" y="12"/>
    </contour>
    <contour>
      <point x="357" y="619" type="curve" smooth="yes"/>
      <point x="357" y="651"/>
      <point x="378" y="675"/>
      <point x="406" y="679" type="curve"/>
      <point x="409" y="680"/>
      <point x="413" y="680"/>
      <point x="416" y="680" type="curve" smooth="yes"/>
      <point x="446" y="680"/>
      <point x="464" y="656"/>
      <point x="464" y="631" type="curve"/>
      <point x="464" y="631"/>
      <point x="464" y="631"/>
      <point x="464" y="631" type="curve"/>
      <point x="464" y="600"/>
      <point x="445" y="575"/>
      <point x="416" y="571" type="curve"/>
      <point x="413" y="570"/>
      <point x="410" y="570"/>
      <point x="406" y="570" type="curve" smooth="yes"/>
      <point x="374" y="570"/>
      <point x="357" y="590"/>
    </contour>
  </outline>
</glyph>
<glyph name="eogonek" format="2">
  <advance width="453"/>
  <unicode hex="0119"/>
  <outline>
    <contour>
      <point x="182" y="226" type="curve"/>
      <point x="351" y="262"/>
      <point x="412" y="338"/>
      <point x="412" y="408" type="curve" smooth="yes"/>
      <point x="412" y="434"/>
      <point x="399" y="454"/>
      <point x="378" y="463" type="curve" smooth="yes"/>
      <point x="371" y="466"/>
      <point x="363" y="467"/>
      <point x="354" y="467" type="curve" smooth="yes"/>
      <point x="274" y="467"/>
      <point x="199" y="347"/>
    </contour>
    <contour>
      <point x="80" y="152" type="curve" smooth="yes"/>
      <point x="80" y="236"/>
      <point x="110" y="320"/>
      <point x="161" y="385" type="curve" smooth="yes"/>
      <point x="211" y="450"/>
      <point x="282" y="496"/>
      <point x="364" y="501" type="curve"/>
      <point x="370" y="502"/>
      <point x="376" y="502"/>
      <point x="382" y="502" type="curve" smooth="yes"/>
      <point x="464" y="502"/>
      <point x="506" y="455"/>
      <point x="506" y="402" type="curve" smooth="yes"/>
      <point x="506" y="397"/>
      <point x="506" y="393"/>
      <point x="505" y="388" type="curve"/>
      <point x="503" y="363"/>
      <point x="493" y="335"/>
      <point x="464" y="306" type="curve" smooth="yes"/>
      <point x="462" y="304"/>
      <point x="459" y="302"/>
      <point x="457" y="299" type="curve"/>
      <point x="413" y="262"/>
      <point x="339" y="224"/>
      <point x="180" y="192" type="curve"/>
      <point x="179" y="185"/>
      <point x="179" y="181"/>
      <point x="179" y="176" type="curve" smooth="yes"/>
      <point x="179" y="97"/>
      <point x="200" y="37"/>
      <point x="270" y="37" type="curve" smooth="yes"/>
      <point x="345" y="37"/>
      <point x="399" y="104"/>
      <point x="435" y="151" type="curve"/>
      <point x="458" y="131" type="line"/>
      <point x="413" y="60"/>
      <point x="385" y="46"/>
      <point x="348" y="15" type="curve" smooth="yes"/>
      <point x="295" y="-29"/>
      <point x="261" y="-72"/>
      <point x="255" y="-122" type="curve"/>
      <point x="254" y="-127"/>
      <point x="254" y="-132"/>
      <point x="254" y="-137" type="curve" smooth="yes"/>
      <point x="254" y="-171"/>
      <point x="277" y="-184"/>
      <point x="307" y="-184" type="curve" smooth="yes"/>
      <point x="324" y="-184"/>
      <point x="340" y="-182"/>
      <point x="360" y="-172" type="curve"/>
      <point x="368" y="-193" type="line"/>
      <point x="338" y="-222"/>
      <point x="304" y="-230"/>
      <point x="275" y="-230" type="curve"/>
      <point x="275" y="-230"/>
      <point x="275" y="-230"/>
      <point x="275" y="-230" type="curve"/>
      <point x="194" y="-230"/>
      <point x="183" y="-173"/>
      <point x="183" y="-152" type="curve"/>
      <point x="183" y="-152"/>
      <point x="183" y="-152"/>
      <point x="183" y="-152" type="curve"/>
      <point x="183" y="-93"/>
      <point x="229" y="-43"/>
      <point x="289" y="-4" type="curve"/>
      <point x="263" y="-10"/>
      <point x="252" y="-12"/>
      <point x="229" y="-12" type="curve" smooth="yes"/>
      <point x="171" y="-12"/>
      <point x="80" y="12"/>
    </contour>
  </outline>
</glyph>
<glyph name="ecaron" format="2">
  <advance width="453"/>
  <unicode hex="011B"/>
  <outline>
    <contour>
      <point x="182" y="226" type="curve"/>
      <point x="351" y="262"/>
      <point x="412" y="338"/>
      <point x="412" y="408" type="curve" smooth="yes"/>
      <point x="412" y="434"/>
      <point x="399" y="454"/>
      <point x="378" y="463" type="curve" smooth="yes"/>
      <point x="371" y="466"/>
      <point x="363" y="467"/>
      <point x="354" y="467" type="curve" smooth="yes"/>
      <point x="274" y="467"/>
      <point x="199" y="347"/>
    </contour>
    <contour>
      <point x="80" y="152" type="curve" smooth="yes"/>
      <point x="80" y="236"/>
      <point x="110" y="323"/>
      <point x="163" y="388" type="curve" smooth="yes"/>
      <point x="213" y="450"/>
      <point x="279" y="493"/>
      <point x="358" y="501" type="curve" smooth="yes"/>
      <point x="366" y="502"/>
      <point x="374" y="502"/>
      <point x="382" y="502" type="curve" smooth="yes"/>
      <point x="464" y="502"/>
      <point x="506" y="455"/>
      <point x="506" y="402" type="curve" smooth="yes"/>
      <point x="506" y="374"/>
      <point x="499" y="341"/>
      <point x="464" y="306" type="curve"/>
      <point x="421" y="266"/>
      <point x="348" y="226"/>
      <point x="180" y="192" type="curve"/>
      <point x="179" y="185"/>
      <point x="179" y="181"/>
      <point x="179" y="176" type="curve" smooth="yes"/>
      <point x="179" y="97"/>
      <point x="200" y="37"/>
      <point x="270" y="37" type="curve" smooth="yes"/>
      <point x="345" y="37"/>
      <point x="399" y="104"/>
      <point x="435" y="151" type="curve"/>
      <point x="458" y="131" type="line"/>
      <point x="390" y="20"/>
      <point x="302" y="-12"/>
      <point x="229" y="-12" type="curve" smooth="yes"/>
      <point x="171" y="-12"/>
      <point x="80" y="12"/>
    </contour>
    <contour>
      <point x="275" y="710" type="line"/>
      <point x="298" y="731" type="line"/>
      <point x="383" y="656" type="line"/>
      <point x="393" y="648"/>
      <point x="402" y="641"/>
      <point x="411" y="641" type="curve" smooth="yes"/>
      <point x="418" y="641"/>
      <point x="431" y="648"/>
      <point x="443" y="656" type="curve" smooth="yes"/>
      <point x="558" y="731" type="line"/>
      <point x="572" y="710" type="line"/>
      <point x="434" y="581" type="line"/>
      <point x="419" y="568"/>
      <point x="406" y="557"/>
      <point x="394" y="557" type="curve" smooth="yes"/>
      <point x="383" y="557"/>
      <point x="373" y="569"/>
      <point x="364" y="581" type="curve"/>
    </contour>
  </outline>
</glyph>
<glyph name="gcircumflex" format="2">
  <advance width="499"/>
  <unicode hex="011D"/>
  <outline>
    <contour>
      <point x="214" y="301" type="curve" smooth="yes"/>
      <point x="214" y="257"/>
      <point x="238" y="223"/>
      <point x="280" y="216" type="curve" smooth="yes"/>
      <point x="286" y="215"/>
      <point x="291" y="215"/>
      <point x="297" y="215" type="curve" smooth="yes"/>
      <point x="332" y="215"/>
      <point x="361" y="231"/>
      <point x="382" y="258" type="curve" smooth="yes"/>
      <point x="406" y="289"/>
      <point x="420" y="333"/>
      <point x="420" y="383" type="curve" smooth="yes"/>
      <point x="420" y="391"/>
      <point x="419" y="398"/>
      <point x="418" y="404" type="curve" smooth="yes"/>
      <point x="410" y="449"/>
      <point x="377" y="463"/>
      <point x="351" y="466" type="curve"/>
      <point x="347" y="467"/>
      <point x="343" y="467"/>
      <point x="340" y="467" type="curve" smooth="yes"/>
      <point x="245" y="467"/>
      <point x="214" y="364"/>
    </contour>
    <contour>
      <point x="122" y="-87" type="curve" smooth="yes"/>
      <point x="122" y="-159"/>
      <point x="185" y="-207"/>
      <point x="272" y="-207" type="curve" smooth="yes"/>
      <point x="347" y="-207"/>
      <point x="409" y="-170"/>
      <point x="409" y="-94" type="curve" smooth="yes"/>
      <point x="409" y="-10"/>
      <point x="291" y="16"/>
      <point x="228" y="25" type="curve"/>
      <point x="223" y="24"/>
      <point x="217" y="23"/>
      <point x="212" y="21" type="curve"/>
      <point x="172" y="10"/>
      <point x="122" y="-24"/>
    </contour>
    <contour>
      <point x="30" y="-96" type="curve" smooth="yes"/>
      <point x="30" y="-13"/>
      <point x="116" y="29"/>
      <point x="184" y="41" type="curve"/>
      <point x="184" y="43" type="line"/>
      <point x="143" y="62"/>
      <point x="113" y="85"/>
      <point x="113" y="118" type="curve" smooth="yes"/>
      <point x="113" y="141"/>
      <point x="133" y="158"/>
      <point x="155" y="171" type="curve"/>
      <point x="172" y="180"/>
      <point x="191" y="187"/>
      <point x="204" y="193" type="curve"/>
      <point x="204" y="195" type="line"/>
      <point x="174" y="206"/>
      <point x="120" y="244"/>
      <point x="120" y="318" type="curve" smooth="yes"/>
      <point x="120" y="389"/>
      <point x="169" y="502"/>
      <point x="333" y="502" type="curve" smooth="yes"/>
      <point x="382" y="502"/>
      <point x="431" y="489"/>
      <point x="457" y="472" type="curve"/>
      <point x="602" y="512" type="line"/>
      <point x="608" y="503" type="line"/>
      <point x="575" y="440" type="line"/>
      <point x="491" y="428" type="line"/>
      <point x="504" y="411"/>
      <point x="512" y="386"/>
      <point x="512" y="359" type="curve" smooth="yes"/>
      <point x="512" y="256"/>
      <point x="435" y="180"/>
      <point x="296" y="180" type="curve" smooth="yes"/>
      <point x="281" y="180"/>
      <point x="262" y="180"/>
      <point x="242" y="183" type="curve"/>
      <point x="218" y="177"/>
      <point x="198" y="163"/>
      <point x="198" y="144" type="curve" smooth="yes"/>
      <point x="198" y="116"/>
      <point x="235" y="102"/>
      <point x="319" y="82" type="curve" smooth="yes"/>
      <point x="437" y="54"/>
      <point x="494" y="0"/>
      <point x="494" y="-75" type="curve" smooth="yes"/>
      <point x="494" y="-185"/>
      <point x="385" y="-242"/>
      <point x="250" y="-242" type="curve" smooth="yes"/>
      <point x="123" y="-242"/>
      <point x="30" y="-185"/>
    </contour>
    <contour>
      <point x="231" y="567" type="line"/>
      <point x="369" y="696" type="line"/>
      <point x="373" y="699"/>
      <point x="376" y="702"/>
      <point x="380" y="705" type="curve"/>
      <point x="390" y="714"/>
      <point x="400" y="720"/>
      <point x="409" y="720" type="curve" smooth="yes"/>
      <point x="420" y="720"/>
      <point x="430" y="708"/>
      <point x="439" y="696" type="curve"/>
      <point x="528" y="567" type="line"/>
      <point x="505" y="546" type="line"/>
      <point x="420" y="621" type="line"/>
      <point x="410" y="629"/>
      <point x="401" y="636"/>
      <point x="392" y="636" type="curve" smooth="yes"/>
      <point x="385" y="636"/>
      <point x="372" y="629"/>
      <point x="360" y="621" type="curve" smooth="yes"/>
      <point x="245" y="546" type="line"/>
    </contour>
  </outline>
</glyph>
<glyph name="Gbreve" format="2">
  <advance width="709"/>
  <unicode hex="011E"/>
  <outline>
    <contour>
      <point x="114" y="285" type="curve" smooth="yes"/>
      <point x="114" y="373"/>
      <point x="143" y="479"/>
      <point x="209" y="563" type="curve" smooth="yes"/>
      <point x="279" y="652"/>
      <point x="390" y="707"/>
      <point x="543" y="707" type="curve" smooth="yes"/>
      <point x="627" y="707"/>
      <point x="706" y="690"/>
      <point x="767" y="657" type="curve"/>
      <point x="731" y="501" type="line"/>
      <point x="701" y="501" type="line"/>
      <point x="708" y="587"/>
      <point x="689" y="672"/>
      <point x="542" y="672" type="curve" smooth="yes"/>
      <point x="303" y="672"/>
      <point x="224" y="438"/>
      <point x="224" y="278" type="curve" smooth="yes"/>
      <point x="224" y="101"/>
      <point x="313" y="20"/>
      <point x="434" y="20" type="curve" smooth="yes"/>
      <point x="517" y="20"/>
      <point x="542" y="36"/>
      <point x="552" y="57" type="curve" smooth="yes"/>
      <point x="555" y="63"/>
      <point x="557" y="68"/>
      <point x="558" y="74" type="curve"/>
      <point x="588" y="195" type="line"/>
      <point x="590" y="205"/>
      <point x="593" y="215"/>
      <point x="595" y="225" type="curve"/>
      <point x="604" y="260"/>
      <point x="597" y="271"/>
      <point x="578" y="273" type="curve" smooth="yes"/>
      <point x="503" y="280" type="line"/>
      <point x="509" y="309" type="line"/>
      <point x="772" y="309" type="line"/>
      <point x="766" y="280" type="line"/>
      <point x="722" y="276" type="line"/>
      <point x="705" y="274"/>
      <point x="699" y="259"/>
      <point x="691" y="225" type="curve"/>
      <point x="691" y="225"/>
      <point x="691" y="225"/>
      <point x="691" y="225" type="curve"/>
      <point x="644" y="23" type="line"/>
      <point x="587" y="2"/>
      <point x="505" y="-15"/>
      <point x="432" y="-15" type="curve" smooth="yes"/>
      <point x="339" y="-15"/>
      <point x="258" y="8"/>
      <point x="199" y="59" type="curve" smooth="yes"/>
      <point x="147" y="104"/>
      <point x="114" y="185"/>
    </contour>
    <contour>
      <point x="433" y="870" type="curve"/>
      <point x="461" y="870" type="line"/>
      <point x="458" y="851"/>
      <point x="475" y="808"/>
      <point x="566" y="808" type="curve" smooth="yes"/>
      <point x="657" y="808"/>
      <point x="692" y="851"/>
      <point x="699" y="870" type="curve"/>
      <point x="727" y="870" type="line"/>
      <point x="714" y="814"/>
      <point x="670" y="749"/>
      <point x="552" y="749" type="curve" smooth="yes"/>
      <point x="434" y="749"/>
      <point x="420" y="814"/>
    </contour>
  </outline>
</glyph>
<glyph name="gbreve" format="2">
  <advance width="499"/>
  <unicode hex="011F"/>
  <outline>
    <contour>
      <point x="214" y="301" type="curve" smooth="yes"/>
      <point x="214" y="257"/>
      <point x="238" y="223"/>
      <point x="280" y="216" type="curve" smooth="yes"/>
      <point x="286" y="215"/>
      <point x="291" y="215"/>
      <point x="297" y="215" type="curve" smooth="yes"/>
      <point x="332" y="215"/>
      <point x="361" y="231"/>
      <point x="382" y="258" type="curve" smooth="yes"/>
      <point x="406" y="289"/>
      <point x="420" y="333"/>
      <point x="420" y="383" type="curve" smooth="yes"/>
      <point x="420" y="391"/>
      <point x="419" y="398"/>
      <point x="418" y="404" type="curve" smooth="yes"/>
      <point x="410" y="449"/>
      <point x="377" y="463"/>
      <point x="351" y="466" type="curve"/>
      <point x="347" y="467"/>
      <point x="343" y="467"/>
      <point x="340" y="467" type="curve" smooth="yes"/>
      <point x="245" y="467"/>
      <point x="214" y="364"/>
    </contour>
    <contour>
      <point x="122" y="-87" type="curve" smooth="yes"/>
      <point x="122" y="-159"/>
      <point x="185" y="-207"/>
      <point x="272" y="-207" type="curve" smooth="yes"/>
      <point x="347" y="-207"/>
      <point x="409" y="-170"/>
      <point x="409" y="-94" type="curve" smooth="yes"/>
      <point x="409" y="-10"/>
      <point x="291" y="16"/>
      <point x="228" y="25" type="curve"/>
      <point x="223" y="24"/>
      <point x="217" y="23"/>
      <point x="212" y="21" type="curve"/>
      <point x="172" y="10"/>
      <point x="122" y="-24"/>
    </contour>
    <contour>
      <point x="30" y="-96" type="curve" smooth="yes"/>
      <point x="30" y="-13"/>
      <point x="116" y="29"/>
      <point x="184" y="41" type="curve"/>
      <point x="184" y="43" type="line"/>
      <point x="143" y="62"/>
      <point x="113" y="85"/>
      <point x="113" y="118" type="curve" smooth="yes"/>
      <point x="113" y="141"/>
      <point x="133" y="158"/>
      <point x="155" y="171" type="curve"/>
      <point x="172" y="180"/>
      <point x="191" y="187"/>
      <point x="204" y="193" type="curve"/>
      <point x="204" y="195" type="line"/>
      <point x="174" y="206"/>
      <point x="120" y="244"/>
      <point x="120" y="318" type="curve" smooth="yes"/>
      <point x="120" y="389"/>
      <point x="169" y="502"/>
      <point x="333" y="502" type="curve" smooth="yes"/>
      <point x="382" y="502"/>
      <point x="431" y="489"/>
      <point x="457" y="472" type="curve"/>
      <point x="602" y="512" type="line"/>
      <point x="608" y="503" type="line"/>
      <point x="575" y="440" type="line"/>
      <point x="491" y="428" type="line"/>
      <point x="504" y="411"/>
      <point x="512" y="386"/>
      <point x="512" y="359" type="curve" smooth="yes"/>
      <point x="512" y="256"/>
      <point x="435" y="180"/>
      <point x="296" y="180" type="curve" smooth="yes"/>
      <point x="281" y="180"/>
      <point x="262" y="180"/>
      <point x="242" y="183" type="curve"/>
      <point x="218" y="177"/>
      <point x="198" y="163"/>
      <point x="198" y="144" type="curve" smooth="yes"/>
      <point x="198" y="116"/>
      <point x="235" y="102"/>
      <point x="319" y="82" type="curve" smooth="yes"/>
      <point x="437" y="54"/>
      <point x="494" y="0"/>
      <point x="494" y="-75" type="curve" smooth="yes"/>
      <point x="494" y="-185"/>
      <point x="385" y="-242"/>
      <point x="250" y="-242" type="curve" smooth="yes"/>
      <point x="123" y="-242"/>
      <point x="30" y="-185"/>
    </contour>
    <contour>
      <point x="279" y="698" type="curve"/>
      <point x="303" y="698" type="line"/>
      <point x="301" y="678"/>
      <point x="303" y="630"/>
      <point x="391" y="630" type="curve" smooth="yes"/>
      <point x="480" y="630"/>
      <point x="505" y="678"/>
      <point x="516" y="698" type="curve"/>
      <point x="542" y="698" type="line"/>
      <point x="526" y="629"/>
      <point x="492" y="568"/>
      <point x="373" y="568" type="curve" smooth="yes"/>
      <point x="316" y="568"/>
      <point x="268" y="585"/>
      <point x="268" y="646" type="curve" smooth="yes"/>
      <point x="268" y="661"/>
      <point x="272" y="682"/>
    </contour>
  </outline>
</glyph>
<glyph name="Gdotaccent" format="2">
  <advance width="709"/>
  <unicode hex="0120"/>
  <outline>
    <contour>
      <point x="114" y="285" type="curve" smooth="yes"/>
      <point x="114" y="373"/>
      <point x="143" y="479"/>
      <point x="209" y="563" type="curve" smooth="yes"/>
      <point x="279" y="652"/>
      <point x="390" y="707"/>
      <point x="543" y="707" type="curve" smooth="yes"/>
      <point x="627" y="707"/>
      <point x="706" y="690"/>
      <point x="767" y="657" type="curve"/>
      <point x="731" y="501" type="line"/>
      <point x="701" y="501" type="line"/>
      <point x="708" y="587"/>
      <point x="689" y="672"/>
      <point x="542" y="672" type="curve" smooth="yes"/>
      <point x="303" y="672"/>
      <point x="224" y="438"/>
      <point x="224" y="278" type="curve" smooth="yes"/>
      <point x="224" y="101"/>
      <point x="313" y="20"/>
      <point x="434" y="20" type="curve" smooth="yes"/>
      <point x="517" y="20"/>
      <point x="542" y="36"/>
      <point x="552" y="57" type="curve" smooth="yes"/>
      <point x="555" y="63"/>
      <point x="557" y="68"/>
      <point x="558" y="74" type="curve"/>
      <point x="588" y="195" type="line"/>
      <point x="590" y="205"/>
      <point x="593" y="215"/>
      <point x="595" y="225" type="curve"/>
      <point x="604" y="260"/>
      <point x="597" y="271"/>
      <point x="578" y="273" type="curve" smooth="yes"/>
      <point x="503" y="280" type="line"/>
      <point x="509" y="309" type="line"/>
      <point x="772" y="309" type="line"/>
      <point x="766" y="280" type="line"/>
      <point x="722" y="276" type="line"/>
      <point x="705" y="274"/>
      <point x="699" y="259"/>
      <point x="691" y="225" type="curve"/>
      <point x="691" y="225"/>
      <point x="691" y="225"/>
      <point x="691" y="225" type="curve"/>
      <point x="644" y="23" type="line"/>
      <point x="587" y="2"/>
      <point x="505" y="-15"/>
      <point x="432" y="-15" type="curve" smooth="yes"/>
      <point x="339" y="-15"/>
      <point x="258" y="8"/>
      <point x="199" y="59" type="curve" smooth="yes"/>
      <point x="147" y="104"/>
      <point x="114" y="185"/>
    </contour>
    <contour>
      <point x="508" y="787" type="curve" smooth="yes"/>
      <point x="508" y="819"/>
      <point x="529" y="843"/>
      <point x="557" y="847" type="curve"/>
      <point x="560" y="848"/>
      <point x="564" y="848"/>
      <point x="567" y="848" type="curve" smooth="yes"/>
      <point x="597" y="848"/>
      <point x="615" y="824"/>
      <point x="615" y="799" type="curve"/>
      <point x="615" y="799"/>
      <point x="615" y="799"/>
      <point x="615" y="799" type="curve"/>
      <point x="615" y="768"/>
      <point x="596" y="743"/>
      <point x="567" y="739" type="curve"/>
      <point x="564" y="738"/>
      <point x="561" y="738"/>
      <point x="557" y="738" type="curve" smooth="yes"/>
      <point x="525" y="738"/>
      <point x="508" y="758"/>
    </contour>
  </outline>
</glyph>
<glyph name="gdotaccent" format="2">
  <advance width="499"/>
  <unicode hex="0121"/>
  <outline>
    <contour>
      <point x="214" y="301" type="curve" smooth="yes"/>
      <point x="214" y="257"/>
      <point x="238" y="223"/>
      <point x="280" y="216" type="curve" smooth="yes"/>
      <point x="286" y="215"/>
      <point x="291" y="215"/>
      <point x="297" y="215" type="curve" smooth="yes"/>
      <point x="332" y="215"/>
      <point x="361" y="231"/>
      <point x="382" y="258" type="curve" smooth="yes"/>
      <point x="406" y="289"/>
      <point x="420" y="333"/>
      <point x="420" y="383" type="curve" smooth="yes"/>
      <point x="420" y="391"/>
      <point x="419" y="398"/>
      <point x="418" y="404" type="curve" smooth="yes"/>
      <point x="410" y="449"/>
      <point x="377" y="463"/>
      <point x="351" y="466" type="curve"/>
      <point x="347" y="467"/>
      <point x="343" y="467"/>
      <point x="340" y="467" type="curve" smooth="yes"/>
      <point x="245" y="467"/>
      <point x="214" y="364"/>
    </contour>
    <contour>
      <point x="122" y="-87" type="curve" smooth="yes"/>
      <point x="122" y="-159"/>
      <point x="185" y="-207"/>
      <point x="272" y="-207" type="curve" smooth="yes"/>
      <point x="347" y="-207"/>
      <point x="409" y="-170"/>
      <point x="409" y="-94" type="curve" smooth="yes"/>
      <point x="409" y="-10"/>
      <point x="291" y="16"/>
      <point x="228" y="25" type="curve"/>
      <point x="223" y="24"/>
      <point x="217" y="23"/>
      <point x="212" y="21" type="curve"/>
      <point x="172" y="10"/>
      <point x="122" y="-24"/>
    </contour>
    <contour>
      <point x="30" y="-96" type="curve" smooth="yes"/>
      <point x="30" y="-13"/>
      <point x="116" y="29"/>
      <point x="184" y="41" type="curve"/>
      <point x="184" y="43" type="line"/>
      <point x="143" y="62"/>
      <point x="113" y="85"/>
      <point x="113" y="118" type="curve" smooth="yes"/>
      <point x="113" y="141"/>
      <point x="133" y="158"/>
      <point x="155" y="171" type="curve"/>
      <point x="172" y="180"/>
      <point x="191" y="187"/>
      <point x="204" y="193" type="curve"/>
      <point x="204" y="195" type="line"/>
      <point x="174" y="206"/>
      <point x="120" y="244"/>
      <point x="120" y="318" type="curve" smooth="yes"/>
      <point x="120" y="389"/>
      <point x="169" y="502"/>
      <point x="333" y="502" type="curve" smooth="yes"/>
      <point x="382" y="502"/>
      <point x="431" y="489"/>
      <point x="457" y="472" type="curve"/>
      <point x="602" y="512" type="line"/>
      <point x="608" y="503" type="line"/>
      <point x="575" y="440" type="line"/>
      <point x="491" y="428" type="line"/>
      <point x="504" y="411"/>
      <point x="512" y="386"/>
      <point x="512" y="359" type="curve" smooth="yes"/>
      <point x="512" y="256"/>
      <point x="435" y="180"/>
      <point x="296" y="180" type="curve" smooth="yes"/>
      <point x="281" y="180"/>
      <point x="262" y="180"/>
      <point x="242" y="183" type="curve"/>
      <point x="218" y="177"/>
      <point x="198" y="163"/>
      <point x="198" y="144" type="curve" smooth="yes"/>
      <point x="198" y="116"/>
      <point x="235" y="102"/>
      <point x="319" y="82" type="curve" smooth="yes"/>
      <point x="437" y="54"/>
      <point x="494" y="0"/>
      <point x="494" y="-75" type="curve" smooth="yes"/>
      <point x="494" y="-185"/>
      <point x="385" y="-242"/>
      <point x="250" y="-242" type="curve" smooth="yes"/>
      <point x="123" y="-242"/>
      <point x="30" y="-185"/>
    </contour>
    <contour>
      <point x="339" y="619" type="curve" smooth="yes"/>
      <point x="339" y="651"/>
      <point x="360" y="675"/>
      <point x="388" y="679" type="curve"/>
      <point x="391" y="680"/>
      <point x="395" y="680"/>
      <point x="398" y="680" type="curve" smooth="yes"/>
      <point x="428" y="680"/>
      <point x="446" y="656"/>
      <point x="446" y="631" type="curve"/>
      <point x="446" y="631"/>
      <point x="446" y="631"/>
      <point x="446" y="631" type="curve"/>
      <point x="446" y="600"/>
      <point x="427" y="575"/>
      <point x="398" y="571" type="curve"/>
      <point x="395" y="570"/>
      <point x="392" y="570"/>
      <point x="388" y="570" type="curve" smooth="yes"/>
      <point x="356" y="570"/>
      <point x="339" y="590"/>
    </contour>
  </outline>
</glyph>
<glyph name="Hcircumflex" format="2">
  <advance width="775"/>
  <unicode hex="0124"/>
  <outline>
    <contour>
      <point x="40" y="0" type="line"/>
      <point x="46" y="29" type="line"/>
      <point x="101" y="35" type="line" smooth="yes"/>
      <point x="125" y="37"/>
      <point x="135" y="49"/>
      <point x="143" y="83" type="curve" smooth="yes"/>
      <point x="256" y="578" type="line"/>
      <point x="258" y="588"/>
      <point x="261" y="599"/>
      <point x="263" y="609" type="curve" smooth="yes"/>
      <point x="270" y="641"/>
      <point x="264" y="657"/>
      <point x="241" y="659" type="curve" smooth="yes"/>
      <point x="182" y="663" type="line"/>
      <point x="189" y="692" type="line"/>
      <point x="463" y="692" type="line"/>
      <point x="456" y="663" type="line"/>
      <point x="401" y="658" type="line" smooth="yes"/>
      <point x="376" y="656"/>
      <point x="367" y="642"/>
      <point x="359" y="609" type="curve" smooth="yes"/>
      <point x="306" y="379" type="line"/>
      <point x="640" y="379" type="line"/>
      <point x="686" y="580" type="line"/>
      <point x="688" y="590"/>
      <point x="690" y="599"/>
      <point x="692" y="609" type="curve" smooth="yes"/>
      <point x="699" y="641"/>
      <point x="693" y="657"/>
      <point x="670" y="659" type="curve" smooth="yes"/>
      <point x="611" y="663" type="line"/>
      <point x="618" y="692" type="line"/>
      <point x="892" y="692" type="line"/>
      <point x="885" y="663" type="line"/>
      <point x="830" y="658" type="line" smooth="yes"/>
      <point x="805" y="656"/>
      <point x="796" y="642"/>
      <point x="788" y="609" type="curve" smooth="yes"/>
      <point x="675" y="114" type="line"/>
      <point x="673" y="104"/>
      <point x="670" y="93"/>
      <point x="668" y="83" type="curve"/>
      <point x="660" y="50"/>
      <point x="666" y="35"/>
      <point x="690" y="33" type="curve" smooth="yes"/>
      <point x="749" y="29" type="line"/>
      <point x="743" y="0" type="line"/>
      <point x="469" y="0" type="line"/>
      <point x="475" y="29" type="line"/>
      <point x="530" y="35" type="line" smooth="yes"/>
      <point x="554" y="37"/>
      <point x="564" y="49"/>
      <point x="572" y="83" type="curve" smooth="yes"/>
      <point x="631" y="341" type="line"/>
      <point x="297" y="341" type="line"/>
      <point x="245" y="112" type="line" smooth="yes"/>
      <point x="243" y="102"/>
      <point x="241" y="93"/>
      <point x="239" y="83" type="curve" smooth="yes"/>
      <point x="232" y="50"/>
      <point x="237" y="35"/>
      <point x="261" y="33" type="curve" smooth="yes"/>
      <point x="320" y="29" type="line"/>
      <point x="314" y="0" type="line"/>
    </contour>
    <contour>
      <point x="404" y="742" type="line"/>
      <point x="544" y="853" type="line" smooth="yes"/>
      <point x="562" y="868"/>
      <point x="573" y="876"/>
      <point x="586" y="876" type="curve" smooth="yes"/>
      <point x="598" y="876"/>
      <point x="608" y="865"/>
      <point x="619" y="851" type="curve" smooth="yes"/>
      <point x="710" y="741" type="line"/>
      <point x="692" y="722" type="line"/>
      <point x="613" y="774" type="line" smooth="yes"/>
      <point x="610" y="776"/>
      <point x="606" y="779"/>
      <point x="602" y="781" type="curve"/>
      <point x="594" y="787"/>
      <point x="586" y="792"/>
      <point x="580" y="795" type="curve"/>
      <point x="576" y="796"/>
      <point x="573" y="797"/>
      <point x="570" y="797" type="curve" smooth="yes"/>
      <point x="562" y="797"/>
      <point x="547" y="790"/>
      <point x="534" y="783" type="curve" smooth="yes"/>
      <point x="417" y="722" type="line"/>
    </contour>
  </outline>
</glyph>
<glyph name="hcircumflex" format="2">
  <advance width="607"/>
  <unicode hex="0125"/>
  <outline>
    <contour>
      <point x="92" y="-12" type="line"/>
      <point x="238" y="639" type="line" smooth="yes"/>
      <point x="247" y="678"/>
      <point x="243" y="685"/>
      <point x="218" y="688" type="curve" smooth="yes"/>
      <point x="161" y="695" type="line"/>
      <point x="167" y="718" type="line"/>
      <point x="347" y="742" type="line"/>
      <point x="352" y="737" type="line"/>
      <point x="240" y="279" type="line"/>
      <point x="243" y="279" type="line"/>
      <point x="307" y="399"/>
      <point x="413" y="502"/>
      <point x="508" y="502" type="curve" smooth="yes"/>
      <point x="589" y="502"/>
      <point x="602" y="436"/>
      <point x="578" y="357" type="curve" smooth="yes"/>
      <point x="508" y="124" type="line"/>
      <point x="499" y="95" type="line" smooth="yes"/>
      <point x="489" y="63"/>
      <point x="489" y="40"/>
      <point x="509" y="40" type="curve" smooth="yes"/>
      <point x="537" y="40"/>
      <point x="581" y="111"/>
      <point x="599" y="146" type="curve"/>
      <point x="623" y="132" type="line"/>
      <point x="589" y="56"/>
      <point x="533" y="-12"/>
      <point x="464" y="-12" type="curve"/>
      <point x="464" y="-12"/>
      <point x="464" y="-12"/>
      <point x="464" y="-12" type="curve"/>
      <point x="407" y="-12"/>
      <point x="393" y="30"/>
      <point x="412" y="96" type="curve" smooth="yes"/>
      <point x="486" y="352" type="line"/>
      <point x="494" y="380" type="line" smooth="yes"/>
      <point x="506" y="421"/>
      <point x="494" y="450"/>
      <point x="462" y="450" type="curve" smooth="yes"/>
      <point x="383" y="450"/>
      <point x="294" y="324"/>
      <point x="256" y="243" type="curve" smooth="yes"/>
      <point x="252" y="235"/>
      <point x="249" y="227"/>
      <point x="246" y="220" type="curve"/>
      <point x="221" y="157"/>
      <point x="206" y="102"/>
      <point x="179" y="0" type="curve"/>
    </contour>
    <contour>
      <point x="328" y="807" type="line"/>
      <point x="466" y="936" type="line"/>
      <point x="470" y="939"/>
      <point x="473" y="942"/>
      <point x="477" y="945" type="curve"/>
      <point x="487" y="954"/>
      <point x="497" y="960"/>
      <point x="506" y="960" type="curve" smooth="yes"/>
      <point x="517" y="960"/>
      <point x="527" y="948"/>
      <point x="536" y="936" type="curve"/>
      <point x="625" y="807" type="line"/>
      <point x="602" y="786" type="line"/>
      <point x="517" y="861" type="line"/>
      <point x="507" y="869"/>
      <point x="498" y="876"/>
      <point x="489" y="876" type="curve" smooth="yes"/>
      <point x="482" y="876"/>
      <point x="469" y="869"/>
      <point x="457" y="861" type="curve" smooth="yes"/>
      <point x="342" y="786" type="line"/>
    </contour>
  </outline>
</glyph>
<glyph name="hbar" format="2">
  <advance width="607"/>
  <unicode hex="0127"/>
  <outline>
    <contour>
      <point x="238" y="639" type="line" smooth="yes"/>
      <point x="241" y="651"/>
      <point x="242" y="660"/>
      <point x="242" y="667" type="curve" smooth="yes"/>
      <point x="242" y="682"/>
      <point x="235" y="686"/>
      <point x="218" y="688" type="curve" smooth="yes"/>
      <point x="161" y="695" type="line"/>
      <point x="167" y="718" type="line"/>
      <point x="347" y="742" type="line"/>
      <point x="352" y="737" type="line"/>
      <point x="240" y="279" type="line"/>
      <point x="243" y="279" type="line"/>
      <point x="307" y="399"/>
      <point x="413" y="502"/>
      <point x="511" y="502" type="curve" smooth="yes"/>
      <point x="566" y="502"/>
      <point x="589" y="469"/>
      <point x="589" y="421" type="curve" smooth="yes"/>
      <point x="589" y="402"/>
      <point x="585" y="380"/>
      <point x="578" y="357" type="curve" smooth="yes"/>
      <point x="499" y="95" type="line" smooth="yes"/>
      <point x="495" y="82"/>
      <point x="492" y="70"/>
      <point x="492" y="61" type="curve" smooth="yes"/>
      <point x="492" y="48"/>
      <point x="497" y="40"/>
      <point x="507" y="40" type="curve" smooth="yes"/>
      <point x="537" y="40"/>
      <point x="581" y="111"/>
      <point x="599" y="146" type="curve"/>
      <point x="623" y="132" type="line"/>
      <point x="589" y="56"/>
      <point x="533" y="-12"/>
      <point x="463" y="-12" type="curve" smooth="yes"/>
      <point x="423" y="-12"/>
      <point x="404" y="10"/>
      <point x="404" y="47" type="curve" smooth="yes"/>
      <point x="404" y="61"/>
      <point x="407" y="78"/>
      <point x="412" y="96" type="curve" smooth="yes"/>
      <point x="494" y="380" type="line" smooth="yes"/>
      <point x="497" y="391"/>
      <point x="499" y="400"/>
      <point x="499" y="410" type="curve" smooth="yes"/>
      <point x="499" y="434"/>
      <point x="486" y="450"/>
      <point x="459" y="450" type="curve" smooth="yes"/>
      <point x="375" y="450"/>
      <point x="276" y="298"/>
      <point x="246" y="220" type="curve" smooth="yes"/>
      <point x="221" y="157"/>
      <point x="206" y="102"/>
      <point x="179" y="0" type="curve"/>
      <point x="92" y="-12" type="line"/>
    </contour>
    <contour>
      <point x="539" y="599" type="line"/>
      <point x="531" y="564" type="line"/>
      <point x="146" y="564" type="line"/>
      <point x="154" y="599" type="line"/>
    </contour>
  </outline>
</glyph>
<glyph name="itilde" format="2">
  <advance width="317"/>
  <unicode hex="0129"/>
  <outline>
    <contour>
      <point x="120" y="86" type="curve" smooth="yes"/>
      <point x="204" y="399" type="line" smooth="yes"/>
      <point x="213" y="434"/>
      <point x="210" y="443"/>
      <point x="183" y="445" type="curve" smooth="yes"/>
      <point x="126" y="450" type="line"/>
      <point x="132" y="474" type="line"/>
      <point x="314" y="502" type="line"/>
      <point x="319" y="497" type="line"/>
      <point x="210" y="95" type="line" smooth="yes"/>
      <point x="201" y="63"/>
      <point x="200" y="40"/>
      <point x="220" y="40" type="curve" smooth="yes"/>
      <point x="248" y="40"/>
      <point x="292" y="111"/>
      <point x="310" y="146" type="curve"/>
      <point x="334" y="132" type="line"/>
      <point x="300" y="56"/>
      <point x="244" y="-12"/>
      <point x="172" y="-12" type="curve" smooth="yes"/>
      <point x="118" y="-12"/>
      <point x="105" y="29"/>
    </contour>
    <contour>
      <point x="117" y="576" type="line"/>
      <point x="137" y="616"/>
      <point x="165" y="674"/>
      <point x="229" y="674" type="curve" smooth="yes"/>
      <point x="253" y="674"/>
      <point x="281" y="665"/>
      <point x="308" y="655" type="curve"/>
      <point x="336" y="646"/>
      <point x="363" y="636"/>
      <point x="384" y="636" type="curve" smooth="yes"/>
      <point x="412" y="636"/>
      <point x="424" y="647"/>
      <point x="452" y="682" type="curve"/>
      <point x="472" y="671" type="line"/>
      <point x="443" y="614"/>
      <point x="417" y="576"/>
      <point x="368" y="576" type="curve" smooth="yes"/>
      <point x="346" y="576"/>
      <point x="317" y="586"/>
      <point x="288" y="595" type="curve"/>
      <point x="259" y="605"/>
      <point x="230" y="614"/>
      <point x="208" y="614" type="curve" smooth="yes"/>
      <point x="175" y="614"/>
      <point x="158" y="598"/>
      <point x="136" y="563" type="curve"/>
    </contour>
  </outline>
</glyph>
<glyph name="imacron" format="2">
  <advance width="317"/>
  <unicode hex="012B"/>
  <outline>
    <contour>
      <point x="120" y="86" type="curve" smooth="yes"/>
      <point x="198" y="375" type="line"/>
      <point x="204" y="399" type="line" smooth="yes"/>
      <point x="213" y="434"/>
      <point x="210" y="443"/>
      <point x="183" y="445" type="curve" smooth="yes"/>
      <point x="126" y="450" type="line"/>
      <point x="132" y="474" type="line"/>
      <point x="314" y="502" type="line"/>
      <point x="319" y="497" type="line"/>
      <point x="216" y="119" type="line"/>
      <point x="210" y="95" type="line"/>
      <point x="201" y="63"/>
      <point x="200" y="40"/>
      <point x="220" y="40" type="curve" smooth="yes"/>
      <point x="248" y="40"/>
      <point x="292" y="111"/>
      <point x="310" y="146" type="curve"/>
      <point x="334" y="132" type="line"/>
      <point x="300" y="56"/>
      <point x="244" y="-12"/>
      <point x="172" y="-12" type="curve" smooth="yes"/>
      <point x="118" y="-12"/>
      <point x="105" y="29"/>
    </contour>
    <contour>
      <point x="147" y="597" type="line"/>
      <point x="165" y="656" type="line"/>
      <point x="443" y="656" type="line"/>
      <point x="425" y="597" type="line"/>
    </contour>
  </outline>
</glyph>
<glyph name="Jcircumflex" format="2">
  <advance width="352"/>
  <unicode hex="0134"/>
  <outline>
    <contour>
      <point x="-43" y="-92" type="line"/>
      <point x="-1" y="-88"/>
      <point x="34" y="-77"/>
      <point x="64" y="-56" type="curve" smooth="yes"/>
      <point x="70" y="-52"/>
      <point x="76" y="-47"/>
      <point x="82" y="-42" type="curve"/>
      <point x="113" y="-13"/>
      <point x="140" y="50"/>
      <point x="162" y="144" type="curve" smooth="yes"/>
      <point x="265" y="586" type="line"/>
      <point x="271" y="612" type="line" smooth="yes"/>
      <point x="278" y="643"/>
      <point x="272" y="656"/>
      <point x="248" y="658" type="curve" smooth="yes"/>
      <point x="189" y="663" type="line"/>
      <point x="196" y="692" type="line"/>
      <point x="471" y="692" type="line"/>
      <point x="464" y="663" type="line"/>
      <point x="409" y="659" type="line" smooth="yes"/>
      <point x="384" y="657"/>
      <point x="374" y="643"/>
      <point x="367" y="612" type="curve" smooth="yes"/>
      <point x="250" y="109" type="line" smooth="yes"/>
      <point x="232" y="31"/>
      <point x="207" y="-20"/>
      <point x="175" y="-54" type="curve"/>
      <point x="165" y="-64"/>
      <point x="155" y="-73"/>
      <point x="145" y="-80" type="curve" smooth="yes"/>
      <point x="105" y="-108"/>
      <point x="36" y="-119"/>
      <point x="-10" y="-119" type="curve" smooth="yes"/>
      <point x="-21" y="-119"/>
      <point x="-32" y="-118"/>
      <point x="-43" y="-117" type="curve"/>
    </contour>
    <contour>
      <point x="195" y="742" type="line"/>
      <point x="335" y="853" type="line" smooth="yes"/>
      <point x="353" y="868"/>
      <point x="364" y="876"/>
      <point x="377" y="876" type="curve" smooth="yes"/>
      <point x="389" y="876"/>
      <point x="399" y="865"/>
      <point x="410" y="851" type="curve" smooth="yes"/>
      <point x="501" y="741" type="line"/>
      <point x="483" y="722" type="line"/>
      <point x="404" y="774" type="line" smooth="yes"/>
      <point x="401" y="776"/>
      <point x="397" y="779"/>
      <point x="393" y="781" type="curve"/>
      <point x="385" y="787"/>
      <point x="377" y="792"/>
      <point x="371" y="795" type="curve"/>
      <point x="367" y="796"/>
      <point x="364" y="797"/>
      <point x="361" y="797" type="curve" smooth="yes"/>
      <point x="353" y="797"/>
      <point x="338" y="790"/>
      <point x="325" y="783" type="curve" smooth="yes"/>
      <point x="208" y="722" type="line"/>
    </contour>
  </outline>
</glyph>
<glyph name="jcircumflex" format="2">
  <advance width="309"/>
  <unicode hex="0135"/>
  <outline>
    <contour>
      <point x="-60" y="-184" type="curve"/>
      <point x="-60" y="-159"/>
      <point x="-37" y="-134"/>
      <point x="-15" y="-134" type="curve" smooth="yes"/>
      <point x="-2" y="-134"/>
      <point x="5" y="-145"/>
      <point x="11" y="-154" type="curve" smooth="yes"/>
      <point x="18" y="-164"/>
      <point x="24" y="-172"/>
      <point x="30" y="-179" type="curve"/>
      <point x="47" y="-200"/>
      <point x="59" y="-207"/>
      <point x="68" y="-207" type="curve" smooth="yes"/>
      <point x="80" y="-207"/>
      <point x="87" y="-195"/>
      <point x="91" y="-176" type="curve" smooth="yes"/>
      <point x="208" y="373" type="line"/>
      <point x="213" y="395" type="line" smooth="yes"/>
      <point x="221" y="430"/>
      <point x="222" y="443"/>
      <point x="198" y="445" type="curve" smooth="yes"/>
      <point x="136" y="450" type="line"/>
      <point x="142" y="474" type="line"/>
      <point x="321" y="502" type="line"/>
      <point x="326" y="497" type="line"/>
      <point x="213" y="-3" type="line" smooth="yes"/>
      <point x="193" y="-92"/>
      <point x="170" y="-156"/>
      <point x="142" y="-192" type="curve" smooth="yes"/>
      <point x="114" y="-227"/>
      <point x="81" y="-242"/>
      <point x="35" y="-242" type="curve" smooth="yes"/>
      <point x="-17" y="-242"/>
      <point x="-59" y="-217"/>
    </contour>
    <contour>
      <point x="151" y="567" type="line"/>
      <point x="289" y="696" type="line"/>
      <point x="293" y="699"/>
      <point x="296" y="702"/>
      <point x="300" y="705" type="curve"/>
      <point x="310" y="714"/>
      <point x="320" y="720"/>
      <point x="329" y="720" type="curve" smooth="yes"/>
      <point x="340" y="720"/>
      <point x="350" y="708"/>
      <point x="359" y="696" type="curve"/>
      <point x="448" y="567" type="line"/>
      <point x="425" y="546" type="line"/>
      <point x="340" y="621" type="line"/>
      <point x="330" y="629"/>
      <point x="321" y="636"/>
      <point x="312" y="636" type="curve" smooth="yes"/>
      <point x="305" y="636"/>
      <point x="292" y="629"/>
      <point x="280" y="621" type="curve" smooth="yes"/>
      <point x="165" y="546" type="line"/>
    </contour>
  </outline>
</glyph>
<glyph name="kgreenlandic" format="2">
  <advance width="625"/>
  <unicode hex="0138"/>
  <outline>
    <contour>
      <point x="346" y="421" type="curve"/>
      <point x="313" y="266" type="line"/>
      <point x="320" y="273"/>
      <point x="326" y="280"/>
      <point x="333" y="287" type="curve" smooth="yes"/>
      <point x="424" y="380"/>
      <point x="510" y="465"/>
      <point x="560" y="486" type="curve"/>
      <point x="564" y="488"/>
      <point x="568" y="489"/>
      <point x="572" y="490" type="curve"/>
      <point x="675" y="490" type="line"/>
      <point x="669" y="458" type="line"/>
      <point x="619" y="454"/>
      <point x="585" y="442"/>
      <point x="545" y="413" type="curve" smooth="yes"/>
      <point x="496" y="378"/>
      <point x="450" y="345"/>
      <point x="385" y="291" type="curve"/>
      <point x="469" y="155"/>
      <point x="525" y="37"/>
      <point x="590" y="27" type="curve"/>
      <point x="584" y="0" type="line"/>
      <point x="571" y="0"/>
      <point x="559" y="0"/>
      <point x="548" y="1" type="curve"/>
      <point x="460" y="6"/>
      <point x="434" y="28"/>
      <point x="398" y="88" type="curve" smooth="yes"/>
      <point x="349" y="169"/>
      <point x="318" y="221"/>
      <point x="308" y="239" type="curve"/>
      <point x="256" y="0" type="line"/>
      <point x="166" y="0" type="line"/>
      <point x="214" y="224"/>
      <point x="236" y="325"/>
      <point x="247" y="374" type="curve"/>
      <point x="250" y="390"/>
      <point x="252" y="400"/>
      <point x="254" y="407" type="curve"/>
      <point x="255" y="413"/>
      <point x="256" y="418"/>
      <point x="256" y="422" type="curve" smooth="yes"/>
      <point x="256" y="435"/>
      <point x="250" y="441"/>
      <point x="243" y="441" type="curve" smooth="yes"/>
      <point x="221" y="441"/>
      <point x="176" y="414"/>
      <point x="150" y="363" type="curve"/>
      <point x="128" y="374" type="line"/>
      <point x="163" y="458"/>
      <point x="218" y="502"/>
      <point x="291" y="502" type="curve" smooth="yes"/>
      <point x="320" y="502"/>
      <point x="348" y="476"/>
      <point x="348" y="438" type="curve" smooth="yes"/>
      <point x="348" y="432"/>
      <point x="347" y="427"/>
    </contour>
  </outline>
</glyph>
<glyph name="lacute" format="2">
  <advance width="306"/>
  <unicode hex="013A"/>
  <outline>
    <contour>
      <point x="116" y="86" type="curve" smooth="yes"/>
      <point x="245" y="608" type="line"/>
      <point x="253" y="639" type="line" smooth="yes"/>
      <point x="263" y="678"/>
      <point x="258" y="685"/>
      <point x="233" y="688" type="curve" smooth="yes"/>
      <point x="176" y="695" type="line"/>
      <point x="182" y="718" type="line"/>
      <point x="361" y="742" type="line"/>
      <point x="366" y="737" type="line"/>
      <point x="220" y="155" type="line"/>
      <point x="205" y="94" type="line" smooth="yes"/>
      <point x="197" y="61"/>
      <point x="197" y="40"/>
      <point x="215" y="40" type="curve" smooth="yes"/>
      <point x="239" y="40"/>
      <point x="284" y="101"/>
      <point x="307" y="146" type="curve"/>
      <point x="331" y="132" type="line"/>
      <point x="299" y="57"/>
      <point x="238" y="-12"/>
      <point x="168" y="-12" type="curve" smooth="yes"/>
      <point x="114" y="-12"/>
      <point x="102" y="29"/>
    </contour>
    <contour>
      <point x="253" y="802" type="line"/>
      <point x="372" y="922" type="line" smooth="yes"/>
      <point x="402" y="953"/>
      <point x="419" y="963"/>
      <point x="436" y="963" type="curve" smooth="yes"/>
      <point x="451" y="963"/>
      <point x="475" y="940"/>
      <point x="475" y="920" type="curve" smooth="yes"/>
      <point x="475" y="917"/>
      <point x="474" y="913"/>
      <point x="473" y="910" type="curve"/>
      <point x="466" y="893"/>
      <point x="444" y="879"/>
      <point x="419" y="866" type="curve"/>
      <point x="268" y="782" type="line"/>
    </contour>
  </outline>
</glyph>
<glyph name="Ldot" format="2">
  <advance width="565"/>
  <unicode hex="013F"/>
  <outline>
    <contour>
      <point x="40" y="0" type="line"/>
      <point x="46" y="29" type="line"/>
      <point x="101" y="35" type="line" smooth="yes"/>
      <point x="125" y="38"/>
      <point x="135" y="48"/>
      <point x="143" y="83" type="curve" smooth="yes"/>
      <point x="263" y="609" type="line" smooth="yes"/>
      <point x="271" y="642"/>
      <point x="264" y="656"/>
      <point x="241" y="658" type="curve" smooth="yes"/>
      <point x="182" y="663" type="line"/>
      <point x="189" y="692" type="line"/>
      <point x="468" y="692" type="line"/>
      <point x="461" y="663" type="line"/>
      <point x="401" y="659" type="line" smooth="yes"/>
      <point x="376" y="657"/>
      <point x="366" y="642"/>
      <point x="358" y="609" type="curve" smooth="yes"/>
      <point x="247" y="122" type="line" smooth="yes"/>
      <point x="236" y="75"/>
      <point x="237" y="60"/>
      <point x="252" y="48" type="curve" smooth="yes"/>
      <point x="265" y="38"/>
      <point x="315" y="35"/>
      <point x="364" y="35" type="curve" smooth="yes"/>
      <point x="477" y="35"/>
      <point x="522" y="53"/>
      <point x="573" y="176" type="curve"/>
      <point x="603" y="176" type="line"/>
      <point x="552" y="0" type="line"/>
    </contour>
    <contour>
      <point x="365" y="289" type="curve" smooth="yes"/>
      <point x="365" y="330"/>
      <point x="392" y="357"/>
      <point x="430" y="357" type="curve" smooth="yes"/>
      <point x="466" y="357"/>
      <point x="487" y="331"/>
      <point x="487" y="301" type="curve" smooth="yes"/>
      <point x="487" y="259"/>
      <point x="461" y="232"/>
      <point x="422" y="232" type="curve" smooth="yes"/>
      <point x="386" y="232"/>
      <point x="365" y="257"/>
    </contour>
  </outline>
</glyph>
